<svg width="4182" height="5402" viewBox="0 0 4182 5402" fill="none" xmlns="http://www.w3.org/2000/svg">
<g clip-path="url(#clip0_3_30)">
<path fill-rule="evenodd" clip-rule="evenodd" d="M1897.37 2946.63C1864.79 2960.63 1206.74 2863.53 1206.74 2863.53L1006.59 2795.69L939.109 2829.21L1163.86 3103.15L1220.63 3195.62L1394.95 3386.32C1394.95 3386.32 1490.26 3510.92 1487.99 3513.41L1603.21 3512.05L1619.89 3654.32L1712.8 3773.46L1720.15 3864.39L1824.63 3992.17L1825.03 4030.15L1940.54 4184.24L1855.32 4183.99L1834.6 4143.18L1798.95 4170.98C1798.95 4170.98 1800.32 4203.39 1804.48 4259.01C1749.14 4218.29 1762.14 4223.79 1762.14 4223.79C1762.14 4223.79 1736.51 4237.56 1716.19 4254.61C1615.72 4160.72 1576.87 4133.73 1576.87 4133.73L1408.46 4582.5L1247.11 5053.89C1247.11 5053.89 1203.4 5171.28 1179.75 5258.56L1121.6 5342.13L1111.04 5277.1L1030.74 5345.57C1022.32 5333.19 996.865 5311.59 996.865 5311.59L962.335 5341.87C962.335 5341.87 952.584 5324.28 945.33 5316.92L898.282 5378.73L894.455 5333.51C894.455 5333.51 862.335 5340.56 757.022 5401.51C834.274 5268.88 957.933 4991.5 957.933 4991.5L1156.86 4400.28L1296.58 3918.96L1160.33 3633.17L937.872 3245.65L735.964 2971.43L333.092 2578.47L332.794 2554.01C332.794 2554.01 331.152 2548.01 132.869 2493.27C189.614 2470.8 170.4 2476.28 214.369 2454.1C112.086 2394.57 94.2177 2387.9 94.2177 2387.9C94.2177 2387.9 187.534 2387.25 282.828 2372.06C243.469 2362.96 150.27 2302.41 150.27 2302.41L129.84 2247.3C129.84 2247.3 90.9747 2222.75 23.9695 2215.22C14.0619 2190.5 0.250488 2101.21 0.250488 2101.21L108.921 2178.17L500.059 2340.31L1020.48 2496.8L1925.77 2638.41C1925.77 2638.41 2194.47 2640.23 2209.59 2640.62C2416.55 2645.8 2651.79 2662.08 2651.79 2662.08L2253.09 2749.5C2253.09 2749.5 2065.2 2770.86 1984.23 2772.31C1928.64 2903.07 1907.49 2931.93 1897.37 2946.63Z" fill="#1F1F1F"/>
<path fill-rule="evenodd" clip-rule="evenodd" d="M1934.62 2898.72C1908.32 2910.02 1377.05 2831.63 1377.05 2831.63L1215.46 2776.86L1160.98 2803.92L1342.43 3025.08L1388.26 3099.74L1529 3253.7C1529 3253.7 1605.95 3354.29 1604.11 3356.3L1697.13 3355.21L1710.6 3470.07L1785.61 3566.25L1791.54 3639.66L1875.9 3742.82L1876.21 3773.48L1969.47 3897.89L1900.67 3897.68L1883.94 3864.74L1855.16 3887.18C1855.16 3887.18 1856.27 3913.35 1859.63 3958.25C1814.95 3925.38 1825.44 3929.81 1825.44 3929.81C1825.44 3929.81 1804.75 3940.93 1788.34 3954.7C1707.23 3878.9 1675.87 3857.1 1675.87 3857.1L1539.9 4219.41L1409.64 4599.99C1409.64 4599.99 1374.35 4694.76 1355.26 4765.22L1308.32 4832.69L1299.79 4780.19L1234.95 4835.46C1228.16 4825.47 1207.61 4808.03 1207.61 4808.03L1179.73 4832.48C1179.73 4832.48 1171.86 4818.28 1166 4812.34L1128.02 4862.24L1124.93 4825.73C1124.93 4825.73 1099 4831.42 1013.98 4880.63C1076.34 4773.55 1176.18 4549.61 1176.18 4549.61L1336.78 4072.3L1449.58 3683.71L1339.58 3452.99L1159.98 3140.13L996.976 2918.75L671.724 2601.49L671.483 2581.75C671.483 2581.75 670.158 2576.9 510.077 2532.7C555.889 2514.57 540.377 2518.99 575.875 2501.09C493.298 2453.02 478.872 2447.64 478.872 2447.64C478.872 2447.64 554.209 2447.12 631.144 2434.85C599.368 2427.5 524.125 2378.62 524.125 2378.62L507.632 2334.13C507.632 2334.13 476.254 2314.31 422.159 2308.23C414.16 2288.27 403.01 2216.19 403.01 2216.19L490.743 2278.32L806.522 2409.22L1226.67 2535.56L1957.55 2649.88C1957.55 2649.88 2174.48 2651.36 2186.68 2651.67C2353.77 2655.85 2543.68 2669 2543.68 2669L2221.8 2739.57C2221.8 2739.57 2070.11 2756.82 2004.74 2757.99C1959.86 2863.55 1942.79 2886.85 1934.62 2898.72Z" fill="white"/>
</g>
<defs>
<clipPath id="clip0_3_30">
<rect width="5402" height="4182" fill="white" transform="matrix(0 -1 1 0 0 5402)"/>
</clipPath>
</defs>
</svg>
