<?xml version="1.0" encoding="UTF-8" standalone="no"?>
<!DOCTYPE svg PUBLIC "-//W3C//DTD SVG 1.1//EN" "http://www.w3.org/Graphics/SVG/1.1/DTD/svg11.dtd">
<svg width="100%" height="100%" viewBox="0 0 4961 3508" version="1.1" xmlns="http://www.w3.org/2000/svg" xmlns:xlink="http://www.w3.org/1999/xlink" xml:space="preserve" xmlns:serif="http://www.serif.com/" style="fill-rule:evenodd;clip-rule:evenodd;stroke-linejoin:round;stroke-miterlimit:2;">
    <g id="Layer1" transform="matrix(0.00105002,1.7631,-1.7631,0.00105002,5319.4,-2417.5)">
        <g>
            <path d="M2812.97,573.846C2800.03,625.125 2783.24,687.153 2783.24,687.153L2785.94,739.096L2753.45,830.167L2767.72,847.194L2759.15,868.442L2755.92,899.328L2739,924.434L2741.28,975.693L2708.63,1083.46L2646.29,989.322L2633.73,1004.81C2633.73,1004.81 2642.77,1050.51 2644.31,1079.99C2641.7,1078.71 2622.76,1064.54 2622.76,1064.54L2618.96,1114.93L2540.3,1081.54L2566.65,1129.02C2566.65,1129.02 2548.73,1139.27 2548.89,1139.82L2567.37,1166.14L2541.47,1168.08C2541.47,1168.08 2612.99,1257.03 2646.68,1289.97C2659.33,1302.34 2666.29,1311.1 2666.29,1311.1C2666.29,1311.1 2651.39,1357.24 2636.95,1409.6C2655.72,1396.67 2667.32,1388.53 2667.32,1388.53L2681.33,1407.54L2698.23,1396.77C2698.23,1396.77 2701.15,1399.04 2702.67,1401C2713.2,1414.46 2731.84,1452.41 2731.84,1452.41C2731.84,1452.41 2770.99,1445.27 2777.03,1444.16C2781.43,1443.35 2784.38,1441.23 2787.42,1443.75C2798.72,1453.09 2820.17,1478.48 2941.1,1619.56C2986.01,1671.96 3055.45,1726.99 3055.45,1726.99C3055.45,1726.99 3039.93,1735.72 2998.4,1751.38C2983.96,1756.82 2931.12,1746.18 2913.29,1748.24C2900.22,1749.76 2888.38,1751.85 2880.56,1753.94C2845.41,1763.31 2784.21,1753.89 2735.07,1753.4C2669.96,1752.75 2624.68,1757.9 2608.52,1753.59C2568.85,1743.01 2525.01,1738.88 2525.01,1738.88L2527.28,1758.99L2551.67,1757.85C2551.67,1757.85 2560.62,1781.8 2562.52,1787.53C2566.25,1798.72 2572.13,1809.86 2572.13,1809.86C2572.13,1809.86 2592.51,1831.7 2604.77,1839.28C2581.93,1840.98 2569.96,1840.59 2545.3,1840.66C2535,1840.69 2535.87,1841.87 2418.25,1856.64C2407.36,1845.67 2401.09,1835.16 2401.09,1835.16C2401.09,1835.16 2389.57,1837.34 2373.4,1847.82C2346.39,1865.32 2322.55,1868.42 2322.55,1868.42C2322.55,1868.42 2315.35,1886.58 2313.36,1894.67C2373.43,1891.88 2366.86,1897.39 2386.25,1896.83C2401.27,1896.39 2457.95,1900.06 2544.34,1908.03C2565.71,1910.01 2605.49,1907.09 2795.65,1918.96C2795.04,1908.78 2797.05,1898.82 2797.05,1898.82L2809.76,1894.43L2825.34,1867.24L2863.1,1882.21L2879.03,1873.57L2931.56,1878.18L2974.1,1872.43L3002.18,1865.52C3002.18,1865.52 3035.82,1865.17 3075.49,1859.05C3080.24,1865.09 3127.16,1917.83 3127.16,1917.83C3127.16,1917.83 3130.46,1906.23 3263.53,1902.92C3253.92,1906.73 3294.24,1896.82 3318.03,1887.31C3291.22,1882.64 3226.2,1879.77 3226.2,1879.77L3198.16,1846.04C3204.09,1829.68 3215.47,1815.13 3234.87,1803.22L3299.32,1751.23C3299.32,1751.23 3279.59,1753.53 3224.9,1767.17C3240.65,1744.94 3230.42,1754.23 3257.98,1693.6C3200.92,1634.55 3053.97,1460.49 3053.97,1460.49L2846.24,1217.33L2854.51,1110.27L2971.61,552.158L2970.62,528.6L2951.8,540.634L2959.29,495.326C2959.29,495.326 2949.37,512.755 2940.3,526.504C2940.47,481.834 2939.45,484.594 2939.45,484.594L2924.33,493.621C2924.33,493.621 2923.7,496.668 2928.23,472.025C2922.55,476.922 2908.23,488.816 2908.23,488.816L2905.99,459.761L2893.96,457.492L2905.92,427.995L2901.6,422.434L2891.67,436.355L2874.73,421.566L2864.6,369.791L2850.04,374.074L2855.07,407.9L2834.61,430.747L2849.61,467.215C2849.61,467.215 2849.66,467.792 2829.33,499.167" style="fill:white;"/>
            <g transform="matrix(1,0,0,1,-0.243444,-1.00405)">
                <path d="M2272.27,1719.91C2257.35,1726.31 1956.05,1681.67 1956.05,1681.67L1864.42,1650.55L1833.51,1665.88L1936.35,1791.38L1962.32,1833.74L2042.09,1921.11C2042.09,1921.11 2085.7,1978.19 2084.66,1979.33L2137.42,1978.74L2145.02,2043.89L2187.53,2098.47L2190.87,2140.11L2238.68,2198.65L2238.85,2216.04L2291.7,2286.63L2252.68,2286.49L2243.2,2267.8L2226.87,2280.52C2226.87,2280.52 2227.49,2295.36 2229.38,2320.83C2204.05,2302.17 2210,2304.69 2210,2304.69C2210,2304.69 2198.26,2310.99 2188.95,2318.79C2142.97,2275.77 2125.19,2263.4 2125.19,2263.4L2047.95,2468.85L1973.94,2684.66C1973.94,2684.66 1953.89,2738.4 1943.04,2778.36L1916.39,2816.61L1911.57,2786.83L1874.78,2818.16C1870.93,2812.49 1859.28,2802.59 1859.28,2802.59L1843.46,2816.45C1843.46,2816.45 1839,2808.39 1835.68,2805.02L1814.12,2833.31L1812.38,2812.6C1812.38,2812.6 1797.67,2815.82 1749.43,2843.7C1784.84,2782.99 1841.54,2656.01 1841.54,2656.01L1932.79,2385.34L1996.9,2164.98L1934.59,2034.08L1832.83,1856.57L1740.45,1730.95L1556.08,1550.9L1555.95,1539.7C1555.95,1539.7 1555.2,1536.95 1464.42,1511.83C1490.41,1501.56 1481.61,1504.06 1501.75,1493.92C1454.93,1466.63 1446.75,1463.57 1446.75,1463.57C1446.75,1463.57 1489.48,1463.3 1533.12,1456.37C1515.1,1452.19 1472.44,1424.44 1472.44,1424.44L1463.1,1399.2C1463.1,1399.2 1445.31,1387.95 1414.63,1384.48C1410.1,1373.16 1403.8,1332.27 1403.8,1332.27L1453.54,1367.54L1632.6,1441.89L1870.86,1513.69L2285.36,1578.78C2285.36,1578.78 2408.4,1579.69 2415.32,1579.87C2510.09,1582.3 2617.8,1589.82 2617.8,1589.82L2435.21,1629.74C2435.21,1629.74 2349.17,1639.47 2312.09,1640.11C2286.6,1699.97 2276.91,1713.18 2272.27,1719.91Z" style="fill:white;"/>
            </g>
        </g>
    </g>
</svg>
