<svg width="3378" height="4363" viewBox="0 0 3378 4363" fill="none" xmlns="http://www.w3.org/2000/svg">
<path fill-rule="evenodd" clip-rule="evenodd" d="M2485.15 360.894C2462.39 451.318 2432.85 560.697 2432.85 560.697L2437.67 652.275L2380.48 812.876L2405.66 842.882L2390.57 880.353L2384.91 934.811L2355.1 979.094L2359.18 1069.47L2301.72 1259.5L2191.71 1093.59L2169.58 1120.92C2169.58 1120.92 2185.57 1201.48 2188.32 1253.45C2183.71 1251.2 2150.31 1226.24 2150.31 1226.24L2143.66 1315.08L2004.94 1256.3L2051.45 1339.98C2051.45 1339.98 2019.86 1358.07 2020.14 1359.04L2052.75 1405.43L2007.09 1408.87C2007.09 1408.87 2133.28 1565.63 2192.72 1623.67C2215.03 1645.46 2227.31 1660.9 2227.31 1660.9C2227.31 1660.9 2201.09 1742.27 2175.69 1834.6C2208.77 1811.78 2229.21 1797.42 2229.21 1797.42L2253.93 1830.92L2283.72 1811.91C2283.72 1811.91 2288.87 1815.91 2291.55 1819.37C2310.13 1843.09 2343.03 1909.98 2343.03 1909.98C2343.03 1909.98 2412.05 1897.35 2422.7 1895.38C2430.45 1893.95 2435.65 1890.21 2441.02 1894.65C2460.95 1911.1 2498.79 1955.85 2712.15 2204.46C2791.39 2296.8 2913.88 2393.75 2913.88 2393.75C2913.88 2393.75 2886.52 2409.16 2813.32 2436.81C2787.86 2446.42 2694.69 2427.71 2663.26 2431.36C2640.22 2434.06 2619.34 2437.75 2605.56 2441.45C2543.59 2458 2435.68 2441.46 2349.04 2440.65C2234.25 2439.57 2154.42 2448.7 2125.92 2441.12C2055.97 2422.5 1978.67 2415.27 1978.67 2415.27L1982.69 2450.72L2025.7 2448.69C2025.7 2448.69 2041.5 2490.9 2044.86 2501C2051.44 2520.73 2061.82 2540.36 2061.82 2540.36C2061.82 2540.36 2097.78 2578.85 2119.4 2592.2C2079.13 2595.22 2058.03 2594.55 2014.55 2594.7C1996.39 2594.76 1997.93 2596.84 1790.57 2623C1771.35 2603.67 1760.29 2585.15 1760.29 2585.15C1760.29 2585.15 1739.98 2589.01 1711.48 2607.5C1663.88 2638.38 1621.85 2643.87 1621.85 2643.87C1621.85 2643.87 1609.17 2675.9 1605.67 2690.16C1711.58 2685.18 1700 2694.9 1734.19 2693.9C1760.67 2693.1 1860.61 2699.51 2012.93 2713.48C2050.61 2716.94 2120.74 2711.75 2456.03 2732.48C2454.94 2714.54 2458.47 2696.97 2458.47 2696.97L2480.88 2689.22L2508.32 2641.26L2574.91 2667.62L2602.99 2652.37L2695.61 2660.44L2770.6 2650.26L2820.1 2638.05C2820.1 2638.05 2879.41 2637.39 2949.35 2626.56C2957.73 2637.21 3040.51 2730.14 3040.51 2730.14C3040.51 2730.14 3046.32 2709.69 3280.93 2703.71C3263.99 2710.44 3335.07 2692.92 3377 2676.13C3329.73 2667.93 3215.09 2662.94 3215.09 2662.94L3165.61 2603.5C3176.05 2574.64 3196.1 2548.98 3230.29 2527.96L3343.87 2436.23C3343.87 2436.23 3309.09 2440.31 3212.68 2464.41C3240.42 2425.2 3222.4 2441.59 3270.92 2334.67C3170.26 2230.61 2910.99 1923.88 2910.99 1923.88L2544.48 1495.39L2558.95 1306.62L2764.83 322.49L2763.06 280.955L2729.89 302.192L2743.04 222.302C2743.04 222.302 2725.57 253.042 2709.6 277.292C2709.85 198.534 2708.05 203.401 2708.05 203.401L2681.4 219.333C2681.4 219.333 2680.3 224.705 2688.26 181.253C2678.25 189.892 2653.01 210.878 2653.01 210.878L2649.03 159.653L2627.82 155.665L2648.88 103.647L2641.25 93.8466L2623.76 118.401L2593.88 92.3445L2575.96 1.0706L2550.3 8.63728L2559.2 68.2706L2523.15 108.574L2549.64 172.855C2549.64 172.855 2549.73 173.872 2513.92 229.21" fill="white"/>
<path fill-rule="evenodd" clip-rule="evenodd" d="M1532.61 2380.32C1506.32 2391.62 975.047 2313.23 975.047 2313.23L813.462 2258.46L758.98 2285.52L940.429 2506.68L986.261 2581.34L1127 2735.29C1127 2735.29 1203.94 2835.89 1202.11 2837.9L1295.13 2836.8L1308.6 2951.66L1383.61 3047.85L1389.54 3121.26L1473.89 3224.42L1474.21 3255.08L1567.47 3379.48L1498.67 3379.28L1481.94 3346.33L1453.16 3368.78C1453.16 3368.78 1454.27 3394.94 1457.63 3439.84C1412.95 3406.97 1423.44 3411.41 1423.44 3411.41C1423.44 3411.41 1402.75 3422.53 1386.34 3436.29C1305.23 3360.49 1273.87 3338.7 1273.87 3338.7L1137.9 3701.01L1007.64 4081.58C1007.64 4081.58 972.349 4176.35 953.261 4246.82L906.314 4314.28L897.785 4261.78L832.953 4317.06C826.16 4307.07 805.609 4289.62 805.609 4289.62L777.731 4314.08C777.731 4314.08 769.86 4299.87 764.003 4293.93L726.02 4343.83L722.93 4307.32C722.93 4307.32 696.998 4313.01 611.976 4362.22C674.343 4255.15 774.178 4031.21 774.178 4031.21L934.776 3553.89L1047.58 3165.31L937.581 2934.59L757.982 2621.72L594.975 2400.34L269.723 2083.09L269.482 2063.34C269.482 2063.34 268.157 2058.49 108.076 2014.3C153.888 1996.17 138.376 2000.58 173.874 1982.68C91.2967 1934.62 76.8714 1929.23 76.8714 1929.23C76.8714 1929.23 152.208 1928.71 229.143 1916.45C197.367 1909.1 122.124 1860.21 122.124 1860.21L105.63 1815.72C105.63 1815.72 74.2531 1795.91 20.1575 1789.82C12.1588 1769.87 1.00842 1697.78 1.00842 1697.78L88.742 1759.91L404.521 1890.81L824.672 2017.15L1555.55 2131.48C1555.55 2131.48 1772.48 2132.95 1784.68 2133.26C1951.77 2137.45 2141.68 2150.59 2141.68 2150.59L1819.8 2221.17C1819.8 2221.17 1668.11 2238.41 1602.74 2239.58C1557.86 2345.15 1540.79 2368.45 1532.61 2380.32Z" fill="white"/>
</svg>
