<svg width="4182" height="5402" viewBox="0 0 4182 5402" fill="none" xmlns="http://www.w3.org/2000/svg">
<g clip-path="url(#clip0_3_2)">
<path fill-rule="evenodd" clip-rule="evenodd" d="M3077.22 445.284C3049.03 557.286 3012.44 692.768 3012.44 692.768L3018.41 806.201L2947.57 1005.13L2978.76 1042.29L2960.07 1088.71L2953.06 1156.16L2916.14 1211.01L2921.18 1322.95L2850.02 1558.34L2713.76 1352.84L2686.35 1386.68C2686.35 1386.68 2706.15 1486.47 2709.55 1550.85C2703.85 1548.06 2662.47 1517.14 2662.47 1517.14L2654.23 1627.19L2482.41 1554.37L2540.02 1658.02C2540.02 1658.02 2500.89 1680.43 2501.24 1681.63L2541.64 1739.09L2485.08 1743.36C2485.08 1743.36 2641.38 1937.52 2715 2009.41C2742.64 2036.41 2757.85 2055.53 2757.85 2055.53C2757.85 2055.53 2725.37 2156.31 2693.91 2270.68C2734.88 2242.42 2760.2 2224.63 2760.2 2224.63L2790.82 2266.12L2827.72 2242.58C2827.72 2242.58 2834.1 2247.53 2837.42 2251.81C2860.43 2281.19 2901.19 2364.05 2901.19 2364.05C2901.19 2364.05 2986.68 2348.4 2999.87 2345.97C3009.47 2344.2 3015.91 2339.56 3022.55 2345.06C3047.24 2365.44 3094.12 2420.86 3358.4 2728.81C3456.54 2843.18 3608.26 2963.27 3608.26 2963.27C3608.26 2963.27 3574.38 2982.35 3483.7 3016.61C3452.18 3028.51 3336.77 3005.34 3297.83 3009.86C3269.29 3013.2 3243.44 3017.78 3226.36 3022.35C3149.61 3042.86 3015.95 3022.37 2908.63 3021.36C2766.44 3020.03 2667.56 3031.33 2632.27 3021.94C2545.62 2998.89 2449.87 2989.92 2449.87 2989.92L2454.86 3033.84L2508.12 3031.32C2508.12 3031.32 2527.7 3083.61 2531.85 3096.12C2540.01 3120.55 2552.87 3144.87 2552.87 3144.87C2552.87 3144.87 2597.4 3192.54 2624.19 3209.08C2574.31 3212.82 2548.17 3211.99 2494.32 3212.17C2471.82 3212.25 2473.72 3214.83 2216.88 3247.23C2193.08 3223.29 2179.38 3200.35 2179.38 3200.35C2179.38 3200.35 2154.22 3205.12 2118.92 3228.03C2059.96 3266.28 2007.9 3273.08 2007.9 3273.08C2007.9 3273.08 1992.2 3312.75 1987.86 3330.42C2119.04 3324.25 2104.7 3336.29 2147.05 3335.04C2179.85 3334.06 2303.63 3342.01 2492.31 3359.3C2538.98 3363.59 2625.85 3357.17 3041.15 3382.84C3039.8 3360.61 3044.18 3338.86 3044.18 3338.86L3071.93 3329.25L3105.92 3269.85L3188.4 3302.5L3223.18 3283.61L3337.9 3293.61L3430.79 3280.99L3492.11 3265.87C3492.11 3265.87 3565.57 3265.06 3652.2 3251.64C3662.58 3264.83 3765.11 3379.94 3765.11 3379.94C3765.11 3379.94 3772.31 3354.6 4062.91 3347.2C4041.93 3355.54 4129.97 3333.84 4181.91 3313.04C4123.35 3302.88 3981.35 3296.7 3981.35 3296.7L3920.07 3223.07C3933 3187.34 3957.84 3155.54 4000.19 3129.51L4140.87 3015.89C4140.87 3015.89 4097.79 3020.94 3978.37 3050.8C4012.74 3002.23 3990.41 3022.53 4050.51 2890.09C3925.83 2761.2 3604.68 2381.27 3604.68 2381.27L3150.71 1850.52L3168.64 1616.7L3423.64 397.714L3421.45 346.268L3380.36 372.573L3396.66 273.617C3396.66 273.617 3375.02 311.692 3355.23 341.73C3355.54 244.177 3353.32 250.206 3353.32 250.206L3320.31 269.939C3320.31 269.939 3318.94 276.594 3328.8 222.771C3316.4 233.473 3285.14 259.466 3285.14 259.466L3280.21 196.017L3253.94 191.078L3280.02 126.645L3270.58 114.506L3248.91 144.921L3211.9 112.646L3189.71 -0.410303L3157.92 8.96213L3168.95 82.8267L3124.29 132.748L3157.1 212.369C3157.1 212.369 3157.21 213.629 3112.85 282.174" fill="#1F1F1F"/>
<path fill-rule="evenodd" clip-rule="evenodd" d="M2887.15 879.3C2864.39 969.724 2834.85 1079.1 2834.85 1079.1L2839.67 1170.68L2782.48 1331.28L2807.66 1361.29L2792.57 1398.76L2786.91 1453.22L2757.1 1497.5L2761.18 1587.87L2703.72 1777.91L2593.71 1612L2571.59 1639.32C2571.59 1639.32 2587.57 1719.88 2590.32 1771.86C2585.72 1769.61 2552.31 1744.64 2552.31 1744.64L2545.66 1833.49L2406.94 1774.7L2453.45 1858.39C2453.45 1858.39 2421.86 1876.48 2422.15 1877.45L2454.76 1923.83L2409.09 1927.28C2409.09 1927.28 2535.28 2084.03 2594.72 2142.07C2617.03 2163.87 2629.31 2179.31 2629.31 2179.31C2629.31 2179.31 2603.09 2260.67 2577.69 2353C2610.77 2330.19 2631.21 2315.82 2631.21 2315.82L2655.93 2349.32L2685.72 2330.32C2685.72 2330.32 2690.87 2334.32 2693.55 2337.77C2712.13 2361.49 2745.03 2428.38 2745.03 2428.38C2745.03 2428.38 2814.05 2415.75 2824.7 2413.79C2832.46 2412.36 2837.65 2408.61 2843.02 2413.05C2862.95 2429.51 2900.8 2474.25 3114.16 2722.86C3193.39 2815.2 3315.88 2912.15 3315.88 2912.15C3315.88 2912.15 3288.52 2927.56 3215.32 2955.22C3189.87 2964.82 3096.69 2946.12 3065.26 2949.77C3042.22 2952.46 3021.34 2956.16 3007.56 2959.85C2945.6 2976.41 2837.68 2959.87 2751.04 2959.05C2636.25 2957.98 2556.42 2967.1 2527.92 2959.52C2457.97 2940.91 2380.67 2933.67 2380.67 2933.67L2384.7 2969.13L2427.7 2967.09C2427.7 2967.09 2443.5 3009.31 2446.86 3019.41C2453.45 3039.13 2463.82 3058.77 2463.82 3058.77C2463.82 3058.77 2499.78 3097.25 2521.4 3110.61C2481.14 3113.63 2460.03 3112.95 2416.55 3113.1C2398.39 3113.16 2399.93 3115.24 2192.57 3141.41C2173.36 3122.08 2162.29 3103.56 2162.29 3103.56C2162.29 3103.56 2141.98 3107.41 2113.48 3125.91C2065.88 3156.79 2023.85 3162.28 2023.85 3162.28C2023.85 3162.28 2011.18 3194.3 2007.68 3208.57C2113.58 3203.59 2102 3213.31 2136.19 3212.3C2162.67 3211.51 2262.61 3217.92 2414.93 3231.88C2452.61 3235.35 2522.74 3230.16 2858.03 3250.89C2856.94 3232.94 2860.47 3215.38 2860.47 3215.38L2882.88 3207.63L2910.32 3159.67L2976.91 3186.02L3004.99 3170.77L3097.61 3178.85L3172.6 3168.66L3222.1 3156.45C3222.1 3156.45 3281.41 3155.8 3351.35 3144.97C3359.73 3155.61 3442.51 3248.55 3442.51 3248.55C3442.51 3248.55 3448.32 3228.09 3682.93 3222.12C3665.99 3228.84 3737.07 3211.33 3779 3194.54C3731.73 3186.33 3617.09 3181.34 3617.09 3181.34L3567.62 3121.9C3578.05 3093.05 3598.1 3067.39 3632.29 3046.37L3745.87 2954.64C3745.87 2954.64 3711.09 2958.71 3614.68 2982.82C3642.42 2943.61 3624.4 2960 3672.92 2853.07C3572.26 2749.02 3312.99 2442.29 3312.99 2442.29L2946.49 2013.79L2960.95 1825.03L3166.83 840.895L3165.06 799.361L3131.89 820.598L3145.05 740.708C3145.05 740.708 3127.57 771.447 3111.6 795.698C3111.85 716.94 3110.05 721.807 3110.05 721.807L3083.41 737.738C3083.41 737.738 3082.3 743.111 3090.26 699.658C3080.25 708.298 3055.01 729.284 3055.01 729.284L3051.03 678.059L3029.82 674.071L3050.88 622.052L3043.26 612.252L3025.76 636.807L2995.88 610.75L2977.97 519.476L2952.3 527.043L2961.2 586.676L2925.15 626.979L2951.64 691.26C2951.64 691.26 2951.73 692.278 2915.92 747.616" fill="white"/>
</g>
<defs>
<clipPath id="clip0_3_2">
<rect width="5402" height="4182" fill="white" transform="matrix(0 -1 1 0 0 5402)"/>
</clipPath>
</defs>
</svg>
