<svg width="20" height="16" viewBox="0 0 20 16" fill="none" xmlns="http://www.w3.org/2000/svg">
<path d="M4.0625 15C5.33125 15 6.575 14.6563 7.6625 14.0031L11 12H4V15H4.0625ZM11 4L7.6625 1.99688C6.575 1.34375 5.33125 1 4.0625 1H4V4H11ZM3 4V1H2.5C1.67188 1 1 1.67188 1 2.5V4H1.25C0.559375 4 0 4.55937 0 5.25V10.75C0 11.4406 0.559375 12 1.25 12H1V13.5C1 14.3281 1.67188 15 2.5 15H3V12H3.25C4.06875 12 4.79375 11.6062 5.25 11H14.25C16.4156 11 18.4688 10.2906 19.85 8.45C20.05 8.18437 20.05 7.81563 19.85 7.55C18.4688 5.70938 16.4156 5 14.25 5H5.25C4.79375 4.39375 4.06875 4 3.25 4H3ZM16 7.6125V8.39062C16 9.00313 15.5031 9.50313 14.8875 9.50313C14.8094 9.50313 14.75 9.44063 14.75 9.36563V6.64375C14.75 6.56563 14.8125 6.50625 14.8875 6.50625C15.5 6.50625 16 7.00313 16 7.61875V7.6125Z" fill="black"/>
</svg>
