<svg width="24" height="24" viewBox="0 0 24 24" fill="none" xmlns="http://www.w3.org/2000/svg">
<path d="M4 22.0001V16.0751C4 15.7418 4.07933 15.4251 4.238 15.1251C4.39667 14.8251 4.61733 14.5834 4.9 14.4001L6 13.6751C6.11667 15.0751 6.3 16.2668 6.55 17.2501C6.8 18.2334 7.19167 19.3251 7.725 20.5251L4 22.0001ZM9.225 20.0001C8.64167 18.9001 8.20833 17.7334 7.925 16.5001C7.64167 15.2668 7.5 13.9918 7.5 12.6751C7.5 10.5918 7.91267 8.62943 8.738 6.7881C9.56333 4.94676 10.6507 3.55076 12 2.6001C13.35 3.5501 14.4377 4.9461 15.263 6.7881C16.0883 8.6301 16.5007 10.5924 16.5 12.6751C16.5 13.9751 16.3583 15.2378 16.075 16.4631C15.7917 17.6884 15.3583 18.8674 14.775 20.0001H9.225ZM12 13.0001C12.55 13.0001 13.021 12.8044 13.413 12.4131C13.805 12.0218 14.0007 11.5508 14 11.0001C13.9993 10.4494 13.8037 9.97876 13.413 9.5881C13.0223 9.19743 12.5513 9.00143 12 9.0001C11.4487 8.99876 10.978 9.19476 10.588 9.5881C10.198 9.98143 10.002 10.4521 10 11.0001C9.998 11.5481 10.194 12.0191 10.588 12.4131C10.982 12.8071 11.4527 13.0028 12 13.0001ZM20 22.0001L16.275 20.5251C16.8083 19.3251 17.2 18.2334 17.45 17.2501C17.7 16.2668 17.8833 15.0751 18 13.6751L19.1 14.4001C19.3833 14.5834 19.6043 14.8251 19.763 15.1251C19.9217 15.4251 20.0007 15.7418 20 16.0751V22.0001Z" fill="black"/>
</svg>
