<svg width="24" height="24" viewBox="0 0 24 24" fill="none" xmlns="http://www.w3.org/2000/svg">
<path d="M14.686 13.192C13.252 13.648 11.862 12.382 12.183 10.912C12.1963 10.85 12.213 10.789 12.233 10.729C13.024 8.23696 13.533 7.73896 13.747 7.52396C13.7747 7.4941 13.7953 7.45835 13.8073 7.41938C13.8192 7.38041 13.8222 7.33924 13.816 7.29896C13.8112 7.26264 13.7981 7.2279 13.7779 7.19739C13.7576 7.16689 13.7306 7.14143 13.699 7.12296C12.7134 6.67563 11.6442 6.44249 10.562 6.43896C8.48848 6.43923 6.49999 7.26296 5.03373 8.72904C3.56747 10.1951 2.74348 12.1835 2.74295 14.257C2.72859 14.5334 2.72859 14.8105 2.74295 15.087C2.7451 15.1225 2.7402 15.1581 2.72853 15.1918C2.71686 15.2254 2.69865 15.2564 2.67495 15.283C1.77667 16.4281 1.05221 17.6994 0.524952 19.056C0.301092 19.4971 0.206177 19.9924 0.251106 20.485C0.296035 20.9776 0.478986 21.4476 0.778952 21.841C1.14595 22.191 1.63895 22.378 2.14695 22.359C3.55847 22.1969 4.90477 21.6753 6.05695 20.844C6.09494 20.8204 6.13875 20.8079 6.18345 20.8079C6.22815 20.8079 6.27196 20.8204 6.30995 20.844C11.361 24.117 18.06 20.694 18.37 14.684C18.3766 14.542 18.38 14.3996 18.38 14.257C18.3764 13.4959 18.2643 12.7393 18.047 12.01C18.0345 11.9721 18.0128 11.9379 17.9838 11.9104C17.9548 11.883 17.9195 11.8633 17.881 11.853C17.8481 11.8346 17.8111 11.8249 17.7735 11.8249C17.7358 11.8249 17.6988 11.8346 17.666 11.853C16.7427 12.4413 15.7389 12.8923 14.686 13.192ZM9.63295 13.72C9.76139 13.5977 9.92982 13.5261 10.107 13.5185C10.2842 13.5108 10.4581 13.5677 10.5966 13.6786C10.735 13.7895 10.8286 13.9467 10.8599 14.1213C10.8912 14.2959 10.8582 14.4759 10.767 14.628C6.93595 18.254 3.83695 20.082 2.59695 20.375C2.55624 20.3873 2.51296 20.3883 2.4717 20.378C2.43045 20.3676 2.39278 20.3463 2.36271 20.3162C2.33263 20.2861 2.31128 20.2485 2.30094 20.2072C2.29059 20.166 2.29163 20.1227 2.30395 20.082C2.4211 19.6332 2.59165 19.2001 2.81195 18.792C2.93895 18.547 3.08495 18.274 3.26195 17.971C3.2862 17.9376 3.31863 17.9111 3.35611 17.8939C3.3936 17.8768 3.43487 17.8695 3.47595 17.873C3.5187 17.8729 3.56062 17.8847 3.59701 17.9072C3.63339 17.9296 3.66281 17.9617 3.68195 18C3.69619 18.029 3.71666 18.0545 3.74189 18.0748C3.76713 18.095 3.79651 18.1094 3.82795 18.117C3.89329 18.137 3.95862 18.137 4.02395 18.117C6.0348 16.8405 7.91301 15.3676 9.63295 13.72Z" fill="black"/>
<path d="M17.2845 9.59609C17.2806 9.20815 17.1264 8.83682 16.8545 8.56009C16.5737 8.29694 16.2033 8.1505 15.8185 8.1505C15.4337 8.1505 15.0633 8.29694 14.7825 8.56009C14.2745 9.37409 13.8825 10.2551 13.6195 11.1791C13.5936 11.2658 13.5918 11.358 13.6141 11.4457C13.6365 11.5334 13.6823 11.6134 13.7465 11.6771C13.8099 11.739 13.8888 11.7825 13.9749 11.8031C14.061 11.8237 14.151 11.8206 14.2355 11.7941C15.1596 11.5374 16.042 11.1491 16.8555 10.6411C17.1285 10.3611 17.2815 9.98709 17.2845 9.59609ZM22.7765 1.73809L21.2525 2.39309C20.8945 2.55509 20.5645 2.77309 20.2755 3.03809L19.1415 4.19109C18.5016 4.02477 17.8303 4.02088 17.1886 4.1798C16.5468 4.33871 15.9549 4.65539 15.4665 5.10109L15.1245 5.44209C15.0347 5.53528 14.9845 5.65967 14.9845 5.78909C14.9845 5.91852 15.0347 6.04291 15.1245 6.13609L19.2685 10.2801C19.3615 10.3731 19.4885 10.4261 19.6205 10.4261C19.6844 10.4257 19.7475 10.4126 19.8062 10.3876C19.865 10.3625 19.9181 10.326 19.9625 10.2801L20.3045 9.93809C20.7532 9.45364 21.0718 8.86347 21.2308 8.2226C21.3897 7.58173 21.3838 6.91105 21.2135 6.27309L22.3855 5.10009C22.6522 4.81347 22.8673 4.48295 23.0215 4.12309L23.6755 2.59809C23.7446 2.47281 23.7725 2.32891 23.755 2.1869C23.7376 2.04488 23.6759 1.91197 23.5785 1.80709C23.4696 1.71171 23.3331 1.65359 23.1888 1.64118C23.0446 1.62876 22.9001 1.66272 22.7765 1.73809Z" fill="black"/>
</svg>
