<svg width="24" height="24" viewBox="0 0 24 24" fill="none" xmlns="http://www.w3.org/2000/svg">
<g clip-path="url(#clip0_8_82)">
<path d="M20.5001 12.75C20.7653 12.75 21.0197 12.6446 21.2072 12.4571C21.3948 12.2696 21.5001 12.0152 21.5001 11.75V7.09C21.5108 6.41538 21.2538 5.764 20.7852 5.27855C20.3166 4.7931 19.6747 4.51314 19.0001 4.5H9.25013C8.98491 4.5 8.73056 4.60536 8.54302 4.79289C8.35549 4.98043 8.25013 5.23478 8.25013 5.5C8.25013 5.76522 8.35549 6.01957 8.54302 6.20711C8.73056 6.39464 8.98491 6.5 9.25013 6.5H19.0001C19.1444 6.51274 19.2777 6.58183 19.3713 6.69228C19.4649 6.80273 19.5112 6.94564 19.5001 7.09V11.75C19.5001 12.0152 19.6055 12.2696 19.793 12.4571C19.9806 12.6446 20.2349 12.75 20.5001 12.75ZM10.7501 19C10.8164 19 10.88 19.0263 10.9269 19.0732C10.9738 19.1201 11.0001 19.1837 11.0001 19.25V20.75C11.0001 20.8163 10.9738 20.8799 10.9269 20.9268C10.88 20.9737 10.8164 21 10.7501 21H9.00013C8.73491 21 8.48056 21.1054 8.29302 21.2929C8.10549 21.4804 8.00013 21.7348 8.00013 22C8.00013 22.2652 8.10549 22.5196 8.29302 22.7071C8.48056 22.8946 8.73491 23 9.00013 23H14.7501C15.0153 23 15.2697 22.8946 15.4572 22.7071C15.6448 22.5196 15.7501 22.2652 15.7501 22C15.7501 21.7348 15.6448 21.4804 15.4572 21.2929C15.2697 21.1054 15.0153 21 14.7501 21H13.2501C13.1838 21 13.1202 20.9737 13.0734 20.9268C13.0265 20.8799 13.0001 20.8163 13.0001 20.75V19.25C13.0001 19.1837 13.0265 19.1201 13.0734 19.0732C13.1202 19.0263 13.1838 19 13.2501 19H15.2501C15.3827 19 15.5099 18.9473 15.6037 18.8536C15.6975 18.7598 15.7501 18.6326 15.7501 18.5V17.25C15.7501 17.1174 15.6975 16.9902 15.6037 16.8964C15.5099 16.8027 15.3827 16.75 15.2501 16.75H5.00013C4.86752 16.75 4.74034 16.6973 4.64658 16.6036C4.55281 16.5098 4.50013 16.3826 4.50013 16.25V12.25C4.50013 11.9848 4.39477 11.7304 4.20724 11.5429C4.0197 11.3554 3.76535 11.25 3.50013 11.25C3.23491 11.25 2.98056 11.3554 2.79302 11.5429C2.60549 11.7304 2.50013 11.9848 2.50013 12.25V16.41C2.48942 17.0846 2.74651 17.736 3.21509 18.2214C3.68367 18.7069 4.32555 18.9869 5.00013 19H10.7501ZM1.83013 9.75H5.17013C5.59629 9.73951 6.00115 9.56146 6.29691 9.25446C6.59268 8.94746 6.75552 8.53626 6.75013 8.11V1.89C6.75552 1.46374 6.59268 1.05253 6.29691 0.745536C6.00115 0.438538 5.59629 0.260492 5.17013 0.25H1.83013C1.40397 0.260492 0.999112 0.438538 0.703345 0.745536C0.407578 1.05253 0.244738 1.46374 0.25013 1.89V8.11C0.244738 8.53626 0.407578 8.94746 0.703345 9.25446C0.999112 9.56146 1.40397 9.73951 1.83013 9.75ZM1.75013 1.89C1.75013 1.8 1.80013 1.75 1.83013 1.75H5.17013C5.17013 1.75 5.25013 1.8 5.25013 1.89V8.11C5.25013 8.2 5.25013 8.25 5.17013 8.25H1.83013C1.83013 8.25 1.75013 8.2 1.75013 8.11V1.89ZM18.8301 14.25C18.404 14.2605 17.9991 14.4385 17.7033 14.7455C17.4076 15.0525 17.2447 15.4637 17.2501 15.89V22.25C17.2553 22.4523 17.3003 22.6515 17.3825 22.8364C17.4647 23.0212 17.5826 23.1881 17.7293 23.3274C17.8761 23.4667 18.0488 23.5757 18.2377 23.6482C18.4266 23.7207 18.6279 23.7553 18.8301 23.75H22.1701C22.3724 23.7553 22.5737 23.7207 22.7626 23.6482C22.9515 23.5757 23.1242 23.4667 23.2709 23.3274C23.4177 23.1881 23.5355 23.0212 23.6177 22.8364C23.7 22.6515 23.7449 22.4523 23.7501 22.25V15.89C23.7555 15.4637 23.5927 15.0525 23.2969 14.7455C23.0011 14.4385 22.5963 14.2605 22.1701 14.25H18.8301ZM22.2501 15.89V21C22.2501 21.0663 22.2238 21.1299 22.1769 21.1768C22.13 21.2237 22.0664 21.25 22.0001 21.25H19.0001C18.9338 21.25 18.8702 21.2237 18.8234 21.1768C18.7765 21.1299 18.7501 21.0663 18.7501 21V15.89C18.7501 15.8 18.8001 15.75 18.8301 15.75H22.1701C22.1701 15.75 22.2501 15.8 22.2501 15.89Z" fill="black"/>
</g>
<defs>
<clipPath id="clip0_8_82">
<rect width="24" height="24" fill="white"/>
</clipPath>
</defs>
</svg>
