<svg width="24" height="24" viewBox="0 0 24 24" fill="none" xmlns="http://www.w3.org/2000/svg">
<g clip-path="url(#clip0_13_15)">
<path d="M5.35731 17.9309C3.62269 16.3527 2.5308 14.1904 2.29053 11.8576C2.05025 9.52487 2.67845 7.18539 4.05496 5.28675C5.43147 3.38811 7.45964 2.0636 9.7515 1.56661C12.0434 1.06962 14.438 1.43502 16.4773 2.59293M2.01431 17.8629C0.803313 19.9849 0.397313 21.6319 1.08131 22.3169C2.12031 23.3549 5.36931 21.8869 9.13231 18.9039M13.4393 18.1499L9.86431 14.5749L17.8103 6.62893C18.4586 5.98124 19.271 5.52217 20.1603 5.30093L22.2033 4.78793C22.3444 4.75278 22.4922 4.75472 22.6323 4.79355C22.7724 4.83238 22.9001 4.90678 23.0029 5.00954C23.1058 5.1123 23.1803 5.23991 23.2193 5.37998C23.2582 5.52005 23.2603 5.66782 23.2253 5.80893L22.7143 7.85393C22.4923 8.74311 22.0326 9.55512 21.3843 10.2029L13.4393 18.1499Z" stroke="black" stroke-width="1.5" stroke-linecap="round" stroke-linejoin="round"/>
<path d="M9.86402 14.575L6.93602 13.6C6.86753 13.5773 6.80599 13.5375 6.75728 13.4843C6.70856 13.4311 6.67429 13.3663 6.65774 13.2961C6.64119 13.2259 6.64292 13.1527 6.66275 13.0833C6.68258 13.0139 6.71985 12.9508 6.77102 12.9L7.79102 11.88C8.23485 11.4364 8.79341 11.1251 9.40415 10.981C10.0149 10.8369 10.6537 10.8656 11.249 11.064L12.847 11.595L9.86402 14.575ZM13.439 18.15L14.415 21.079C14.4373 21.1477 14.4769 21.2094 14.5299 21.2584C14.583 21.3073 14.6478 21.3417 14.7181 21.3583C14.7883 21.3749 14.8617 21.373 14.931 21.353C15.0004 21.333 15.0634 21.2955 15.114 21.244L16.134 20.223C16.5774 19.7792 16.8886 19.2209 17.0327 18.6103C17.1768 17.9998 17.1482 17.3612 16.95 16.766L16.419 15.168L13.439 18.15Z" stroke="black" stroke-width="1.5" stroke-linecap="round" stroke-linejoin="round"/>
</g>
<defs>
<clipPath id="clip0_13_15">
<rect width="24" height="24" fill="white"/>
</clipPath>
</defs>
</svg>
