<svg width="24" height="24" viewBox="0 0 24 24" fill="none" xmlns="http://www.w3.org/2000/svg">
<g clip-path="url(#clip0_22_290)">
<mask id="mask0_22_290" style="mask-type:luminance" maskUnits="userSpaceOnUse" x="0" y="0" width="24" height="24">
<path d="M0 0H24V24H0V0Z" fill="white"/>
</mask>
<g mask="url(#mask0_22_290)">
<path d="M11.214 0.006125C11.162 0.011125 10.998 0.028125 10.85 0.039125C7.442 0.347125 4.25 2.18613 2.226 5.01312C1.109 6.56523 0.382486 8.36367 0.108 10.2561C0.012 10.9161 0 11.1101 0 12.0041C0 12.8981 0.012 13.0931 0.108 13.7521C0.76 18.2591 3.968 22.0451 8.317 23.4481C9.096 23.6991 9.917 23.8701 10.85 23.9741C11.214 24.0141 12.786 24.0141 13.15 23.9741C14.761 23.7951 16.127 23.3961 17.473 22.7091C17.68 22.6041 17.72 22.5751 17.692 22.5521C17.0336 21.6838 16.3819 20.8105 15.737 19.9321L13.818 17.3391L11.414 13.7801C10.6141 12.5897 9.80676 11.4044 8.992 10.2241C8.983 10.2211 8.974 11.8021 8.969 13.7341C8.962 17.1141 8.959 17.2501 8.917 17.3301C8.87574 17.4233 8.80273 17.4988 8.711 17.5431C8.636 17.5811 8.571 17.5881 8.216 17.5881H7.81L7.702 17.5201C7.63517 17.4779 7.58094 17.4185 7.545 17.3481L7.495 17.2431L7.5 12.5391L7.507 7.83313L7.58 7.74113C7.62845 7.6829 7.68749 7.63438 7.754 7.59812C7.85 7.55112 7.887 7.54712 8.294 7.54712C8.772 7.54712 8.852 7.56513 8.976 7.70113C9.011 7.73913 10.313 9.70112 11.871 12.0631L16.605 19.2351L18.505 22.1131L18.602 22.0501C19.5165 21.4424 20.3456 20.7149 21.067 19.8871C22.579 18.1563 23.5599 16.0262 23.892 13.7521C23.988 13.0921 24 12.8981 24 12.0041C24 11.1101 23.988 10.9161 23.892 10.2561C23.24 5.75012 20.032 1.96312 15.683 0.560125C14.8702 0.301694 14.0332 0.126462 13.185 0.037125C12.959 0.013125 11.409 -0.012875 11.215 0.007125M16.128 7.26713C16.1839 7.29507 16.2336 7.33388 16.2743 7.38126C16.315 7.42865 16.3458 7.48368 16.365 7.54313C16.383 7.60313 16.388 8.90812 16.383 11.8481L16.376 16.0661L15.633 14.9261L14.887 13.7861V10.7201C14.887 8.73713 14.896 7.62312 14.91 7.56912C14.9268 7.50671 14.9559 7.44832 14.9958 7.39746C15.0357 7.34659 15.0854 7.3043 15.142 7.27312C15.239 7.22312 15.274 7.21912 15.642 7.21912C15.989 7.21912 16.05 7.22412 16.128 7.26612" fill="black"/>
</g>
</g>
<defs>
<clipPath id="clip0_22_290">
<rect width="24" height="24" fill="white"/>
</clipPath>
</defs>
</svg>
