<svg width="64" height="24" viewBox="0 0 64 24" fill="none" xmlns="http://www.w3.org/2000/svg">
<g clip-path="url(#clip0_16_148)">
<path d="M16.2911 0.827637L0.997559 23.0483H7.356L9.68327 19.7794H16.2911V23.0897H21.7352V0.827637H16.2911ZM12.9248 15.2276L16.2911 10.3449V15.1863L12.9248 15.2276Z" fill="#005BA6"/>
<path d="M57.2262 0.786252V22.5518L52.3639 15.1035C55.2314 13.5311 56.1457 11.2966 56.2704 7.94487C56.2288 6.00005 55.4392 3.64142 53.86 2.40005C51.6574 0.744873 49.0392 0.744873 46.421 0.744873H40.0626V22.4276L35.2418 15.1035C38.1093 13.5311 39.0652 11.338 39.1898 7.98625C39.1483 6.04143 38.3171 3.64142 36.7379 2.40005C34.5353 0.744873 31.9171 0.744873 29.2989 0.744873H22.8989V23.0069H28.8002V16.2621L33.5794 23.0069H45.9639V16.3035L50.7015 23.0483H63.0028V0.786252H57.2262ZM31.8755 10.6759C31.1275 10.8 30.3379 10.8 28.7171 10.8V5.87591C30.2963 5.87591 31.0859 5.83453 31.7924 6.04143C32.4989 6.24832 33.1223 7.15867 33.2054 8.44142C33.1639 9.6828 32.6236 10.5518 31.8755 10.6759ZM49.0392 10.6759C48.2911 10.8 47.5015 10.8 45.8807 10.8V5.87591C47.46 5.87591 48.2496 5.83453 48.9561 6.04143C49.6626 6.24832 50.2859 7.15867 50.3691 8.44142C50.3275 9.6828 49.7872 10.5518 49.0392 10.6759Z" fill="#005BA6"/>
</g>
<defs>
<clipPath id="clip0_16_148">
<rect width="64" height="24" fill="white"/>
</clipPath>
</defs>
</svg>
