<svg width="24" height="24" viewBox="0 0 24 24" fill="none" xmlns="http://www.w3.org/2000/svg">
<path d="M19.2002 15.6C17.6402 15.6 16.3202 16.56 15.8402 18H10.8002C10.8002 17.16 10.5602 16.44 10.2002 15.84L18.7202 7.07995C19.0802 7.07995 19.4402 7.19995 19.8002 7.19995C21.4802 7.19995 22.8002 5.87995 22.8002 4.19995C22.8002 2.51995 21.4802 1.19995 19.8002 1.19995C18.1202 1.19995 16.8002 2.51995 16.8002 4.19995C16.8002 4.55995 16.9202 5.03995 17.0402 5.39995L8.6402 14.04C7.9202 13.44 6.9602 13.2 6.0002 13.2V8.15995C7.4402 7.67995 8.4002 6.35995 8.4002 4.79995C8.4002 2.75995 6.8402 1.19995 4.8002 1.19995C2.7602 1.19995 1.2002 2.75995 1.2002 4.79995C1.2002 6.35995 2.1602 7.67995 3.6002 8.15995V13.8C2.1602 14.64 1.2002 16.2 1.2002 17.88C1.2002 20.52 3.3602 22.68 6.0002 22.68C7.8002 22.68 9.3602 21.72 10.0802 20.28H15.7202C16.2002 21.6 17.5202 22.68 19.0802 22.68C21.0002 22.68 22.6802 21.12 22.6802 19.08C22.8002 17.16 21.1202 15.6 19.2002 15.6Z" fill="black"/>
</svg>
