<svg width="24" height="24" viewBox="0 0 24 24" fill="none" xmlns="http://www.w3.org/2000/svg">
<path fill-rule="evenodd" clip-rule="evenodd" d="M16.5071 8.02734C16.808 8.89791 17.0248 9.78666 17.096 10.7078C17.1845 11.8507 17.144 12.9854 16.9031 14.1095C16.8965 14.1404 16.8827 14.1695 16.8723 14.1995C16.7968 14.1997 16.7197 14.1903 16.6458 14.2017C16.0217 14.2998 15.398 14.4014 14.7744 14.5025C14.1298 14.6069 13.4842 14.7072 12.8407 14.8188C12.6127 14.8582 12.3305 14.8111 12.2385 15.1265C12.2358 15.1351 12.2096 15.1366 12.1944 15.1415L12.2255 13.2569L12.1938 8.70966L12.4942 8.65809C12.9855 8.57766 13.4767 8.49609 13.9683 8.41791C14.555 8.32472 15.1423 8.23416 15.7293 8.14322C15.9883 8.10291 16.2476 8.06597 16.5071 8.02734Z" fill="#439934"/>
<path fill-rule="evenodd" clip-rule="evenodd" d="M11.574 20.6352C11.2571 20.3628 10.9292 20.1023 10.6255 19.8158C8.99102 18.2742 7.79552 16.4598 7.20677 14.2722C7.04459 13.6701 6.9364 13.0583 6.90171 12.4362C6.87734 12.0008 6.84208 11.5615 6.87283 11.1284C6.95477 9.97639 7.12127 8.83545 7.45915 7.72583L7.47771 7.69995C7.51052 7.74364 7.55777 7.78226 7.57446 7.83158C7.90421 8.80283 8.23183 9.77476 8.55733 10.7474C9.58071 13.8036 10.6028 16.8606 11.6278 19.9161C11.6479 19.9758 11.6998 20.0247 11.7371 20.0785L11.574 20.6352Z" fill="#45A538"/>
<path fill-rule="evenodd" clip-rule="evenodd" d="M16.5069 8.02725C16.2474 8.06588 15.9879 8.10281 15.729 8.14275C15.1419 8.23369 14.5547 8.32425 13.968 8.41744C13.4764 8.49563 12.9851 8.57719 12.4939 8.65763L12.1935 8.70919L12.1913 8.51325C12.1813 8.35219 12.1643 8.19131 12.1624 8.03025C12.1494 7.00313 12.1414 5.976 12.1286 4.94888C12.1208 4.30594 12.1089 3.66319 12.0958 3.02044C12.0878 2.62106 12.0791 2.2215 12.0611 1.82269C12.0514 1.60838 12.0169 1.39519 12.0028 1.18088C11.9949 1.05769 12.0058 0.933564 12.0083 0.809814C12.1614 1.10663 12.3113 1.40569 12.4688 1.70025C12.7176 2.166 13.1139 2.50913 13.4708 2.88356C14.8813 4.36331 15.8828 6.08381 16.5069 8.02725Z" fill="#46A037"/>
<path fill-rule="evenodd" clip-rule="evenodd" d="M12.1943 15.1411C12.2095 15.1362 12.2359 15.1347 12.2383 15.1261C12.3304 14.8107 12.6126 14.8578 12.8406 14.8184C13.4841 14.707 14.1296 14.6065 14.7743 14.5021C15.3979 14.401 16.0215 14.2994 16.6457 14.2013C16.7196 14.1897 16.7966 14.1993 16.8722 14.1991C16.7556 14.6153 16.6637 15.0406 16.5158 15.4454C16.3478 15.9046 16.1445 16.3527 15.9287 16.792C15.6058 17.4474 15.206 18.0619 14.7375 18.6226C14.3777 19.0553 13.9766 19.4553 13.5746 19.8503C13.3525 20.0688 13.0905 20.2467 12.8468 20.443L12.7836 20.3999L12.556 20.2053L12.3205 19.6891C12.1596 19.0869 12.0718 18.4676 12.0591 17.8445L12.0634 17.7393L12.0955 17.2844C12.1061 17.1291 12.1204 16.9741 12.127 16.8185C12.1511 16.2593 12.1721 15.7002 12.1943 15.1411Z" fill="#409433"/>
<path fill-rule="evenodd" clip-rule="evenodd" d="M12.1942 15.1412C12.1721 15.7003 12.1511 16.2594 12.1272 16.8187C12.1207 16.9744 12.1064 17.1294 12.0957 17.2847L11.9523 17.3389C11.6337 16.401 11.315 15.4731 11.0032 14.5427C10.4876 13.0035 9.97812 11.4619 9.46325 9.9223C9.04739 8.67964 8.62864 7.43795 8.207 6.19724C8.18731 6.13912 8.13068 6.09374 8.09131 6.04237L9.00931 4.35449C9.04081 4.40924 9.08243 4.46043 9.10231 4.5193C9.52747 5.77595 9.95047 7.03333 10.3713 8.29143C10.9181 9.9283 11.4614 11.5665 12.0078 13.2036C12.0296 13.269 12.0656 13.3294 12.0999 13.4027L12.2255 13.2564L12.1942 15.1412Z" fill="#4FAA41"/>
<path fill-rule="evenodd" clip-rule="evenodd" d="M8.09153 6.04248C8.1309 6.09386 8.18734 6.13923 8.20721 6.19736C8.62886 7.43807 9.04761 8.67976 9.46347 9.92242C9.97834 11.462 10.4878 13.0036 11.0034 14.5428C11.315 15.473 11.6338 16.4011 11.9525 17.339L12.096 17.2848L12.0639 17.7397L12.0348 17.8445C11.985 18.3425 11.943 18.8416 11.8822 19.3385C11.8517 19.5875 11.7868 19.832 11.7375 20.0785C11.7003 20.0247 11.6482 19.9758 11.6282 19.9162C10.6031 16.8605 9.58103 13.8037 8.55765 10.7474C8.23208 9.77479 7.90445 8.80285 7.57478 7.83161C7.55809 7.78229 7.51103 7.74367 7.47803 7.69998L8.09153 6.04248Z" fill="#4AA73C"/>
<path fill-rule="evenodd" clip-rule="evenodd" d="M12.2255 13.2567L12.0998 13.403C12.0655 13.3296 12.0295 13.2691 12.0078 13.2038C11.4616 11.5668 10.918 9.92858 10.3713 8.2917C9.95044 7.0336 9.52744 5.77622 9.10228 4.51958C9.08259 4.4607 9.04096 4.40933 9.00928 4.35477L10.1446 2.86133C10.1804 2.90914 10.2314 2.9517 10.25 3.00552C10.565 3.92827 10.8777 4.85189 11.188 5.77639C11.4781 6.63964 11.7638 7.5042 12.0573 8.36633C12.077 8.42408 12.1454 8.46495 12.1912 8.5137L12.1934 8.70964C12.2043 10.2251 12.215 11.7408 12.2255 13.2567Z" fill="#57AE47"/>
<path fill-rule="evenodd" clip-rule="evenodd" d="M12.1916 8.5132C12.1458 8.46445 12.0774 8.42357 12.0577 8.36582C11.7643 7.5037 11.4785 6.63913 11.1885 5.77588C10.8781 4.85151 10.5654 3.92788 10.2504 3.00501C10.2318 2.9512 10.1808 2.90863 10.145 2.86082C10.5142 2.49932 10.872 2.12488 11.256 1.78007C11.5974 1.4737 11.8719 1.1452 11.8845 0.661072C11.885 0.64101 11.8955 0.620947 11.9116 0.564697L12.009 0.809572C12.0065 0.93351 11.9955 1.05745 12.0035 1.18063C12.0176 1.39495 12.0521 1.60813 12.0618 1.82245C12.0798 2.22126 12.0885 2.62082 12.0965 3.0202C12.1095 3.66295 12.1213 4.3057 12.1293 4.94863C12.1419 5.97576 12.1501 7.00288 12.1631 8.03001C12.1646 8.19145 12.1815 8.35213 12.1916 8.5132Z" fill="#60B24F"/>
<path fill-rule="evenodd" clip-rule="evenodd" d="M11.7373 20.0785C11.7867 19.8319 11.8515 19.5872 11.8821 19.3384C11.943 18.8417 11.9848 18.3424 12.0347 17.8444L12.0471 17.8425L12.0595 17.8446C12.0722 18.4677 12.16 19.0871 12.3208 19.6892C12.2878 19.7327 12.2412 19.7715 12.2237 19.8207C12.0874 20.205 11.959 20.5924 11.8219 20.9768C11.8032 21.0293 11.751 21.0702 11.7143 21.1163L11.5742 20.6352L11.7373 20.0785Z" fill="#A9AA88"/>
<path fill-rule="evenodd" clip-rule="evenodd" d="M11.7144 21.1165C11.7511 21.0704 11.8034 21.0295 11.822 20.977C11.959 20.5926 12.0877 20.2055 12.2238 19.8209C12.2412 19.7718 12.2877 19.733 12.3209 19.6895L12.5562 20.2058C12.5097 20.2718 12.4456 20.3313 12.4197 20.4048L11.969 21.7283C11.9504 21.7814 11.887 21.8189 11.8447 21.8637L11.7144 21.1165Z" fill="#B6B598"/>
<path fill-rule="evenodd" clip-rule="evenodd" d="M11.8447 21.8634C11.8873 21.8188 11.9505 21.7811 11.969 21.7281L12.4198 20.4045C12.4455 20.3312 12.5098 20.2716 12.5563 20.2056L12.7841 20.4C12.674 20.5088 12.6129 20.6344 12.6497 20.7932L12.5805 21.0197C12.549 21.0585 12.5034 21.0923 12.4879 21.1367C12.3305 21.5873 12.1804 22.0403 12.0219 22.4908C12.0019 22.548 11.9462 22.5928 11.9068 22.6431C11.8863 22.3832 11.8656 22.1233 11.8447 21.8634Z" fill="#C2C1A7"/>
<path fill-rule="evenodd" clip-rule="evenodd" d="M11.907 22.6431C11.9462 22.5927 12.0019 22.5479 12.0221 22.4909C12.1806 22.0405 12.3308 21.5875 12.4881 21.1368C12.5036 21.0925 12.549 21.0586 12.5807 21.0198L12.4853 22.0595C12.4598 22.0889 12.4228 22.1146 12.4106 22.1489C12.3028 22.4515 12.2012 22.7564 12.093 23.059C12.0707 23.1215 12.028 23.1766 11.9946 23.2349C11.965 23.1961 11.9119 23.1586 11.9095 23.1181C11.8999 22.9604 11.9065 22.8016 11.907 22.6431Z" fill="#CECDB7"/>
<path fill-rule="evenodd" clip-rule="evenodd" d="M11.9941 23.2348C12.0275 23.1763 12.0703 23.1211 12.0926 23.0589C12.201 22.7565 12.3024 22.4516 12.4102 22.1488C12.4224 22.1145 12.4595 22.089 12.4848 22.0593L12.4871 22.7418L12.2587 23.3276L11.9941 23.2348Z" fill="#DBDAC7"/>
<path fill-rule="evenodd" clip-rule="evenodd" d="M12.2588 23.3277L12.4872 22.7419L12.5342 23.4349L12.2588 23.3277Z" fill="#EBE9DC"/>
<path fill-rule="evenodd" clip-rule="evenodd" d="M12.6494 20.7933C12.6126 20.6345 12.6736 20.5087 12.7838 20.4001L12.847 20.4433L12.6494 20.7933Z" fill="#CECDB7"/>
<path fill-rule="evenodd" clip-rule="evenodd" d="M12.0594 17.8447L12.047 17.8427L12.0347 17.8446L12.0637 17.7397L12.0594 17.8447Z" fill="#4FAA41"/>
</svg>
