<svg width="24" height="24" viewBox="0 0 24 24" fill="none" xmlns="http://www.w3.org/2000/svg">
<g clip-path="url(#clip0_22_339)">
<path d="M22.0667 18.4203C20.7593 18.3845 19.761 18.5068 18.907 18.8664C18.6645 18.969 18.2779 18.9712 18.2383 19.2752C18.3717 19.415 18.3921 19.6237 18.4984 19.7958C18.702 20.1247 19.0463 20.567 19.3532 20.7993C19.6887 21.0521 20.0344 21.323 20.394 21.542C21.0342 21.9324 21.7483 22.1552 22.3635 22.5455C22.7269 22.7762 23.0871 23.0662 23.4417 23.3263C23.6168 23.4545 23.7347 23.6544 23.9616 23.735V23.6985C23.8422 23.5462 23.8114 23.3366 23.7015 23.1778L23.2182 22.6944C22.7457 22.0674 22.1458 21.5167 21.5087 21.0596C21.0004 20.6942 19.8623 20.2012 19.6506 19.6102L19.6133 19.5729C19.9737 19.5318 20.3955 19.4015 20.7287 19.3121C21.2875 19.1627 21.7872 19.2015 22.3635 19.052L23.1443 18.8295V18.6808C22.8527 18.3819 22.6448 17.9857 22.327 17.7148C21.4943 17.0058 20.586 16.2982 19.6508 15.708C19.1322 15.3806 18.4913 15.1674 17.9413 14.8899C17.7561 14.7969 17.4315 14.7478 17.3093 14.5925C17.0207 14.2248 16.8632 13.7583 16.6407 13.3292C16.1742 12.4305 15.7163 11.4498 15.3025 10.5043C15.0205 9.85984 14.8367 9.22403 14.4852 8.64616C12.7977 5.87172 10.9813 4.19678 8.16734 2.55091C7.56828 2.20084 6.84753 2.06247 6.08572 1.88153L4.8589 1.80747C4.60915 1.70341 4.34984 1.39797 4.11547 1.24928C3.1834 0.65997 0.792029 -0.62103 0.101279 1.06347C-0.334471 2.12622 0.753217 3.16328 1.14209 3.70235C1.41528 4.0796 1.76459 4.50353 1.9594 4.92841C2.0884 5.20816 2.11034 5.48791 2.22022 5.78322C2.48984 6.51128 2.72553 7.30366 3.07503 7.97603C3.25147 8.31653 3.44628 8.67484 3.66978 8.97953C3.80609 9.16628 4.04103 9.24916 4.07853 9.53697C3.84847 9.85853 3.83534 10.3573 3.70653 10.7638C3.12565 12.5957 3.3454 14.8719 4.1899 16.227C4.44922 16.6438 5.06009 17.5357 5.89934 17.1937C6.63397 16.8941 6.4699 15.9677 6.68009 15.1496C6.72772 14.9643 6.69847 14.828 6.79147 14.7035V14.7408L7.46084 16.0783C7.95603 16.8759 8.83409 17.7093 9.57903 18.2718C9.96509 18.5634 10.269 19.0672 10.7685 19.2378V19.2005H10.7312C10.6345 19.0496 10.483 18.9873 10.36 18.8666C10.0692 18.581 9.74553 18.2265 9.50515 17.8998C8.82772 16.9807 8.22922 15.9742 7.68434 14.927C7.42353 14.4268 7.19722 13.8753 6.97747 13.3663C6.89253 13.17 6.89403 12.8726 6.7174 12.7715C6.47722 13.1443 6.12265 13.4462 5.93665 13.8862C5.64003 14.5901 5.60122 15.4492 5.49134 16.3391C5.42609 16.3625 5.45478 16.3464 5.41672 16.3764C4.89884 16.2512 4.71734 15.7187 4.52459 15.261C4.03822 14.1052 3.94747 12.2441 4.3759 10.9127C4.48653 10.5684 4.98753 9.48447 4.78465 9.16591C4.6879 8.84884 4.36859 8.66491 4.1899 8.42247C3.96865 8.12284 3.74834 7.72816 3.59515 7.38166C3.19672 6.48072 3.01147 5.46859 2.59165 4.55753C2.39103 4.12178 2.05259 3.68078 1.77434 3.29416C1.4659 2.86497 1.12109 2.54847 0.882217 2.03003C0.797279 1.84553 0.682342 1.55022 0.807592 1.36141C0.847904 1.23316 0.904342 1.17972 1.0309 1.1381C1.24615 0.971783 1.8469 1.19378 2.07097 1.28678C2.66722 1.53428 3.16447 1.77016 3.66978 2.10484C3.91147 2.26516 4.1569 2.57585 4.44978 2.66228H4.78447C5.3074 2.78247 5.89334 2.69884 6.38253 2.84753C7.24672 3.11041 8.0209 3.51916 8.72403 3.96297C10.8657 5.31578 12.6177 7.24047 13.8158 9.53809C14.0083 9.90803 14.092 10.2603 14.2618 10.6528C14.6038 11.4438 15.0353 12.2576 15.3758 13.0318C15.7163 13.803 16.0474 14.5824 16.5285 15.2246C16.7813 15.5623 17.7568 15.7432 18.2007 15.9307C18.5119 16.0618 19.0217 16.1988 19.3161 16.3768C19.8786 16.716 20.4235 17.1202 20.9517 17.4915C21.2145 17.6775 22.026 18.0855 22.0663 18.4209L22.0667 18.4203ZM5.45328 4.26035C5.18084 4.25528 4.98828 4.2896 4.78465 4.33441V4.37172H4.82122C4.95153 4.63834 5.18084 4.81047 5.3419 5.04034L5.71315 5.82109L5.75047 5.78453C5.98053 5.62197 6.0859 5.36266 6.0844 4.96647C5.99215 4.86897 5.97903 4.74822 5.8984 4.63178C5.79303 4.47728 5.58715 4.39009 5.45309 4.26053L5.45328 4.26035Z" fill="#00618A"/>
</g>
<defs>
<clipPath id="clip0_22_339">
<rect width="24" height="24" fill="white"/>
</clipPath>
</defs>
</svg>
