<svg width="24" height="24" viewBox="0 0 24 24" fill="none" xmlns="http://www.w3.org/2000/svg">
<g clip-path="url(#clip0_15_86)">
<path d="M4.25006 0.300049H19.7499C22.1001 0.300049 24 2.19999 24 4.55011V19.45C24 21.8001 22.1001 23.7001 19.7499 23.7001H4.25006C1.89994 23.7001 0 21.8001 0 19.45V4.55011C0 2.19999 1.89994 0.300049 4.25006 0.300049Z" fill="#001E36"/>
<path d="M8.59997 6.25C8.29997 6.25 7.99996 6.25 7.69003 6.26013C7.3799 6.27006 7.08984 6.27006 6.81984 6.28019C6.54984 6.29012 6.2999 6.29012 6.0599 6.30006C5.82984 6.31 5.6699 6.31 5.49984 6.31C5.4299 6.31 5.3999 6.34994 5.3999 6.42006V16.7101C5.3999 16.8001 5.43984 16.8402 5.5199 16.8402H7.45996C7.5299 16.8301 7.57997 16.7701 7.56984 16.7001V13.4901C7.75978 13.4901 7.89984 13.4901 7.99996 13.5001C8.0999 13.51 8.25984 13.51 8.49984 13.51C9.31997 13.51 10.07 13.42 10.7498 13.1701C11.3999 12.9301 11.96 12.5101 12.3599 11.95C12.7599 11.39 12.9599 10.68 12.9599 9.82C12.9599 9.37 12.88 8.94006 12.73 8.52006C12.5711 8.09217 12.3221 7.7034 11.9999 7.38006C11.6196 7.01062 11.1619 6.73047 10.6598 6.55994C10.0998 6.34994 9.4199 6.25 8.59997 6.25ZM8.82309 8.21969C9.17934 8.22644 9.52622 8.28869 9.84984 8.41994C10.1399 8.53 10.3799 8.73006 10.55 8.98994C10.7095 9.25889 10.7892 9.56763 10.78 9.88019C10.78 10.3201 10.6799 10.6602 10.4699 10.9101C10.2498 11.1601 9.96984 11.3502 9.64996 11.4402C9.27984 11.5602 8.88984 11.62 8.49984 11.62H7.96978C7.84978 11.62 7.72003 11.6101 7.57996 11.6001V8.24012C7.6499 8.23 7.78996 8.22006 7.99003 8.23019C8.17996 8.22006 8.40984 8.22006 8.6699 8.22006C8.72115 8.21881 8.77221 8.21869 8.82309 8.21969ZM17.21 8.73025C16.4999 8.73025 15.9098 8.84012 15.44 9.08012C15.01 9.28019 14.6399 9.60006 14.39 10C14.17 10.3701 14.0498 10.78 14.0498 11.2101C14.0413 11.5639 14.1203 11.9143 14.2799 12.2301C14.4669 12.5664 14.7266 12.8568 15.04 13.0801C15.4799 13.3809 15.9573 13.623 16.46 13.8001C16.9499 13.99 17.2799 14.14 17.44 14.2699C17.6 14.4001 17.68 14.53 17.68 14.6701C17.68 14.8501 17.57 15.0201 17.41 15.0901C17.23 15.1801 16.96 15.2301 16.58 15.2301C16.18 15.2301 15.7799 15.1801 15.3998 15.0801C14.9634 14.9827 14.545 14.8173 14.1599 14.5902C14.1299 14.5701 14.0999 14.5602 14.0699 14.5802C14.0399 14.6001 14.03 14.6401 14.03 14.6701V16.4101C14.02 16.4901 14.0699 16.5601 14.14 16.6C14.4643 16.7515 14.8073 16.8591 15.16 16.9201C15.61 17.0101 16.0598 17.05 16.5198 17.05C17.2398 17.05 17.84 16.9401 18.3299 16.7301C18.7799 16.5501 19.1699 16.2402 19.4498 15.8401C19.712 15.4467 19.8481 14.9828 19.8398 14.5101C19.8497 14.1531 19.7707 13.7992 19.61 13.4802C19.4198 13.1401 19.1498 12.8601 18.8198 12.6501C18.3371 12.347 17.8202 12.1019 17.2799 11.92C17.0386 11.8201 16.8017 11.71 16.5698 11.59C16.4399 11.5201 16.3199 11.4301 16.2299 11.32C16.1699 11.2399 16.13 11.1501 16.13 11.0601C16.13 10.9701 16.16 10.8702 16.2098 10.7901C16.28 10.6902 16.3898 10.6201 16.5198 10.5901C16.7099 10.5402 16.9199 10.51 17.1198 10.5199C17.4998 10.5199 17.8698 10.57 18.2399 10.6501C18.58 10.72 18.8999 10.8301 19.1999 10.9902C19.2398 11.0101 19.2899 11.0101 19.3799 10.9902C19.3955 10.9786 19.4082 10.9635 19.4169 10.9461C19.4256 10.9287 19.4301 10.9095 19.43 10.8901V9.26012C19.43 9.22 19.4198 9.18006 19.4099 9.14013C19.3898 9.10019 19.3499 9.06006 19.31 9.05012C19.0342 8.9374 18.7452 8.86009 18.4499 8.82006C18.0393 8.76028 17.6249 8.73038 17.21 8.73025Z" fill="#31A8FF"/>
</g>
<defs>
<clipPath id="clip0_15_86">
<rect width="24" height="24" fill="white"/>
</clipPath>
</defs>
</svg>
