<svg width="24" height="24" viewBox="0 0 24 24" fill="none" xmlns="http://www.w3.org/2000/svg">
<g clip-path="url(#clip0_22_280)">
<path d="M3.27637 19.3643L6.23043 0.461687C6.24812 0.34872 6.30086 0.244166 6.38119 0.162793C6.46152 0.0814201 6.56539 0.0273406 6.67812 0.00819314C6.79085 -0.0109543 6.90674 0.00579789 7.00944 0.0560837C7.11213 0.106369 7.19643 0.187647 7.25043 0.288437L10.3056 5.98656L11.5232 3.66794C11.5695 3.57999 11.6389 3.50636 11.724 3.45499C11.8091 3.40362 11.9066 3.37647 12.006 3.37647C12.1054 3.37647 12.2029 3.40362 12.288 3.45499C12.3731 3.50636 12.4425 3.57999 12.4888 3.66794L20.7332 19.3643H3.27637Z" fill="#FFA000"/>
<path d="M13.4818 12.0009L10.3041 5.98364L3.27637 19.3642L13.4818 12.0009Z" fill="#F57C00"/>
<path d="M20.7332 19.3643L18.4706 5.36331C18.4539 5.26461 18.4103 5.17242 18.3447 5.09682C18.2791 5.02122 18.194 4.96513 18.0986 4.93468C18.0033 4.90431 17.9014 4.90074 17.8042 4.92435C17.707 4.94796 17.6181 4.99785 17.5474 5.06856L3.27637 19.3641L11.1729 23.7925C11.4168 23.9286 11.6915 24.0001 11.9707 24.0001C12.25 24.0001 12.5247 23.9286 12.7686 23.7925L20.7332 19.3643Z" fill="#FFCA28"/>
<path d="M18.4704 5.36334C18.4537 5.26465 18.4101 5.17245 18.3445 5.09685C18.2789 5.02125 18.1938 4.96516 18.0984 4.93471C18.0031 4.90432 17.9013 4.90072 17.8041 4.92429C17.7068 4.94787 17.618 4.99772 17.5472 5.0684L14.7146 7.90846L12.4873 3.66796C12.441 3.58002 12.3715 3.50638 12.2865 3.45502C12.2014 3.40365 12.1039 3.3765 12.0045 3.3765C11.9051 3.3765 11.8076 3.40365 11.7225 3.45502C11.6374 3.50638 11.568 3.58002 11.5217 3.66796L10.304 5.9864L7.24891 0.288465C7.19485 0.187536 7.1104 0.106173 7.00753 0.0558991C6.90466 0.00562468 6.78858 -0.0110138 6.67573 0.00833974C6.56295 0.027688 6.45911 0.0820003 6.3789 0.163596C6.29868 0.245191 6.24615 0.34994 6.22873 0.463027L3.27616 19.3643H3.2666L3.27598 19.3752L3.35379 19.4135L17.543 5.20771C17.6138 5.13664 17.7028 5.08644 17.8002 5.06264C17.8976 5.03884 17.9997 5.04235 18.0953 5.07279C18.1909 5.10323 18.2762 5.15942 18.3419 5.23519C18.4076 5.31096 18.4512 5.40337 18.4678 5.50228L20.7112 19.3778L20.733 19.3642L18.4704 5.36334ZM3.30204 19.3385L6.23004 0.596715C6.24744 0.483567 6.29998 0.378757 6.38024 0.297122C6.46049 0.215487 6.56439 0.161163 6.67723 0.14184C6.7901 0.122503 6.90619 0.139169 7.00907 0.189478C7.11194 0.239787 7.19637 0.321189 7.25041 0.422152L10.3052 6.12028L11.523 3.80165C11.5693 3.7137 11.6387 3.64007 11.7238 3.5887C11.8089 3.53734 11.9064 3.51019 12.0058 3.51019C12.1052 3.51019 12.2027 3.53734 12.2878 3.5887C12.3729 3.64007 12.4423 3.7137 12.4886 3.80165L14.6707 7.95196L3.30166 19.3385H3.30204Z" fill="white" fill-opacity="0.2"/>
<path opacity="0.2" d="M12.7684 23.6587C12.5246 23.7948 12.2499 23.8663 11.9706 23.8663C11.6913 23.8663 11.4167 23.7948 11.1728 23.6587L3.295 19.2431L3.27588 19.3644L11.1724 23.7913C11.4163 23.9274 11.691 23.9989 11.9703 23.9989C12.2495 23.9989 12.5242 23.9274 12.7681 23.7913L20.7331 19.3644L20.7124 19.2388L12.7681 23.6591L12.7684 23.6587Z" fill="#A52714"/>
</g>
<defs>
<clipPath id="clip0_22_280">
<rect width="24" height="24" fill="white"/>
</clipPath>
</defs>
</svg>
