<svg width="24" height="24" viewBox="0 0 24 24" fill="none" xmlns="http://www.w3.org/2000/svg">
<path d="M7.36253 20.4319L7.30928 20.3255C7.20296 20.1127 7.20296 19.8999 7.25621 19.6339H1.51103L10.0226 4.52623L13.5868 10.9631L14.757 10.1119L11.1928 3.67498C11.1397 3.56867 10.7141 2.93042 10.0226 2.93042C9.70328 2.93042 9.22459 3.03673 8.85221 3.72823L0.234339 18.9956C0.181089 19.1554 -0.191286 19.8469 0.127839 20.4319C0.340651 20.7512 0.659964 21.0703 1.40471 21.0703H8.6394C7.89465 21.0703 7.52228 20.751 7.36253 20.4319Z" fill="#00C58E"/>
<path d="M23.7469 19.0482L16.8313 6.60025C16.725 6.49393 16.3526 5.80225 15.6609 5.80225C15.3418 5.80225 14.8631 5.96181 14.4907 6.60025L13.5864 8.08975V10.9624L15.6611 7.39825L22.5234 19.6334H19.9168C19.9603 19.8866 19.9231 20.1472 19.8103 20.3781L19.7571 20.4314C19.4379 21.0164 18.6399 21.0696 18.5336 21.0696H22.5765C22.7361 21.0696 23.4808 21.0166 23.8532 20.4314C24.0127 20.1653 24.1192 19.6866 23.7469 19.0482Z" fill="#108775"/>
<path d="M19.9705 20.4318V20.3785L20.0238 20.2722C20.0768 20.0594 20.1301 19.8466 20.0768 19.6338L19.8642 18.9955L14.4383 9.52658L13.6403 8.09033H13.5871L12.7891 9.52658L7.3632 18.9953L7.15058 19.6338C7.0989 19.9043 7.1362 20.1842 7.25689 20.4318C7.4697 20.7509 7.78883 21.0702 8.53358 21.0702H18.641C18.8005 21.0702 19.5985 21.017 19.9709 20.4318H19.9705ZM13.5869 10.9628L18.5343 19.6338H8.6397L13.5869 10.9628Z" fill="#2F495E"/>
</svg>
