<svg width="24" height="24" viewBox="0 0 24 24" fill="none" xmlns="http://www.w3.org/2000/svg">
<g clip-path="url(#clip0_22_341)">
<path d="M13.0314 18.5955C13.0204 18.4586 13.0138 18.3705 13.0138 18.3705C13.0138 18.3705 12.6002 15.5788 12.1071 14.7454C12.0294 14.6128 12.1151 14.0715 12.3334 13.2679C12.4609 13.4871 12.9971 14.4289 13.1055 14.7322C13.227 15.0742 13.2517 15.1723 13.2517 15.1723C13.2517 15.1723 12.9574 13.6569 12.4747 12.7729C12.592 12.3788 12.7173 11.9872 12.8505 11.5982C13.0329 11.9188 13.4717 12.6967 13.5682 12.9669C13.5874 13.0219 13.6042 13.0687 13.6189 13.1121L13.6327 13.0344C13.5221 12.5649 13.3046 11.7482 13.0072 11.1441C13.6672 7.70756 15.9193 3.11456 18.2272 1.06519H3.16893C2.15887 1.06519 1.3335 1.89131 1.3335 2.90062V19.5075C1.3335 20.5168 2.15962 21.3429 3.16912 21.3429H13.0873C13.0123 20.4292 12.9937 19.5117 13.0316 18.5957" fill="#0B7FCC"/>
<path d="M12.3334 13.268C12.4609 13.487 12.9972 14.4282 13.1053 14.7321C13.227 15.0741 13.2518 15.1722 13.2518 15.1722C13.2518 15.1722 12.9574 13.6568 12.4748 12.7728C12.5922 12.3784 12.7175 11.9865 12.8505 11.5971C13.0168 11.891 13.3984 12.5663 13.5353 12.8856L13.5507 12.7055C13.4292 12.2375 13.2445 11.6243 13.0073 11.144C13.6152 7.98065 15.5723 3.83709 17.6809 1.60059H3.16878C2.82409 1.60088 2.4936 1.73793 2.24985 1.98165C2.00609 2.22536 1.869 2.55583 1.86865 2.90052V18.2961C5.15496 17.0341 9.11815 15.8811 12.529 15.931C12.403 15.4426 12.2588 15.001 12.1071 14.7453C12.0295 14.6127 12.1152 14.0708 12.3334 13.268Z" fill="url(#paint0_linear_22_341)"/>
<path d="M21.7408 0.521546C20.7096 -0.398329 19.4601 -0.0283917 18.2282 1.06511C18.0379 1.23525 17.8555 1.41413 17.6818 1.60117C15.5724 3.8373 13.6161 7.98048 13.0082 11.144C13.2448 11.6245 13.4301 12.2375 13.5508 12.7055C13.5823 12.8255 13.6108 12.9384 13.6337 13.0344C13.6871 13.2607 13.7156 13.4086 13.7156 13.4086C13.7156 13.4086 13.6967 13.3368 13.6191 13.112C13.6044 13.0689 13.5876 13.0212 13.5684 12.967C13.5585 12.9396 13.5477 12.9125 13.5362 12.8857C13.3986 12.5664 13.0178 11.891 12.8507 11.5981C12.7078 12.02 12.5813 12.4156 12.4749 12.7728C12.9583 13.6569 13.2529 15.1722 13.2529 15.1722C13.2529 15.1722 13.2272 15.0742 13.1063 14.7322C12.9979 14.4282 12.4611 13.4872 12.3343 13.268C12.1161 14.0707 12.0296 14.6127 12.108 14.7455C12.2597 15.0009 12.4031 15.4434 12.5299 15.931C12.8156 17.0311 13.0148 18.3708 13.0148 18.3708C13.0148 18.3708 13.0206 18.4587 13.0324 18.5958C12.9945 19.5118 13.0131 20.4292 13.0881 21.3429C13.1826 22.4885 13.3605 23.4734 13.5876 24.0001L13.7428 23.9159C13.4089 22.8781 13.2733 21.5172 13.3326 19.9492C13.4226 17.5505 13.9742 14.6589 14.9931 11.645C16.7164 7.09436 19.1064 3.44411 21.2934 1.70092C19.2998 3.5013 16.6016 9.32917 15.7937 11.4875C14.8899 13.9045 14.2491 16.172 13.8623 18.3451C14.5279 16.3083 16.6836 15.4332 16.6836 15.4332C16.6836 15.4332 17.7405 14.1286 18.9761 12.2667C18.2355 12.436 17.0205 12.7246 16.614 12.8952C16.014 13.1472 15.8514 13.2327 15.8514 13.2327C15.8514 13.2327 17.796 12.0492 19.4646 11.5132C21.7584 7.90005 24.2574 2.76667 21.741 0.521733" fill="#003956"/>
</g>
<defs>
<linearGradient id="paint0_linear_22_341" x1="10.9859" y1="1.94075" x2="10.9859" y2="17.3669" gradientUnits="userSpaceOnUse">
<stop stop-color="#95D7F4"/>
<stop offset="0.92" stop-color="#0F7FCC"/>
<stop offset="1" stop-color="#0F7FCC"/>
</linearGradient>
<clipPath id="clip0_22_341">
<rect width="24" height="24" fill="white"/>
</clipPath>
</defs>
</svg>
