<svg width="24" height="24" viewBox="0 0 24 24" fill="none" xmlns="http://www.w3.org/2000/svg">
<g clip-path="url(#clip0_15_117)">
<path d="M0.26416 0.263916H23.7362V23.7361H0.26416V0.263916Z" fill="#F0DB4F"/>
<path d="M21.815 18.1379C21.6431 17.0671 20.9449 16.1677 18.8765 15.329C18.158 14.9988 17.357 14.7624 17.1184 14.2179C17.0336 13.901 17.0224 13.7225 17.076 13.5307C17.2299 12.9082 17.973 12.7141 18.5619 12.8926C18.9412 13.0197 19.3003 13.312 19.5169 13.7784C20.5297 13.1225 20.5277 13.1268 21.2349 12.676C20.976 12.2746 20.8378 12.0894 20.6683 11.9176C20.0591 11.2372 19.229 10.8867 17.9015 10.9135L17.21 11.003C16.5474 11.1704 15.9159 11.5182 15.5456 11.9845C14.4345 13.2453 14.7514 15.4518 16.1034 16.3599C17.4354 17.3596 19.3922 17.587 19.6421 18.5219C19.8853 19.6664 18.801 20.0369 17.7232 19.9053C16.929 19.7401 16.4872 19.3364 16.0097 18.6024C15.1307 19.111 15.1307 19.111 14.2269 19.6308C14.4412 20.0994 14.6664 20.3114 15.0257 20.7174C16.7259 22.442 20.9807 22.3572 21.7438 19.7469C21.7747 19.6572 21.9802 19.0595 21.815 18.1379ZM13.0241 11.0517H10.8287L10.8197 16.7277C10.8197 17.9349 10.8821 19.0415 10.6858 19.3807C10.3646 20.0478 9.53229 19.9651 9.15298 19.8357C8.76692 19.646 8.57061 19.3762 8.34317 18.9948C8.28073 18.8853 8.23386 18.8005 8.21811 18.794L6.43311 19.8871C6.72992 20.4963 7.16717 21.025 7.72723 21.3685C8.56386 21.8707 9.68829 22.0246 10.8643 21.7546C11.6297 21.5317 12.29 21.0699 12.6358 20.3669C13.1357 19.4454 13.0284 18.3299 13.0239 17.0962C13.0352 15.0834 13.0241 13.0709 13.0241 11.0517Z" fill="#323330"/>
</g>
<defs>
<clipPath id="clip0_15_117">
<rect width="24" height="24" fill="white"/>
</clipPath>
</defs>
</svg>
