<svg width="24" height="24" viewBox="0 0 24 24" fill="none" xmlns="http://www.w3.org/2000/svg">
<path d="M8.92824 18.3974C8.92824 18.3974 8.03443 18.9175 9.56518 19.093C11.4199 19.3049 12.3677 19.2745 14.4111 18.8883C14.4111 18.8883 14.9494 19.2248 15.6998 19.5166C11.1175 21.4797 5.32956 19.4028 8.92824 18.3974ZM8.36799 15.8352C8.36799 15.8352 7.36524 16.5775 8.89731 16.7361C10.8786 16.9407 12.4429 16.9574 15.1512 16.4361C15.1512 16.4361 15.5249 16.8158 16.1134 17.0232C10.5743 18.6432 4.40481 17.1507 8.36799 15.8352Z" fill="#0074BD"/>
<path d="M13.088 11.4884C14.2177 12.7887 12.7917 13.9578 12.7917 13.9578C12.7917 13.9578 15.6584 12.4782 14.3422 10.6246C13.1123 8.89681 12.1696 8.03862 17.2737 5.07837C17.2737 5.07856 9.26166 7.07899 13.088 11.4884Z" fill="#EA2D2E"/>
<path d="M19.148 20.2931C19.148 20.2931 19.8096 20.8387 18.419 21.2604C15.7748 22.0614 7.41158 22.3029 5.08883 21.2924C4.25427 20.9291 5.81989 20.4252 6.31246 20.3189C6.82602 20.2077 7.11927 20.228 7.11927 20.228C6.19058 19.5742 1.11683 21.5124 4.54246 22.0683C13.8839 23.5826 21.5706 21.3864 19.148 20.2931ZM9.35839 13.1802C9.35839 13.1802 5.10477 14.1907 7.85221 14.558C9.01246 14.7132 11.3243 14.6776 13.4793 14.4969C15.2399 14.3489 17.0067 14.033 17.0067 14.033C17.0067 14.033 16.3865 14.2991 15.9372 14.6054C11.6168 15.7419 3.27271 15.2126 5.67514 14.0508C7.70614 13.0685 9.35839 13.1802 9.35839 13.1802ZM16.9891 17.4453C21.3805 15.164 19.3499 12.9716 17.9326 13.2669C17.5861 13.3391 17.4306 13.4019 17.4306 13.4019C17.4306 13.4019 17.5596 13.1996 17.8056 13.1126C20.6093 12.1272 22.7652 16.0194 16.9013 17.561C16.9013 17.5606 16.9686 17.4997 16.9891 17.4453Z" fill="#0074BD"/>
<path d="M14.342 0.297607C14.342 0.297607 16.7735 2.73061 12.0352 6.47067C8.23535 9.47179 11.1688 11.1825 12.0339 13.138C9.81559 11.1368 8.18847 9.37486 9.27991 7.73517C10.8827 5.32879 15.3228 4.16161 14.342 0.297607Z" fill="#EA2D2E"/>
<path d="M9.79026 23.6289C14.0045 23.8983 20.4778 23.4789 20.6309 21.4846C20.6309 21.4846 20.3364 22.2406 17.1478 22.8404C13.5504 23.5177 9.11263 23.4387 6.48145 23.0043C6.48145 23.0045 7.02051 23.4507 9.79026 23.6289Z" fill="#0074BD"/>
</svg>
