<svg width="24" height="24" viewBox="0 0 24 24" fill="none" xmlns="http://www.w3.org/2000/svg">
<path d="M20.7057 3.17552C18.4788 -0.0142279 14.0795 -0.959603 10.8995 1.06802L5.31349 4.63052C4.5576 5.10479 3.90902 5.73159 3.40923 6.47085C2.90944 7.21011 2.56944 8.04554 2.41099 8.92371C2.34034 9.31783 2.3044 9.71979 2.30374 10.123C2.30713 11.2162 2.57494 12.2925 3.0843 13.2598C2.6068 13.986 2.28097 14.8011 2.12636 15.6563C1.96793 16.5503 1.99011 17.477 2.19105 18.3585C2.3922 19.2459 2.76829 20.0842 3.2973 20.8245C5.52442 24.0139 9.93367 24.9595 13.1035 22.932L18.6839 19.3693C19.4393 18.8945 20.0871 18.2668 20.5856 17.5268C21.0841 16.7868 21.4223 15.9507 21.5785 15.0722C21.6503 14.6771 21.6862 14.2764 21.6858 13.8748C21.6844 12.7837 21.4199 11.7089 20.9148 10.7417C21.3922 10.0163 21.7183 9.20185 21.8733 8.34733C21.9425 7.95171 21.9777 7.5514 21.9787 7.14996C21.9791 5.72599 21.5342 4.33755 20.7061 3.17908L20.7057 3.17552Z" fill="#FF3E00"/>
<path d="M10.3536 21.1242C9.98664 21.2187 9.61244 21.2665 9.23719 21.2667C8.52063 21.2665 7.81478 21.0927 7.18012 20.76C6.54545 20.4274 6.0009 19.9458 5.59313 19.3566C5.09522 18.6596 4.82774 17.8244 4.82813 16.9678C4.82844 16.7263 4.84937 16.4855 4.89056 16.2492C4.92412 16.0713 4.96926 15.8969 5.02556 15.7275L5.13075 15.4073L5.41575 15.624C6.07728 16.1096 6.81639 16.4795 7.60163 16.7179L7.80863 16.7803L7.78913 16.9873V17.0948C7.78873 17.3538 7.86923 17.6064 8.01938 17.8174C8.14071 17.997 8.30407 18.1443 8.49525 18.2464C8.69103 18.3497 8.90246 18.4031 9.11625 18.4033C9.22909 18.4038 9.34164 18.3894 9.45188 18.3604C9.57153 18.3291 9.68714 18.2785 9.79556 18.21L15.3756 14.6299C15.5429 14.5237 15.6806 14.3768 15.7758 14.2029C15.871 14.0291 15.9206 13.834 15.9201 13.6358C15.9184 13.3768 15.8358 13.1247 15.6838 12.915C15.5606 12.7377 15.3964 12.5929 15.2051 12.4928C15.0092 12.3917 14.7982 12.34 14.5851 12.3409C14.4722 12.3405 14.3597 12.355 14.2494 12.384C14.1303 12.4146 14.0153 12.4652 13.9078 12.5342L11.7804 13.8936C11.4224 14.1192 11.0411 14.2866 10.6464 14.3916C9.76762 14.6204 8.83973 14.5738 7.98828 14.258C7.13683 13.9423 6.40292 13.3726 5.88581 12.6261C5.38837 11.9289 5.12093 11.0938 5.12081 10.2373C5.12119 9.99641 5.14219 9.75603 5.18325 9.51866C5.27867 8.99085 5.4827 8.48863 5.78242 8.04382C6.08214 7.59901 6.47101 7.22133 6.92438 6.93472L12.5104 3.3741C12.8609 3.151 13.2433 2.98239 13.6444 2.87403C14.0092 2.78064 14.3842 2.73339 14.7608 2.73341C15.4788 2.73189 16.1865 2.90454 16.8232 3.23656C17.4598 3.56858 18.0065 4.05006 18.4163 4.63972C18.9107 5.33858 19.1748 6.17428 19.1717 7.03035C19.1713 7.27254 19.1503 7.51404 19.1091 7.7511C19.0756 7.92889 19.0306 8.10324 18.9744 8.27253L18.8691 8.59278L18.5841 8.38391C17.9231 7.89737 17.1838 7.52741 16.3982 7.29003L16.1912 7.22572L16.2107 7.01853V6.91128C16.2106 6.65174 16.1302 6.39857 15.9804 6.1866C15.8576 6.00931 15.6935 5.86454 15.5023 5.76472C15.3069 5.66364 15.0963 5.61176 14.8836 5.61228C14.7717 5.61469 14.6605 5.63173 14.5517 5.6631C14.4319 5.6932 14.3162 5.74384 14.2084 5.81347L8.62219 9.3741C8.48973 9.4568 8.37261 9.57098 8.27794 9.70972C8.1896 9.83926 8.12776 9.99191 8.09738 10.1554C8.0836 10.2233 8.07506 10.2926 8.07188 10.3624C8.07175 10.6208 8.15224 10.8727 8.30213 11.0832C8.42492 11.2604 8.58893 11.4052 8.78006 11.505C8.97555 11.6061 9.1862 11.658 9.399 11.6573C9.51185 11.6577 9.62439 11.6432 9.73463 11.6142C9.85449 11.5838 9.9702 11.5332 10.0783 11.464L12.2096 10.0967C12.5675 9.87076 12.9489 9.70328 13.3436 9.59872C13.7106 9.50426 14.0847 9.45649 14.46 9.45622C15.1767 9.45611 15.8827 9.62964 16.5177 9.96195C17.1527 10.2943 17.6977 10.7755 18.1061 11.3644C18.4246 11.8107 18.6507 12.3163 18.771 12.8512C18.8914 13.3862 18.9035 13.9398 18.8068 14.4795C18.7119 15.0075 18.5081 15.51 18.2084 15.9549C17.9086 16.3997 17.5194 16.7773 17.0657 17.0635L11.4894 20.6241C11.131 20.8507 10.7489 21.0189 10.3536 21.1242Z" fill="white"/>
</svg>
