<svg width="24" height="24" viewBox="0 0 24 24" fill="none" xmlns="http://www.w3.org/2000/svg">
<g clip-path="url(#clip0_15_89)">
<path d="M20.0156 0H3.98438C1.78387 0 0 1.82668 0 4.08V19.8816C0 22.1349 1.78387 23.9616 3.98438 23.9616H20.0156C22.2161 23.9616 24 22.1349 24 19.8816V4.08C24 1.82668 22.2161 0 20.0156 0Z" fill="#001E36"/>
<path d="M12.6038 16.9354H6.26041C6.15297 16.9354 6.09931 16.8749 6.09944 16.7539V6.28523C6.09662 6.26507 6.09842 6.24452 6.1047 6.22521C6.11098 6.20589 6.12157 6.18834 6.13562 6.17394C6.14968 6.15954 6.16681 6.14868 6.18567 6.14224C6.20453 6.1358 6.2246 6.13394 6.24428 6.13681H8.20853C8.22384 6.1346 8.23944 6.13606 8.25411 6.14109C8.26877 6.14611 8.28209 6.15456 8.29302 6.16576C8.30395 6.17696 8.31219 6.19061 8.31708 6.20563C8.32197 6.22064 8.32339 6.23662 8.32122 6.2523V14.8582H12.9419C13.0384 14.8582 13.076 14.9077 13.0547 15.0065L12.7648 16.7871C12.7641 16.8114 12.7579 16.8352 12.7468 16.8566C12.7356 16.8781 12.7197 16.8966 12.7004 16.9107C12.6705 16.9266 12.6374 16.935 12.6038 16.9355M14.1976 8.74167H15.9525C16.0503 8.74263 16.1358 8.80983 16.1617 8.9066C16.2001 8.97881 16.2273 9.05666 16.2423 9.13739C16.2647 9.24356 16.2808 9.35073 16.2905 9.45889C16.3012 9.57428 16.3065 9.69793 16.3067 9.82983C16.6076 9.47096 16.9705 9.17195 17.3773 8.94779C17.8342 8.69479 18.3472 8.56701 18.8666 8.57684C18.8863 8.57397 18.9063 8.57583 18.9252 8.58227C18.9441 8.58872 18.9612 8.59957 18.9753 8.61397C18.9893 8.62837 18.9999 8.64592 19.0062 8.66524C19.0125 8.68456 19.0143 8.70511 19.0114 8.72526V10.7201C19.0114 10.7971 18.9578 10.8356 18.8505 10.8355C18.2019 10.7944 17.5532 10.9131 16.9587 11.1817C16.7567 11.2713 16.5736 11.4001 16.4193 11.5609V16.7871C16.4193 16.886 16.3764 16.9355 16.2905 16.9355H14.3424C14.3205 16.9387 14.2982 16.9366 14.2773 16.9295C14.2563 16.9223 14.2373 16.9103 14.2217 16.8943C14.206 16.8783 14.1943 16.8588 14.1873 16.8373C14.1803 16.8159 14.1783 16.793 14.1814 16.7706V11.0992C14.1814 10.9612 14.1806 10.8186 14.1788 10.6714L14.1755 10.4473C14.1749 10.4094 14.1742 10.3711 14.1734 10.3327C14.1693 10.1322 14.1637 9.93181 14.1567 9.73143L14.1492 9.5331C14.1421 9.3066 14.1206 9.08081 14.0849 8.85716C14.0811 8.84222 14.0809 8.82656 14.0844 8.81154C14.0879 8.79652 14.0949 8.7826 14.1049 8.77099C14.1148 8.75938 14.1273 8.75043 14.1414 8.74492C14.1555 8.73941 14.1707 8.7375 14.1857 8.73937L14.1976 8.74167Z" fill="#31A8FF"/>
</g>
<defs>
<clipPath id="clip0_15_89">
<rect width="24" height="24" fill="white"/>
</clipPath>
</defs>
</svg>
