<svg width="24" height="24" viewBox="0 0 24 24" fill="none" xmlns="http://www.w3.org/2000/svg">
<g clip-path="url(#clip0_22_365)">
<path d="M13.2797 20.9947L12.8733 21.9815C12.7926 22.1769 12.608 22.3092 12.4003 22.3181C12.263 22.3233 12.1246 22.3272 11.9849 22.3272C7.20137 22.3246 2.96902 18.9416 1.92034 14.28L0.291992 14.6487C0.880461 17.2634 2.35749 19.6366 4.45121 21.3327C6.56921 23.0479 9.23734 23.9949 11.9669 24H11.9912C12.1516 24 12.3106 23.9962 12.4695 23.9897C13.326 23.9538 14.0913 23.4154 14.4183 22.6175L14.9491 21.3275L13.2797 20.9947Z" fill="url(#paint0_linear_22_365)"/>
<path d="M0.425626 15.1795C0.142711 14.1436 -0.000432334 13.0746 9.80823e-07 12.0007C9.80823e-07 7.0797 3.08091 2.58007 7.66706 0.805664L8.26838 2.36679C4.32075 3.89445 1.66931 7.76585 1.66931 12.0007C1.66881 12.9247 1.79171 13.8447 2.03475 14.7362L0.425626 15.1795Z" fill="url(#paint1_linear_22_365)"/>
<path d="M21.1586 7.24669C19.3739 3.80962 15.8609 1.67419 11.9928 1.67419C10.6221 1.67419 9.29014 1.93884 8.03614 2.45925L7.39648 0.9135C8.8542 0.308438 10.4004 0 11.9928 0C16.4866 0 20.5662 2.47978 22.6394 6.47316L21.1586 7.24669Z" fill="url(#paint2_linear_22_365)"/>
<path d="M8.41202 9.52475C9.38008 9.52475 10.1686 10.0425 10.5737 10.9458L10.6058 11.0165L12.2314 10.4627L12.1968 10.3792C11.5673 8.84122 10.1172 7.88525 8.41211 7.88525C7.21333 7.88525 6.23889 8.27075 5.43367 9.06219C4.6337 9.84857 4.22852 10.8378 4.22852 12.0032C4.22852 13.1583 4.6337 14.1426 5.43367 14.9289C6.23889 15.7204 7.21333 16.1058 8.41211 16.1058C10.1172 16.1058 11.5673 15.1498 12.1968 13.6132L12.2315 13.5298L10.6032 12.9746L10.5724 13.0479C10.2096 13.9357 9.40183 14.4663 8.41202 14.4663C7.73767 14.4663 7.16842 14.23 6.71702 13.7648C6.26073 13.2932 6.02992 12.7009 6.02992 12.0045C6.02992 11.303 6.25558 10.7222 6.71711 10.2289C7.16711 9.7611 7.73758 9.52475 8.41202 9.52475Z" fill="#09293F"/>
<path d="M18.5944 8.03687L16.2776 13.9177L13.9454 8.03687H12.0376L15.3083 16.0635L12.9813 21.7246L14.6493 22.0574L20.397 8.03687H18.5944Z" fill="#09293F"/>
<path d="M22.6395 6.47314C23.4835 8.11733 24 10.0486 24 12.0253C24 16.6378 21.4059 20.6424 17.6013 22.6512L16.7793 21.1936C20.0784 19.4731 22.3318 16.0131 22.3318 12.0253C22.3318 10.2947 21.9087 8.67927 21.1587 7.24658L22.6395 6.47314Z" fill="url(#paint3_linear_22_365)"/>
</g>
<defs>
<linearGradient id="paint0_linear_22_365" x1="92.9246" y1="442.232" x2="1238.71" y2="748.165" gradientUnits="userSpaceOnUse">
<stop stop-color="#315C55"/>
<stop offset="1" stop-color="#09293F"/>
</linearGradient>
<linearGradient id="paint1_linear_22_365" x1="448.956" y1="392.665" x2="342.31" y2="1430.89" gradientUnits="userSpaceOnUse">
<stop stop-color="#4FB38D"/>
<stop offset="1" stop-color="#315C55"/>
</linearGradient>
<linearGradient id="paint2_linear_22_365" x1="219.41" y1="362.334" x2="1065.05" y2="517.362" gradientUnits="userSpaceOnUse">
<stop stop-color="#4FB38D"/>
<stop offset="1" stop-color="#97DEC0"/>
</linearGradient>
<linearGradient id="paint3_linear_22_365" x1="405.687" y1="506.246" x2="-55.4466" y2="1369.61" gradientUnits="userSpaceOnUse">
<stop stop-color="#97DEC0"/>
<stop offset="1" stop-color="#FFFFF0" stop-opacity="0"/>
</linearGradient>
<clipPath id="clip0_22_365">
<rect width="24" height="24" fill="white"/>
</clipPath>
</defs>
</svg>
