<svg width="21" height="24" viewBox="0 0 21 24" fill="none" xmlns="http://www.w3.org/2000/svg">
<g clip-path="url(#clip0_22_260)">
<path d="M10.5 0.00390625L21 5.99604V17.9842L10.5 23.9763L0 17.9842V5.99604L10.5 0.00390625Z" fill="white"/>
<path d="M19.1259 17.5686L10.8488 22.2974V18.6198L16.0076 15.7537L19.1259 17.5686ZM19.6925 17.0529V7.17135L16.6654 8.93411V15.29L19.6925 17.0529ZM1.84247 17.5685L10.1197 22.2935V18.6159L4.9608 15.7537L1.84247 17.5685ZM1.27588 17.0529V7.17135L4.30308 8.93411V15.29L1.27588 17.0529ZM1.62861 6.53179L10.1197 1.68685V5.24464L4.67952 8.2626L4.63588 8.2866L1.62861 6.53179ZM19.3359 6.53179L10.8488 1.68677V5.24456L16.285 8.26649L16.3285 8.29049L19.3359 6.53179Z" fill="#8ED6FB"/>
<path d="M10.1198 17.7804L5.03223 14.9542V9.36186L10.1198 12.324V17.7804ZM10.8489 17.7804L15.9365 14.9583V9.36186L10.8489 12.324V17.7804ZM5.37298 8.71428L10.4844 5.88013L15.5916 8.71428L10.4844 11.6884L5.37298 8.71428Z" fill="#1C78C0"/>
</g>
<defs>
<clipPath id="clip0_22_260">
<rect width="21" height="24" fill="white"/>
</clipPath>
</defs>
</svg>
