<svg width="23" height="24" viewBox="0 0 23 24" fill="none" xmlns="http://www.w3.org/2000/svg">
<path d="M19.9707 4.70459L18.4273 22.0138L11.4899 23.9393L4.57154 22.0165L3.02979 4.70459H19.9707Z" fill="#E44D26"/>
<path d="M11.5 22.4676L17.1058 20.9117L18.4246 6.12012H11.5V22.4676Z" fill="#F16529"/>
<path d="M8.49991 10.3666H11.5001V8.24341H6.18213L6.23286 8.81303L6.75415 14.6641H11.5001V12.5409H8.69375L8.49991 10.3666ZM8.9779 15.7258H6.84891L7.14602 19.0596L11.4904 20.2669L11.5001 20.2642V18.0552L11.4908 18.0576L9.12891 17.4191L8.9779 15.7258Z" fill="#EBEBEB"/>
<path d="M4.60547 0H5.68324V1.06604H6.66918V0H7.74702V3.22823H6.66924V2.14724H5.68331V3.22823H4.60554L4.60547 0ZM9.16426 1.07056H8.21558V0H11.1915V1.07056H10.2422V3.22823H9.16446V1.07056H9.16426ZM11.6638 0H12.7876L13.4789 1.13432L14.1695 0H15.2938V3.22823H14.2204V1.62814L13.4789 2.77596H13.4603L12.7183 1.62814V3.22823H11.6638V0ZM15.8301 0H16.9082V2.1612H18.4239V3.22823H15.8301L15.8301 0Z" fill="black"/>
<path d="M11.4927 14.6641H14.1043L13.8581 17.4178L11.4927 18.0569V20.2659L15.8405 19.0596L15.8724 18.7008L16.3708 13.111L16.4225 12.5409H11.4927V14.6641ZM11.4927 10.3615V10.3666H16.6155L16.658 9.88944L16.7547 8.81303L16.8054 8.24341H11.4927V10.3615Z" fill="white"/>
</svg>
