<svg width="24" height="24" viewBox="0 0 24 24" fill="none" xmlns="http://www.w3.org/2000/svg">
<rect width="24" height="24" rx="2" fill="#242424"/>
<mask id="mask0_20_195" style="mask-type:alpha" maskUnits="userSpaceOnUse" x="0" y="0" width="24" height="24">
<path d="M10.7919 9.8255C7.0067 10.953 0.322128 13.5302 0 24C1.77181 18.2819 4.1879 17.557 9.66441 16.2685C15.1409 14.9799 18.7232 13.3176 21.5839 9.60644C24.4446 5.8953 23.5973 0 23.5973 0C23.5973 3.0604 21.4228 5.07383 19.3288 6.52349C17.2349 7.97316 14.5772 8.69799 10.7919 9.8255Z" fill="#733C3C"/>
</mask>
<g mask="url(#mask0_20_195)">
<path d="M10.7919 9.8255C7.0067 10.953 0.322128 13.5302 0 24C1.20805 18.3624 4.1879 17.557 9.66441 16.2685C15.1409 14.9799 18.1208 13.5302 21.4228 9.58389C24.7248 5.63758 23.5973 0 23.5973 0C23.5973 3.0604 21.4228 5.07383 19.3288 6.52349C17.2349 7.97316 14.5772 8.69799 10.7919 9.8255Z" fill="url(#paint0_linear_20_195)"/>
<path d="M0.0463857 23.0748C0.0253769 23.3762 0.00989226 23.6845 0.000185177 24C-0.0208928 23.7119 -0.00458367 23.4018 0.0463857 23.0748C0.722549 13.3762 7.12095 10.919 10.7921 9.8255C14.5774 8.69799 17.2351 7.97315 19.329 6.52349C21.423 5.07383 23.5975 3.0604 23.5975 0C23.5975 0 24.725 5.63758 21.423 9.58389C18.121 13.5302 15.3827 11.9195 9.90623 13.2081C4.90747 14.3842 0.579683 19.6534 0.0463857 23.0748Z" fill="url(#paint1_linear_20_195)"/>
<path d="M10.47 11.1141C2.99757 14.4351 -0.0804643 20.7248 7.27514e-05 24C0.241677 20.8591 3.06059 16.8322 6.44313 15.9463C9.82566 15.0604 16.3492 15.9463 20.1344 12.0805C23.9196 8.21476 23.5974 0 23.5974 0C23.5974 3.22327 18.4432 7.57047 10.47 11.1141Z" fill="url(#paint2_linear_20_195)"/>
<g filter="url(#filter0_f_20_195)">
<path d="M7.0332 14.0747C6.22878 14.8088 5.17182 15.7025 3.46289 16.9127C4.39931 15.8639 5.70567 14.8943 7.0332 14.0747C9.08111 12.206 9.49222 11.3723 14.8573 8.98782C22.8305 5.4442 23.1139 3.62586 23.1139 0.402588C23.1139 0.402588 23.9998 5.31534 20.4561 9.10057C16.9125 12.8858 13.0468 11.4361 12.4025 11.5167C11.9852 11.5688 9.47343 12.5683 7.0332 14.0747Z" fill="#00418F"/>
</g>
<path d="M10.47 11.1141C2.99757 14.4351 -0.0804643 20.7248 7.27513e-05 24C0.241677 20.8591 3.38274 14.7383 8.5371 13.7718C13.6915 12.8054 16.9129 12.8859 20.4566 9.10067C24.0002 5.31544 23.5974 0 23.5974 0C23.5974 3.22327 18.4432 7.57047 10.47 11.1141Z" fill="url(#paint3_linear_20_195)"/>
<g filter="url(#filter1_f_20_195)">
<path d="M3.8977 16.4067C3.44509 16.8474 3.22711 17.1329 3.14111 17.1544C3.31199 16.9347 3.57166 16.678 3.8977 16.4067C5.14065 15.1965 8.15305 12.8156 15.0606 11.5168C17.3156 11.0872 18.8458 9.74497 20.8592 8.05369C22.8726 6.36242 23.5974 3.0604 23.5974 0C23.5974 0 24.8055 6.36242 21.0203 10.2282C17.235 14.094 8.61762 13.8523 6.92633 14.5772C5.74769 15.0823 4.64729 15.783 3.8977 16.4067Z" fill="#B4162E" fill-opacity="0.6"/>
</g>
<g filter="url(#filter2_f_20_195)">
<path d="M10.6311 11.7584C8.61766 12.7248 7.73173 13.3691 4.51025 15.4631C6.44314 14.255 6.68475 14.4161 10.2284 12.4832C15.4633 9.8255 16.5908 13.5302 20.376 9.66443C24.1612 5.79866 23.5975 0 23.5975 0C23.5975 3.0604 23.0337 5.63758 21.0203 7.32886C19.0069 9.02013 12.6445 10.7919 10.6311 11.7584Z" fill="#4C2FA9"/>
</g>
<path d="M12.1613 10.6309C2.73846 12.4027 -0.0803337 20.7248 0.000203214 24C0.241807 20.8591 2.98006 17.2349 6.52369 15.302C11.7586 12.6443 17.2351 14.094 21.0203 10.2282C24.8056 6.36242 23.5975 0 23.5975 0C23.5975 3.0604 22.47 5.95973 20.4566 7.65101C18.4431 9.34228 14.4163 10.2013 12.1613 10.6309Z" fill="url(#paint4_linear_20_195)"/>
</g>
<defs>
<filter id="filter0_f_20_195" x="-63.9272" y="-66.9875" width="154.53" height="151.29" filterUnits="userSpaceOnUse" color-interpolation-filters="sRGB">
<feFlood flood-opacity="0" result="BackgroundImageFix"/>
<feBlend mode="normal" in="SourceGraphic" in2="BackgroundImageFix" result="shape"/>
<feGaussianBlur stdDeviation="33.6951" result="effect1_foregroundBlur_20_195"/>
</filter>
<filter id="filter1_f_20_195" x="-17.0759" y="-20.217" width="61.0737" height="57.5884" filterUnits="userSpaceOnUse" color-interpolation-filters="sRGB">
<feFlood flood-opacity="0" result="BackgroundImageFix"/>
<feBlend mode="normal" in="SourceGraphic" in2="BackgroundImageFix" result="shape"/>
<feGaussianBlur stdDeviation="10.1085" result="effect1_foregroundBlur_20_195"/>
</filter>
<filter id="filter2_f_20_195" x="-9.52935" y="-14.0396" width="47.1959" height="43.5423" filterUnits="userSpaceOnUse" color-interpolation-filters="sRGB">
<feFlood flood-opacity="0" result="BackgroundImageFix"/>
<feBlend mode="normal" in="SourceGraphic" in2="BackgroundImageFix" result="shape"/>
<feGaussianBlur stdDeviation="7.0198" result="effect1_foregroundBlur_20_195"/>
</filter>
<linearGradient id="paint0_linear_20_195" x1="6.20134" y1="15.3825" x2="5.63758" y2="23.7584" gradientUnits="userSpaceOnUse">
<stop stop-color="#FD5200"/>
<stop offset="0.27225" stop-color="#FFDC38"/>
<stop offset="0.96259" stop-color="#F3FEAB"/>
</linearGradient>
<linearGradient id="paint1_linear_20_195" x1="15.6243" y1="6.36242" x2="-0.241433" y2="17.7987" gradientUnits="userSpaceOnUse">
<stop stop-color="#0C64CC"/>
<stop offset="0.28457" stop-color="#1F9FE3"/>
<stop offset="0.485108" stop-color="#1B9DEB"/>
<stop offset="0.756932" stop-color="#72F07F"/>
<stop offset="0.858448" stop-color="#DBFEC8"/>
<stop offset="0.991306" stop-color="#F6F9B1"/>
</linearGradient>
<linearGradient id="paint2_linear_20_195" x1="15.7081" y1="1.02443" x2="10.0673" y2="22.7919" gradientUnits="userSpaceOnUse">
<stop offset="0.407169" stop-color="#9E010A"/>
<stop offset="0.624404" stop-color="#FC56A4"/>
<stop offset="0.688975" stop-color="#F2A780"/>
<stop offset="0.743082" stop-color="#FFC78A"/>
</linearGradient>
<linearGradient id="paint3_linear_20_195" x1="23.1948" y1="3.94631" x2="16.4297" y2="-0.0805362" gradientUnits="userSpaceOnUse">
<stop stop-color="#4226A2"/>
<stop offset="0.322086" stop-color="#7357CB"/>
<stop offset="0.628334" stop-color="#3B8FE4"/>
</linearGradient>
<linearGradient id="paint4_linear_20_195" x1="23.9197" y1="3.14094" x2="0.322372" y2="21.5839" gradientUnits="userSpaceOnUse">
<stop stop-color="#7C4ADF"/>
<stop offset="0.345854" stop-color="#E251D8"/>
<stop offset="0.729692" stop-color="#FCDFBC"/>
<stop offset="0.831215" stop-color="#F6F8B0"/>
<stop offset="0.918555" stop-color="#FFFFF2"/>
<stop offset="0.98944" stop-color="#F6F8B0"/>
</linearGradient>
</defs>
</svg>
