<svg width="24" height="24" viewBox="0 0 24 24" fill="none" xmlns="http://www.w3.org/2000/svg">
<g clip-path="url(#clip0_22_277)">
<path d="M0 0H24V24H0V0Z" fill="url(#paint0_linear_22_277)"/>
<path d="M19.2 14.4702L16.8 13.0299V9.59994C16.8 9.49306 16.7436 9.39444 16.6512 9.34072L13.2 7.32772V4.4255L19.2 7.97122V14.4702ZM19.6527 7.54166L13.0527 3.64166C13.0071 3.61477 12.9552 3.60039 12.9023 3.59996C12.8494 3.59953 12.7972 3.61307 12.7512 3.63922C12.7053 3.66555 12.6672 3.70351 12.6406 3.74928C12.6141 3.79506 12.6001 3.84702 12.6 3.89994V7.49994C12.6 7.60644 12.6567 7.70516 12.7488 7.75916L16.2 9.77216V13.1999C16.2 13.3052 16.2555 13.403 16.3458 13.457L19.3458 15.257C19.3913 15.2844 19.4432 15.2992 19.4963 15.2999C19.5494 15.3006 19.6018 15.2872 19.6479 15.2609C19.6941 15.2348 19.7325 15.1968 19.7592 15.151C19.7859 15.1051 19.8 15.053 19.8 14.9999V7.79994C19.8 7.69372 19.7442 7.59556 19.6527 7.54166ZM12.1335 20.0589L5.1 16.3197V7.97122L11.1 4.4256V7.33522L7.93894 9.34681C7.89636 9.37391 7.8613 9.41132 7.83701 9.45556C7.81273 9.49981 7.8 9.54947 7.8 9.59994V14.6999C7.8 14.8119 7.86244 14.9144 7.96144 14.966L11.9974 17.066C12.084 17.111 12.1872 17.1114 12.2736 17.0664L16.1892 15.0432L18.5988 16.4892L12.1335 20.0589ZM19.3545 16.2425L16.3545 14.4425C16.3106 14.4162 16.2607 14.4016 16.2096 14.4C16.1584 14.3984 16.1077 14.41 16.0623 14.4335L12.1365 16.4619L8.4 14.5179V9.76466L11.5611 7.75306C11.6036 7.72597 11.6387 7.68856 11.663 7.64432C11.6873 7.60007 11.7 7.55041 11.7 7.49994V3.89994C11.7001 3.84699 11.6861 3.79497 11.6595 3.74916C11.633 3.70335 11.5948 3.66539 11.5488 3.63913C11.5028 3.61298 11.4506 3.59944 11.3977 3.59986C11.3448 3.60029 11.2929 3.61468 11.2473 3.64156L4.64728 7.54156C4.60239 7.56811 4.5652 7.60591 4.53937 7.65122C4.51354 7.69653 4.49997 7.74779 4.5 7.79994V16.4999C4.5 16.6106 4.56122 16.7127 4.659 16.7649L11.9952 20.6649C12.0393 20.6883 12.0886 20.7003 12.1385 20.6999C12.1884 20.6995 12.2375 20.6866 12.2812 20.6624L19.3452 16.7624C19.3913 16.737 19.4299 16.6998 19.4571 16.6547C19.4843 16.6095 19.4991 16.5581 19.5001 16.5054C19.501 16.4526 19.488 16.4006 19.4625 16.3545C19.4369 16.3083 19.3997 16.2697 19.3545 16.2425Z" fill="white"/>
</g>
<defs>
<linearGradient id="paint0_linear_22_277" x1="0" y1="2400" x2="2400" y2="0" gradientUnits="userSpaceOnUse">
<stop stop-color="#C8511B"/>
<stop offset="1" stop-color="#FF9900"/>
</linearGradient>
<clipPath id="clip0_22_277">
<rect width="24" height="24" fill="white"/>
</clipPath>
</defs>
</svg>
