<svg width="28" height="24" viewBox="0 0 28 24" fill="none" xmlns="http://www.w3.org/2000/svg">
<g clip-path="url(#clip0_22_345)">
<path d="M26.903 18.4302C25.4087 19.207 17.668 22.3815 16.02 23.2384C14.3721 24.0953 13.4566 24.0871 12.1547 23.4664C10.853 22.8457 2.61548 19.5269 1.13159 18.8194C0.390031 18.466 0 18.1675 0 17.8856V15.0628C0 15.0628 10.7242 12.7342 12.4555 12.1147C14.1867 11.4952 14.7874 11.4728 16.2607 12.0111C17.7342 12.5496 26.5439 14.1349 28 14.6668L27.9993 17.4497C27.9996 17.7288 27.6636 18.0349 26.903 18.4302Z" fill="#912626"/>
<path d="M26.9024 15.624C25.4082 16.4005 17.6678 19.5751 16.0198 20.4319C14.372 21.289 13.4565 21.2806 12.1547 20.6599C10.8528 20.0396 2.61568 16.7203 1.1319 16.0133C-0.351884 15.3058 -0.382946 14.8189 1.07458 14.2497C2.53212 13.6802 10.7241 10.4746 12.4556 9.85508C14.1868 9.23577 14.7874 9.21319 16.2606 9.75167C17.734 10.2899 25.4283 13.3446 26.8842 13.8764C28.3407 14.4089 28.3966 14.8473 26.9024 15.624Z" fill="#C6302B"/>
<path d="M26.903 13.8625C25.4087 14.6395 17.668 17.8138 16.02 18.671C14.3721 19.5277 13.4566 19.5194 12.1547 18.8987C10.8528 18.2783 2.61548 14.9592 1.13159 14.2517C0.390031 13.8983 0 13.6003 0 13.3183V10.4951C0 10.4951 10.7242 8.16666 12.4555 7.54713C14.1867 6.9276 14.7874 6.90513 16.2607 7.44349C17.7343 7.98186 26.544 9.56684 28 10.0989L27.9993 12.8821C27.9996 13.1611 27.6636 13.4672 26.903 13.8625Z" fill="#912626"/>
<path d="M26.9024 11.0566C25.4082 11.8333 17.6678 15.0076 16.0198 15.8648C14.372 16.7216 13.4565 16.7132 12.1547 16.0924C10.8528 15.4722 2.61568 12.153 1.1319 11.4458C-0.351884 10.7386 -0.382946 10.2516 1.07458 9.68216C2.53212 9.11303 10.7242 5.90717 12.4556 5.28776C14.1868 4.66834 14.7874 4.64586 16.2606 5.18423C17.734 5.72248 25.4283 8.77692 26.8842 9.30896C28.3407 9.84132 28.3966 10.2799 26.9024 11.0566Z" fill="#C6302B"/>
<path d="M26.903 9.12572C25.4087 9.90244 17.668 13.077 16.02 13.9342C14.3721 14.791 13.4566 14.7826 12.1547 14.1619C10.8528 13.5415 2.61548 10.2223 1.13159 9.51517C0.390031 9.16139 0 8.86324 0 8.58157V5.7583C0 5.7583 10.7242 3.42997 12.4555 2.81055C14.1867 2.19092 14.7874 2.16866 16.2607 2.70692C17.7343 3.24528 26.544 4.83026 28 5.3623L27.9993 8.14543C27.9996 8.42415 27.6636 8.73026 26.903 9.12572Z" fill="#912626"/>
<path d="M26.9023 6.31965C25.4081 7.09637 17.6676 10.2709 16.0197 11.1277C14.3718 11.9845 13.4564 11.9761 12.1546 11.3557C10.8528 10.735 2.61554 7.41601 1.13187 6.70877C-0.351801 6.00154 -0.382973 5.51455 1.07445 4.94521C2.53198 4.37597 10.7241 1.17055 12.4555 0.550918C14.1867 -0.0686089 14.7872 -0.0908634 16.2605 0.4475C17.7338 0.985864 25.4282 4.0403 26.8841 4.57234C28.3405 5.10426 28.3964 5.54292 26.9023 6.31965Z" fill="#C6302B"/>
<path d="M17.4214 3.57356L15.0141 3.82283L14.4752 5.11622L13.6048 3.67294L10.825 3.42378L12.8992 2.67771L12.2769 1.53247L14.2188 2.29L16.0495 1.69218L15.5547 2.87636L17.4214 3.57356ZM14.3315 9.84825L9.83867 7.98967L16.2765 7.00403L14.3315 9.84825ZM8.10256 4.29247C10.0029 4.29247 11.5435 4.88811 11.5435 5.62273C11.5435 6.35756 10.0029 6.95309 8.10256 6.95309C6.20217 6.95309 4.66162 6.35745 4.66162 5.62273C4.66162 4.88811 6.20217 4.29247 8.10256 4.29247Z" fill="white"/>
<path d="M20.2666 3.927L24.0768 5.42875L20.2699 6.92907L20.2666 3.927Z" fill="#621B1C"/>
<path d="M16.0513 5.59009L20.2666 3.927L20.2699 6.92907L19.8565 7.09031L16.0513 5.59009Z" fill="#9A2928"/>
</g>
<defs>
<clipPath id="clip0_22_345">
<rect width="28" height="24" fill="white"/>
</clipPath>
</defs>
</svg>
