<svg width="27" height="24" viewBox="0 0 27 24" fill="none" xmlns="http://www.w3.org/2000/svg">
<g clip-path="url(#clip0_22_372)">
<path d="M8.22287 8.59394L13.3455 5.60279C13.4085 5.566 13.48 5.54663 13.5527 5.54663C13.6255 5.54663 13.697 5.566 13.76 5.60279L18.8826 8.59394C18.9456 8.63073 18.9979 8.68364 19.0343 8.74736C19.0707 8.81107 19.0898 8.88335 19.0898 8.95693V14.9392C19.0898 15.0889 19.0107 15.2272 18.8826 15.3022L13.76 18.2934C13.697 18.3301 13.6255 18.3495 13.5527 18.3495C13.48 18.3495 13.4085 18.3301 13.3455 18.2934L8.22287 15.3022C8.15987 15.2654 8.10755 15.2125 8.07117 15.1488C8.03479 15.0851 8.01563 15.0128 8.01562 14.9392V8.95682C8.01573 8.80706 8.09473 8.66893 8.22287 8.59394Z" fill="#8080F2"/>
<path d="M26.833 11.4578L20.7059 0.677333C20.4833 0.287573 20.0722 0 19.6272 0H7.37285C6.92777 0 6.51644 0.287573 6.2939 0.677333L0.166904 11.434C-0.0556348 11.8239 -0.0556348 12.3159 0.166904 12.7058L6.2939 23.398C6.51644 23.7877 6.92777 23.987 7.37285 23.987H19.627C20.0721 23.987 20.4833 23.7937 20.7058 23.4038L26.8329 12.6943C27.0556 12.3046 27.0556 11.8476 26.8329 11.4578M21.7593 16.6418C21.7593 16.8002 21.665 16.9469 21.5292 17.0262L13.7246 21.5802C13.6574 21.6191 13.5813 21.6396 13.5038 21.6396C13.4264 21.6396 13.3503 21.6191 13.2831 21.5802L5.47251 17.0262C5.33677 16.9469 5.24174 16.8003 5.24174 16.6417V7.53365C5.24174 7.37504 5.3354 7.22859 5.47124 7.14923L13.2754 2.5952C13.3426 2.55618 13.4186 2.53564 13.4961 2.53564C13.5735 2.53564 13.6496 2.55618 13.7168 2.5952L21.5278 7.14923C21.6638 7.22859 21.7593 7.37504 21.7593 7.53365V16.6418Z" fill="#4B32C3"/>
</g>
<defs>
<clipPath id="clip0_22_372">
<rect width="27" height="24" fill="white"/>
</clipPath>
</defs>
</svg>
