<svg width="30" height="24" viewBox="0 0 30 24" fill="none" xmlns="http://www.w3.org/2000/svg">
<g clip-path="url(#clip0_22_389)">
<path d="M11.7693 13.2918C11.8784 11.3757 12.8313 9.68776 14.2689 8.4911C15.6787 7.3158 17.5762 6.59741 19.6467 6.59741C21.715 6.59741 23.6126 7.3158 25.0235 8.4911C26.46 9.68764 27.4129 11.3757 27.5231 13.2897C27.6321 15.2584 26.8284 17.0873 25.4186 18.4429C23.9811 19.8219 21.9363 20.6871 19.6467 20.6871C17.3571 20.6871 15.3083 19.8219 13.8717 18.4429C12.4608 17.0871 11.6592 15.2583 11.7693 13.2918Z" fill="white"/>
<path d="M15.6057 13.4627C15.6616 12.4796 16.1507 11.6134 16.8882 10.9995C17.6116 10.3965 18.5852 10.0278 19.6476 10.0278C20.7089 10.0278 21.6826 10.3965 22.4065 10.9995C23.1436 11.6134 23.6325 12.4796 23.689 13.4618C23.745 14.4719 23.3327 15.4103 22.6092 16.1058C21.8716 16.8134 20.8225 17.2574 19.6476 17.2574C18.4728 17.2574 17.4216 16.8134 16.6844 16.1058C15.9606 15.4103 15.5493 14.4719 15.6057 13.4627Z" fill="#265787"/>
<path d="M9.18878 15.4823C9.19581 15.8677 9.32061 16.617 9.508 17.202C9.90163 18.4404 10.5694 19.5862 11.4985 20.5958C12.4521 21.6337 13.6262 22.4673 14.9825 23.0592C16.408 23.6807 17.9525 23.9975 19.5568 23.9949C21.1585 23.9927 22.7032 23.6698 24.1287 23.0435C25.4849 22.4459 26.6579 21.6087 27.6099 20.5703C28.5385 19.5564 29.2052 18.4087 29.6 17.1703C29.7984 16.5445 29.9238 15.9095 29.9741 15.2722C30.0233 14.6435 30.0025 14.0115 29.9122 13.3873C29.7355 12.1629 29.3052 11.0142 28.6427 9.96692C28.0369 9.00462 27.2559 8.16219 26.3272 7.45304L26.3293 7.45154L16.9578 0.366348C16.9493 0.360117 16.9424 0.353425 16.9333 0.347656C16.3186 -0.117114 15.2845 -0.115498 14.6083 0.350194C13.9247 0.821194 13.8464 1.60016 14.4548 2.09135L14.4523 2.094L18.361 5.22369L6.44741 5.23616H6.43147C5.44675 5.23731 4.50022 5.87342 4.31272 6.67731C4.12018 7.49631 4.78909 8.17569 5.81296 8.17939L5.81132 8.18296L11.85 8.17142L1.07436 16.3154C1.06065 16.3253 1.04577 16.3357 1.03311 16.3456C0.0166279 17.112 -0.311966 18.3864 0.328229 19.1928C0.978034 20.013 2.35967 20.0145 3.38671 19.1976L9.26764 14.4586C9.26764 14.4586 9.18186 15.0983 9.18878 15.4823ZM24.3007 17.6245C23.089 18.8401 21.3924 19.5293 19.5569 19.533C17.7186 19.5361 16.0222 18.853 14.8105 17.6397C14.2183 17.0483 13.7835 16.3679 13.5151 15.6432C13.2512 14.93 13.1497 14.1684 13.2178 13.4123C13.2818 12.6667 13.5073 11.9556 13.867 11.3121C14.2205 10.6797 14.7073 10.108 15.3084 9.62458C16.4862 8.67958 17.9858 8.16785 19.5541 8.16577C21.1242 8.16369 22.6227 8.67069 23.8017 9.61269C24.4017 10.094 24.888 10.6635 25.2415 11.295C25.6059 11.9419 25.828 12.6571 25.8934 13.3941C25.9605 14.1497 25.8586 14.9106 25.5949 15.6233C25.3261 16.3502 24.8927 17.0307 24.3007 17.6245Z" fill="#EA7600"/>
</g>
<defs>
<clipPath id="clip0_22_389">
<rect width="30" height="24" fill="white"/>
</clipPath>
</defs>
</svg>
