<svg width="32" height="24" viewBox="0 0 32 24" fill="none" xmlns="http://www.w3.org/2000/svg">
<g clip-path="url(#clip0_22_221)">
<path d="M27.5351 13.8141C26.4218 13.8199 25.4542 14.088 24.6441 14.4844C24.3467 13.8956 24.0494 13.3711 23.9971 12.9864C23.9387 12.5376 23.8688 12.2636 23.9387 11.7274C24.0087 11.1911 24.3234 10.4275 24.3176 10.3693C24.3117 10.311 24.2476 10.037 23.6064 10.0313C22.9653 10.0255 22.4116 10.1536 22.3474 10.3226C22.2833 10.4916 22.1609 10.8764 22.0793 11.2726C21.9686 11.8556 20.7971 13.9364 20.1268 15.0264C19.9111 14.601 19.7246 14.2279 19.6837 13.9306C19.6254 13.4819 19.5554 13.2079 19.6254 12.6716C19.6954 12.1354 20.0102 11.3719 20.0043 11.3135C19.9984 11.2553 19.9343 10.9813 19.2932 10.9755C18.6519 10.9696 18.0982 11.0979 18.0342 11.2669C17.9701 11.436 17.9001 11.8323 17.7661 12.217C17.6321 12.6018 16.0757 16.0758 15.6677 16.9733C15.5028 17.3365 15.3298 17.6961 15.1489 18.0516C15.1489 18.0516 15.1431 18.0691 15.1256 18.0983C15.0687 18.2097 15.0105 18.3205 14.9508 18.4305V18.4363C14.8633 18.5938 14.7701 18.7394 14.7234 18.7394C14.6884 18.7394 14.6243 18.3198 14.7351 17.7485C14.9682 16.542 15.5219 14.6651 15.5162 14.601C15.5162 14.566 15.6211 14.2396 15.1548 14.0705C14.7001 13.9015 14.5369 14.1813 14.4961 14.1813C14.4552 14.1813 14.4261 14.2804 14.4261 14.2804C14.4261 14.2804 14.9333 12.1704 13.4586 12.1704C12.5377 12.1704 11.2669 13.1788 10.6374 14.088C9.92183 14.4774 9.20683 14.868 8.49244 15.2596C8.14869 15.452 7.79306 15.6444 7.46081 15.825C7.43744 15.8018 7.41419 15.7725 7.39081 15.7493C5.60719 13.8433 2.30818 12.4968 2.44806 9.938C2.50056 9.00538 2.82106 6.55725 8.78394 3.58463C13.6917 1.16563 17.5971 1.83588 18.2732 3.32225C19.2407 5.444 16.1807 9.38425 11.1096 9.95538C9.17444 10.1711 8.16019 9.425 7.90381 9.14525C7.63569 8.85375 7.59481 8.83625 7.49569 8.89463C7.33256 8.98213 7.43744 9.24438 7.49569 9.39588C7.64731 9.79213 8.27094 10.4916 9.32594 10.8356C10.2586 11.1386 12.5259 11.3078 15.2713 10.2469C18.3431 9.05775 20.7446 5.75288 20.0393 2.98425C19.3339 0.174753 14.6709 -0.751997 10.2586 0.815879C7.63569 1.74863 4.79118 3.21738 2.74531 5.12925C0.314685 7.40238 -0.0700651 9.37838 0.0873099 10.2061C0.65281 13.1438 4.70381 15.0556 6.32419 16.472C6.24256 16.5186 6.16668 16.5595 6.10268 16.5945C5.29243 16.9966 2.20318 18.6111 1.43381 20.319C0.55956 22.2541 1.57381 23.6415 2.24406 23.8279C4.32493 24.405 6.46406 23.3675 7.61231 21.6538C8.76056 19.9401 8.62069 17.7135 8.09031 16.6935C8.08444 16.6819 8.07869 16.6701 8.06694 16.6585C8.27681 16.5361 8.49244 16.4079 8.70231 16.2855C9.08805 16.0575 9.47868 15.8378 9.87393 15.6268C9.67568 16.1689 9.52994 16.8159 9.46006 17.7485C9.37256 18.8444 9.82131 20.2665 10.4101 20.826C10.6724 21.071 10.9813 21.0768 11.1796 21.0768C11.8673 21.0768 12.1763 20.5055 12.5202 19.8294C12.9398 19.0018 13.3187 18.04 13.3187 18.04C13.3187 18.04 12.8466 20.6396 14.1289 20.6396C14.5952 20.6396 15.0673 20.0334 15.2772 19.7245V19.7303C15.2772 19.7303 15.2888 19.7128 15.3122 19.672C15.3588 19.5963 15.3879 19.5495 15.3879 19.5495V19.538C15.5744 19.2115 15.9942 18.4713 16.6178 17.2414C17.4222 15.656 18.1974 13.6743 18.1974 13.6743C18.1974 13.6743 18.2674 14.158 18.5063 14.9624C18.6463 15.4345 18.9376 15.9533 19.1708 16.4545C18.9843 16.7169 18.8677 16.8625 18.8677 16.8625L18.8736 16.8684C18.7219 17.0665 18.5588 17.2821 18.3781 17.4921C17.7427 18.2498 16.9851 19.1184 16.8801 19.3689C16.7576 19.6661 16.7868 19.8819 17.0201 20.0568C17.1891 20.185 17.4921 20.2024 17.8011 20.185C18.3723 20.1441 18.7744 20.0043 18.9726 19.9169C19.2816 19.8061 19.6429 19.637 19.9809 19.3864C20.6047 18.9259 20.9834 18.2673 20.9486 17.3989C20.9311 16.9209 20.7737 16.4429 20.5813 15.994C20.6397 15.9125 20.6921 15.8309 20.7504 15.7493C21.7354 14.3095 22.4991 12.7299 22.4991 12.7299C22.4991 12.7299 22.5691 13.2136 22.8079 14.0181C22.9246 14.4261 23.1636 14.8691 23.3733 15.3004C22.4466 16.0524 21.8753 16.9266 21.6713 17.4979C21.3042 18.5588 21.5897 19.0366 22.1318 19.1474C22.3766 19.1999 22.7263 19.0833 22.9828 18.9725C23.3092 18.8676 23.6939 18.687 24.0612 18.4188C24.6849 17.9584 25.2852 17.3171 25.2502 16.4488C25.2327 16.0524 25.1278 15.6618 24.9821 15.2829C25.7689 14.9566 26.7832 14.7759 28.0771 14.9274C30.8517 15.2538 31.3996 16.9849 31.2946 17.7136C31.1897 18.4421 30.6068 18.8385 30.4146 18.9609C30.2221 19.0834 30.1581 19.1241 30.1756 19.2115C30.1988 19.3398 30.2921 19.334 30.4553 19.3106C30.6827 19.2699 31.9126 18.7219 31.9649 17.3813C32.0524 15.6676 30.4203 13.7966 27.5351 13.8141ZM6.13181 21.0301C5.21081 22.0326 3.92856 22.4115 3.37481 22.091C2.78031 21.747 3.01344 20.2665 4.14419 19.2058C4.83194 18.5588 5.71793 17.9583 6.30668 17.5911C6.44068 17.5095 6.63893 17.393 6.87793 17.2473C6.91868 17.2239 6.94206 17.2123 6.94206 17.2123L7.08193 17.1248C7.49568 18.6403 7.09944 19.9751 6.13181 21.0301ZM12.8349 16.472C12.5143 17.2531 11.8441 19.2524 11.4361 19.1416C11.0863 19.0484 10.8706 17.5329 11.3661 16.0349C11.6167 15.2829 12.1471 14.3853 12.4561 14.0356C12.9573 13.476 13.5111 13.2894 13.6451 13.5169C13.8142 13.8141 13.0331 15.9824 12.8349 16.472ZM18.3664 19.1183C18.2323 19.1883 18.1042 19.2349 18.0458 19.1999C18.0051 19.1765 18.1042 19.0833 18.1042 19.0833C18.1042 19.0833 18.7978 18.3373 19.0717 17.9991C19.2292 17.801 19.4156 17.5679 19.6138 17.3055V17.3813C19.6138 18.2731 18.7511 18.8735 18.3663 19.1183M22.6329 18.1449C22.5338 18.0749 22.5513 17.8418 22.8836 17.1131C23.0118 16.8275 23.3148 16.3496 23.8337 15.8891C23.8919 16.0756 23.9328 16.2564 23.9269 16.4254C23.9211 17.5504 23.1168 17.97 22.6329 18.1449Z" fill="#CD6799"/>
</g>
<defs>
<clipPath id="clip0_22_221">
<rect width="32" height="24" fill="white"/>
</clipPath>
</defs>
</svg>
