<svg width="23" height="24" viewBox="0 0 23 24" fill="none" xmlns="http://www.w3.org/2000/svg">
<path d="M11.4899 23.9393L4.57154 22.0165L3.02979 4.70459H19.9707L18.4273 22.0138L11.4899 23.9393Z" fill="#264DE4"/>
<path d="M17.1058 20.9117L18.4246 6.12012H11.5V22.4676L17.1058 20.9117Z" fill="#2965F1"/>
<path d="M6.5641 12.5409L6.75415 14.6641H11.5001V12.5409H6.5641ZM6.18213 8.24341L6.37491 10.3666H11.5001V8.24341H6.18213ZM11.5001 18.0552L11.4908 18.0576L9.12891 17.4191L8.9779 15.7258H6.84891L7.14602 19.0596L11.4904 20.2669L11.5001 20.2642V18.0552Z" fill="#EBEBEB"/>
<path d="M7.0166 0H9.5852V1.07541H8.09079V2.15083H9.58533V3.22617H7.0166V0ZM10.099 0H12.6676V0.935136H11.1732V1.12215H12.6676V3.27297H10.099V2.29097H11.5935V2.10396H10.0989L10.099 0ZM13.1814 0H15.7501V0.935136H14.2556V1.12215H15.7501V3.27297H13.1814V2.29097H14.6759V2.10396H13.1815L13.1814 0Z" fill="black"/>
<path d="M16.4225 12.5409L16.8054 8.24341H11.4927V10.3666H14.4812L14.2882 12.5409H11.4927V14.6641H14.1043L13.8581 17.4178L11.4927 18.0569V20.2659L15.8405 19.0596L15.8724 18.7008L16.3708 13.111L16.4225 12.5409Z" fill="white"/>
</svg>
