<svg width="21" height="24" viewBox="0 0 21 24" fill="none" xmlns="http://www.w3.org/2000/svg">
<g clip-path="url(#clip0_22_355)">
<path fill-rule="evenodd" clip-rule="evenodd" d="M12.5155 2.74692L17.3674 5.59275C17.5074 5.44217 17.6682 5.31295 17.8446 5.20908C18.8508 4.62142 20.1343 4.97033 20.7187 5.99258C21.2972 7.01483 20.9538 8.31858 19.9475 8.91233C19.7724 9.01478 19.5836 9.09112 19.3871 9.139V14.8328C19.5815 14.8807 19.7682 14.9565 19.9415 15.0579C20.9538 15.6517 21.2972 16.9555 20.7128 17.9778C20.1343 18.9999 18.8448 19.3488 17.8385 18.7613C17.6436 18.6476 17.468 18.5028 17.3185 18.3323L12.4962 21.1607C12.5668 21.3779 12.6026 21.6052 12.6024 21.834C12.6024 23.0093 11.6625 23.9703 10.4995 23.9703C9.33658 23.9703 8.39666 23.0153 8.39666 21.834C8.39666 21.624 8.42636 21.4212 8.48173 21.2296L3.63122 18.3846C3.4927 18.5322 3.33421 18.659 3.16053 18.7613C2.14826 19.3488 0.864799 18.9999 0.286314 17.9778C-0.292088 16.9555 0.0513767 15.6517 1.05757 15.0579C1.23091 14.9565 1.41757 14.8807 1.61194 14.8327V9.139C1.41543 9.09112 1.22671 9.01478 1.05158 8.91233C0.0453063 8.32475 -0.298158 7.01483 0.280326 5.99258C0.85881 4.97033 2.14818 4.62142 3.15445 5.20908C3.32994 5.31239 3.4899 5.44079 3.62942 5.59033L8.48263 2.74375C8.42541 2.54649 8.39646 2.34189 8.39666 2.13625C8.39666 0.955 9.33658 0 10.4995 0C11.6625 0 12.6024 0.954917 12.6024 2.13625C12.6024 2.34858 12.5721 2.5535 12.5155 2.74692ZM12.0101 3.62375L16.8734 6.47625C16.796 6.75126 16.7738 7.03927 16.8081 7.32317C16.8425 7.60707 16.9327 7.88106 17.0734 8.12883C17.3694 8.652 17.8517 8.99883 18.3869 9.134V14.8348C18.3596 14.8416 18.3324 14.8489 18.3055 14.8568L11.9535 3.68083C11.9727 3.66217 11.9916 3.64308 12.0101 3.62375ZM9.04684 3.68217L2.695 14.858C2.66753 14.8499 2.63991 14.8424 2.61215 14.8355V9.13408C3.1474 8.99892 3.62966 8.65208 3.92571 8.12892C4.06668 7.88067 4.15695 7.60611 4.19116 7.32163C4.22537 7.03715 4.2028 6.74859 4.1248 6.47317L8.98679 3.6215C9.00643 3.64211 9.02644 3.66239 9.04684 3.68217ZM11.0871 4.18833L17.4375 15.3617C17.292 15.5027 17.1673 15.6643 17.0673 15.8414C16.9675 16.0175 16.8928 16.2071 16.8456 16.4046H4.1536C4.10633 16.2071 4.03165 16.0175 3.93178 15.8414C3.8314 15.6655 3.70695 15.5049 3.56215 15.3644L9.91375 4.18883C10.1042 4.24455 10.3014 4.27272 10.4995 4.2725C10.7035 4.2725 10.9007 4.24317 11.0871 4.18833ZM12.0547 20.3948L16.8865 17.5608C16.872 17.5146 16.8591 17.4678 16.8477 17.4207H4.15089C4.14416 17.4484 4.13689 17.4759 4.12907 17.5033L8.9845 20.3513C9.18058 20.1441 9.41588 19.9795 9.67625 19.8672C9.93662 19.7549 10.2167 19.6972 10.4995 19.6978C10.7923 19.6972 11.0819 19.759 11.3498 19.879C11.6176 19.9991 11.8577 20.1748 12.0547 20.3948Z" fill="#E535AB"/>
</g>
<defs>
<clipPath id="clip0_22_355">
<rect width="21" height="24" fill="white"/>
</clipPath>
</defs>
</svg>
