<svg width="24" height="24" viewBox="0 0 24 24" fill="none" xmlns="http://www.w3.org/2000/svg">
<g clip-path="url(#clip0_22_324)">
<path d="M11.8985 0.00683594C5.82045 0.00683594 6.19995 2.65295 6.19995 2.65295L6.2067 5.39441H12.0068V6.21747H3.90298C3.90298 6.21747 0.0136719 5.77465 0.0136719 11.9314C0.0136719 18.0882 3.40836 17.8699 3.40836 17.8699H5.4343V15.0129C5.4343 15.0129 5.32508 11.6049 8.7748 11.6049H14.5275C14.5275 11.6049 17.7595 11.6573 17.7595 8.46895V3.19724C17.7595 3.19724 18.2504 0.00683594 11.8985 0.00683594ZM8.70027 1.85041C8.83733 1.85029 8.97307 1.8773 9.09972 1.9299C9.22637 1.9825 9.34145 2.05965 9.43836 2.15695C9.53528 2.25425 9.61213 2.36978 9.66453 2.49692C9.71692 2.62407 9.74383 2.76034 9.7437 2.89794C9.74383 3.03554 9.71692 3.17181 9.66453 3.29896C9.61213 3.42611 9.53528 3.54164 9.43836 3.63893C9.34145 3.73623 9.22637 3.81339 9.09972 3.86599C8.97307 3.91858 8.83733 3.9456 8.70027 3.94547C8.56321 3.9456 8.42747 3.91858 8.30081 3.86599C8.17416 3.81339 8.05909 3.73623 7.96217 3.63893C7.86525 3.54164 7.7884 3.42611 7.736 3.29896C7.68361 3.17181 7.65671 3.03554 7.65683 2.89794C7.65671 2.76034 7.68361 2.62407 7.736 2.49692C7.7884 2.36978 7.86525 2.25425 7.96217 2.15695C8.05909 2.05965 8.17416 1.9825 8.30081 1.9299C8.42747 1.8773 8.56321 1.85029 8.70027 1.85041Z" fill="url(#paint0_linear_22_324)"/>
<path d="M12.0711 23.9177C18.1491 23.9177 17.7696 21.2716 17.7696 21.2716L17.7629 18.5302H11.9627V17.7072H20.0665C20.0665 17.7072 23.9558 18.15 23.9558 11.9931C23.9558 5.83632 20.5611 6.05467 20.5611 6.05467H18.5352V8.91161C18.5352 8.91161 18.6444 12.3196 15.1947 12.3196H9.442C9.442 12.3196 6.20996 12.2672 6.20996 15.4556V20.7274C6.20996 20.7274 5.71918 23.9177 12.071 23.9177M15.2692 22.0743C15.1322 22.0745 14.9964 22.0475 14.8698 21.9949C14.7431 21.9423 14.628 21.8651 14.5311 21.7678C14.4342 21.6705 14.3573 21.555 14.305 21.4278C14.2526 21.3007 14.2257 21.1644 14.2258 21.0268C14.2256 20.8892 14.2525 20.7529 14.3049 20.6258C14.3573 20.4986 14.4342 20.3831 14.5311 20.2858C14.628 20.1885 14.7431 20.1113 14.8697 20.0587C14.9964 20.0061 15.1321 19.9791 15.2692 19.9792C15.4063 19.9791 15.542 20.0061 15.6687 20.0587C15.7953 20.1113 15.9104 20.1884 16.0073 20.2857C16.1042 20.383 16.1811 20.4985 16.2335 20.6257C16.2859 20.7528 16.3128 20.8891 16.3127 21.0267C16.3128 21.1643 16.2859 21.3006 16.2335 21.4277C16.1811 21.5549 16.1042 21.6704 16.0073 21.7677C15.9104 21.865 15.7953 21.9422 15.6687 21.9948C15.542 22.0474 15.4063 22.0745 15.2692 22.0743Z" fill="url(#paint1_linear_22_324)"/>
</g>
<defs>
<linearGradient id="paint0_linear_22_324" x1="230.096" y1="215.072" x2="1421.19" y2="1389.68" gradientUnits="userSpaceOnUse">
<stop stop-color="#387EB8"/>
<stop offset="1" stop-color="#366994"/>
</linearGradient>
<linearGradient id="paint1_linear_22_324" x1="345.812" y1="373.677" x2="1624.68" y2="1577.91" gradientUnits="userSpaceOnUse">
<stop stop-color="#FFE052"/>
<stop offset="1" stop-color="#FFC331"/>
</linearGradient>
<clipPath id="clip0_22_324">
<rect width="24" height="24" fill="white"/>
</clipPath>
</defs>
</svg>
