<svg width="24" height="24" viewBox="0 0 24 24" fill="none" xmlns="http://www.w3.org/2000/svg">
<path d="M15.7742 6L14.3657 9L15.0002 10.4985H16.5002L17.1962 9L15.7742 6Z" fill="#F4511E"/>
<path d="M10.4998 1.5L11.9998 7.5H13.4998L15.7738 3L17.9998 7.5H19.4998L20.9998 1.5H10.4998ZM20.9998 15H19.4998C18.7237 14.9412 17.9943 14.6063 17.4439 14.0559C16.8935 13.5055 16.5586 12.7761 16.4998 12H14.9998C14.9424 12.7977 14.5816 13.5431 13.9915 14.0829C13.4014 14.6228 12.627 14.9161 11.8273 14.9025C10.6858 16.6875 7.96107 18.1147 5.99982 18.7635C5.25678 18.4798 4.63082 17.9543 4.22269 17.2716C3.81456 16.589 3.648 15.7888 3.74982 15H2.99982C-0.538676 20.9835 5.29782 24.9143 11.2161 20.9213C14.1373 18.3728 22.2433 20.6152 20.9998 15Z" fill="#F4511E"/>
<path d="M5.25 13.5C6.49264 13.5 7.5 12.4926 7.5 11.25C7.5 10.0074 6.49264 9 5.25 9C4.00736 9 3 10.0074 3 11.25C3 12.4926 4.00736 13.5 5.25 13.5Z" fill="#F4511E"/>
<path d="M20.25 13.5C21.4926 13.5 22.5 12.4926 22.5 11.25C22.5 10.0074 21.4926 9 20.25 9C19.0074 9 18 10.0074 18 11.25C18 12.4926 19.0074 13.5 20.25 13.5Z" fill="#F4511E"/>
<path d="M12 13.5C12.8284 13.5 13.5 12.8284 13.5 12C13.5 11.1716 12.8284 10.5 12 10.5C11.1716 10.5 10.5 11.1716 10.5 12C10.5 12.8284 11.1716 13.5 12 13.5Z" fill="#F4511E"/>
</svg>
