<svg width="24" height="24" viewBox="0 0 24 24" fill="none" xmlns="http://www.w3.org/2000/svg">
<g clip-path="url(#clip0_15_80)">
<path d="M17.621 0L5.977 0.004C4.607 0.004 3.221 0.349 2.215 1.114C1.50969 1.62654 0.95391 2.31799 0.605 3.117C0.233 3.93 0 5.02 0 5.951L0.012 18.151C0.014 19.755 0.491 21.208 1.473 22.263C2.457 23.319 3.935 23.946 5.804 23.954L16.856 24C18.116 24.005 19.951 23.964 21.159 23.286C22.234 22.681 23.184 21.73 23.656 20.302C23.934 19.462 24.001 18.218 24 17.155L23.979 6.025C23.977 5.137 23.829 4.002 23.432 3.091C23.007 2.115 22.251 1.276 21.11 0.666C20.353 0.26 19.122 0 17.621 0ZM17.621 0.93C18.999 0.93 20.159 1.225 20.661 1.495C21.638 2.018 22.205 2.661 22.55 3.455C22.865 4.176 23.02 5.248 23.023 6.027L23.041 17.157C23.043 18.17 22.944 19.414 22.743 20.017C22.347 21.219 21.597 21.963 20.68 22.479C19.866 22.936 18.068 23.072 16.86 23.067L5.81 23.023C4.153 23.016 2.978 22.489 2.184 21.637C1.392 20.786 0.972 19.577 0.972 18.152L0.999 5.95C0.999 5.121 1.195 4.123 1.473 3.513C1.818 2.756 2.223 2.306 2.838 1.839C3.585 1.27 4.868 0.97 6.08 0.97L17.621 0.93ZM11.961 4.353C9.985 4.442 8.757 6.011 8.747 7.643C8.766 9.086 10.382 11.124 11.631 12.173C11.751 12.272 11.785 12.282 11.961 12.353C12.023 12.378 12.159 12.306 12.288 12.218C12.648 11.973 13.281 11.271 13.936 10.48C14.3504 9.96555 14.697 9.3999 14.967 8.797C15.376 7.907 15.228 7.198 15.202 6.909C15.0175 6.27161 14.6772 5.69015 14.212 5.217C13.5944 4.66043 12.7924 4.35259 11.961 4.353ZM16.133 12.275C15.0257 12.3009 13.93 12.5069 12.889 12.885C12.739 12.943 12.629 12.985 12.515 13.055C12.458 13.091 12.405 13.19 12.41 13.347C12.427 13.78 12.7 14.625 13.034 15.617C13.418 16.752 14.1 17.887 14.878 18.357C15.2543 18.5829 15.6728 18.7298 16.1078 18.7886C16.5428 18.8474 16.9852 18.8169 17.408 18.699C18.24 18.456 19.003 17.831 19.37 17.153C20.356 15.335 19.56 13.605 18.249 12.736C17.802 12.44 17.116 12.291 16.359 12.276L16.133 12.275ZM7.701 12.313C7.4496 12.3129 7.19843 12.3286 6.949 12.36C6.353 12.438 6.017 12.633 5.659 12.87C4.96257 13.3256 4.47251 14.0361 4.294 14.849C4.219 15.401 4.208 15.902 4.327 16.356C4.76 17.745 5.653 18.578 7.174 18.808C7.81 18.836 8.544 18.745 9.164 18.358C10.433 17.576 11.244 15.188 11.576 13.616C11.629 13.44 11.611 13.259 11.563 13.196C11.558 13.129 11.519 13.083 11.373 13.013C10.975 12.821 10.053 12.596 8.998 12.413C8.56926 12.3431 8.13538 12.3097 7.701 12.313Z" fill="#9F224E"/>
</g>
<defs>
<clipPath id="clip0_15_80">
<rect width="24" height="24" fill="white"/>
</clipPath>
</defs>
</svg>
