<svg width="24" height="24" viewBox="0 0 24 24" fill="none" xmlns="http://www.w3.org/2000/svg">
<g clip-path="url(#clip0_15_92)">
<path d="M24 2.344V21.656C23.9997 22.2776 23.7527 22.8736 23.3132 23.3132C22.8736 23.7527 22.2776 23.9997 21.656 24H2.344C1.72241 23.9997 1.12636 23.7527 0.686834 23.3132C0.247307 22.8736 0.000265012 22.2776 0 21.656L0 2.344C0.000265012 1.72241 0.247307 1.12636 0.686834 0.686834C1.12636 0.247307 1.72241 0.000265012 2.344 0L21.656 0C22.2776 0.000265012 22.8736 0.247307 23.3132 0.686834C23.7527 1.12636 23.9997 1.72241 24 2.344ZM10.672 1.758L10.262 2.467L15.283 11.16L20.713 1.758H10.672ZM12.885 9.46H11.12C10.9674 9.46464 10.8185 9.50801 10.6873 9.58603C10.5561 9.66405 10.4469 9.77416 10.37 9.906L9.445 11.511L9.438 11.522C9.36411 11.6554 9.32534 11.8055 9.32534 11.958C9.32534 12.1105 9.36411 12.2606 9.438 12.394L10.362 13.993L10.372 14.01C10.4516 14.1392 10.5625 14.2462 10.6945 14.321C10.8265 14.3958 10.9753 14.4361 11.127 14.438C11.129 14.438 12.305 14.439 12.892 14.436C13.0438 14.4333 13.1924 14.3919 13.3237 14.3156C13.455 14.2393 13.5646 14.1306 13.642 14C13.954 13.4613 14.265 12.9223 14.575 12.383C14.6482 12.2507 14.6861 12.1019 14.6851 11.9507C14.684 11.7996 14.644 11.6512 14.569 11.52L14.561 11.507L13.64 9.912L13.635 9.904C13.5578 9.77253 13.4485 9.66282 13.3173 9.58516C13.1861 9.5075 13.0374 9.46443 12.885 9.46ZM2.36 22.18L9.699 9.475H6.215L1.758 17.192L1.76 21.374C1.77351 21.5513 1.83706 21.7212 1.94327 21.8639C2.04948 22.0066 2.19398 22.1162 2.36 22.18ZM14.204 22.242L8.725 12.756L3.24 22.242H14.204ZM12.926 8.676L9.801 3.266L6.676 8.676H12.926ZM22.242 15.236H11.08L15.126 22.242H21.323C21.5681 22.2365 21.8014 22.1355 21.9731 21.9604C22.1448 21.7854 22.2413 21.5502 22.242 21.305V15.236ZM21.607 1.808L14.312 14.438H22.242V2.695C22.2416 2.49947 22.1801 2.30895 22.0663 2.14997C21.9525 1.99098 21.7919 1.87144 21.607 1.808Z" fill="#8A44D2"/>
</g>
<defs>
<clipPath id="clip0_15_92">
<rect width="24" height="24" fill="white"/>
</clipPath>
</defs>
</svg>
