<svg width="24" height="24" viewBox="0 0 24 24" fill="none" xmlns="http://www.w3.org/2000/svg">
<g clip-path="url(#clip0_22_381)">
<path d="M18.375 0H5.625C2.5184 0 0 2.5184 0 5.625V18.375C0 21.4816 2.5184 24 5.625 24H18.375C21.4816 24 24 21.4816 24 18.375V5.625C24 2.5184 21.4816 0 18.375 0Z" fill="#330000"/>
<path d="M11.6002 14.2812H7.88016L7.12012 16.6312C7.10015 16.7212 7.02019 16.7812 6.93019 16.7712H5.05012C4.94016 16.7712 4.91016 16.7112 4.94016 16.5912L8.16019 7.32116C8.19019 7.22122 8.22019 7.11116 8.26012 6.99116C8.30016 6.78116 8.32012 6.56122 8.32012 6.34119C8.31019 6.29122 8.35012 6.24116 8.40019 6.23122H10.9901C11.0702 6.23122 11.1101 6.26122 11.1202 6.31119L14.7701 16.6112C14.8001 16.7212 14.7701 16.7712 14.6702 16.7712H12.5801C12.5102 16.7812 12.4402 16.7312 12.4202 16.6612L11.6002 14.2812ZM8.46019 12.2512H11.0002C10.9402 12.0412 10.8602 11.7912 10.7702 11.5312C10.6802 11.2612 10.5902 10.9712 10.5002 10.6712C10.4002 10.3612 10.3102 10.0612 10.2101 9.75116C10.1102 9.44122 10.0202 9.15116 9.94012 8.86119C9.86016 8.58125 9.79012 8.32119 9.72019 8.08119H9.70012C9.61012 8.51122 9.50015 8.94125 9.36019 9.37119C9.21019 9.85119 9.06019 10.3512 8.90015 10.8512C8.77103 11.3232 8.62427 11.7902 8.46019 12.2512ZM17.0002 7.98116C16.6702 7.99119 16.3502 7.86116 16.1102 7.63119C15.8802 7.38116 15.7602 7.05116 15.7702 6.71122C15.7602 6.37119 15.8902 6.05122 16.1302 5.82116C16.3702 5.5911 16.6902 5.47119 17.0202 5.47119C17.4102 5.47119 17.7102 5.59119 17.9302 5.82116C18.1518 6.06359 18.2702 6.38289 18.2602 6.71122C18.2702 7.05116 18.1502 7.38116 17.9102 7.63119C17.6802 7.87119 17.3402 8.00122 17.0002 7.98116ZM15.8802 16.6612V8.96122C15.8802 8.86119 15.9202 8.82116 16.0102 8.82116H17.9902C18.0802 8.82116 18.1202 8.87122 18.1202 8.96122V16.6612C18.1202 16.7712 18.0802 16.8212 17.9902 16.8212H16.0302C15.9302 16.8212 15.8802 16.7612 15.8802 16.6612Z" fill="#FF9A00"/>
</g>
<defs>
<clipPath id="clip0_22_381">
<rect width="24" height="24" fill="white"/>
</clipPath>
</defs>
</svg>
