<svg width="24" height="24" viewBox="0 0 24 24" fill="none" xmlns="http://www.w3.org/2000/svg">
<g clip-path="url(#clip0_22_315)">
<path d="M18.375 0H5.625C2.5184 0 0 2.5184 0 5.625V18.375C0 21.4816 2.5184 24 5.625 24H18.375C21.4816 24 24 21.4816 24 18.375V5.625C24 2.5184 21.4816 0 18.375 0Z" fill="url(#paint0_linear_22_315)"/>
<path d="M1.07677 12.1012L5.79277 14.0122V15.35L0.209961 12.7633V11.9784L1.07677 12.1012ZM5.79277 10.5316L1.08362 12.4698L0.210055 12.5654V11.7737L5.79268 9.19386L5.79277 10.5316ZM22.6284 12.3742L17.7759 10.4838V9.18018L23.6043 11.76V12.5586L22.6284 12.3742ZM17.7759 14.0395L22.6421 12.1081L23.6043 11.9647V12.7565L17.7759 15.3431V14.0395Z" fill="white"/>
<path fill-rule="evenodd" clip-rule="evenodd" d="M16.5074 5.72802C16.4804 6.15608 16.2875 6.60308 16.3412 7.01924C16.6781 7.61493 17.4195 7.7099 18.0311 7.75077C18.4548 7.82652 18.4495 7.54593 18.4211 7.23074L18.4262 5.71911C17.7866 5.72146 17.1467 5.71283 16.5074 5.72802ZM11.4635 6.92521C10.4221 7.10202 9.36652 7.59965 8.50018 8.19871C7.80287 8.74143 9.09877 9.26736 9.56893 9.3553C10.5149 9.36683 11.3538 8.72877 11.9752 8.06652C12.1781 7.78808 12.4315 7.3618 12.1766 7.03902C11.982 6.87027 11.6989 6.91115 11.4635 6.92521ZM13.6795 8.43983C12.8233 8.60296 12.0086 8.95583 11.2877 9.44718C10.7593 9.61311 10.3237 10.1933 10.9786 10.4841C11.6662 11.032 12.4632 10.8978 13.0965 10.5278C13.6764 10.1831 14.3028 9.75777 14.5711 9.10883C14.8246 8.39793 14.1707 8.37158 13.6795 8.43983ZM16.1085 11.1945C15.949 11.8605 15.2783 12.1633 14.9215 12.691C14.6297 13.076 14.7648 13.5294 15.097 13.8324C15.2587 14.1678 15.5422 14.3552 15.8462 14.0639C16.6292 13.5316 16.8458 12.4947 16.8133 11.5963C16.8711 11.2252 16.4454 11.5607 16.1085 11.1945ZM13.1288 12.4454C12.089 12.6233 11.0491 13.13 10.1823 13.7281C9.50949 14.2701 10.7767 14.7761 11.2507 14.8564C12.2142 14.8578 13.0736 14.2369 13.6828 13.5317C13.8946 13.2516 14.1514 12.7078 13.7319 12.4851C13.5443 12.4056 13.3265 12.429 13.1288 12.4454Z" fill="#B956A6"/>
<path fill-rule="evenodd" clip-rule="evenodd" d="M8.50004 8.19882C7.70035 8.51878 6.92898 8.90728 6.16716 9.31416C6.0256 9.84057 6.13913 10.4924 6.10248 11.0696C6.09966 13.443 6.10098 15.8165 6.1006 18.1898H7.86498C8.22123 17.8544 8.66748 17.6089 9.05448 17.3043C10.5445 16.2356 12.0341 15.1628 13.5222 14.0972C13.6317 14.1464 13.5616 13.453 13.3214 13.9346C12.7523 14.4702 11.9968 14.9108 11.1972 14.8677C10.7435 14.7185 10.012 14.4653 10.0074 13.9092C10.3269 13.5332 9.41813 14.1061 9.16951 14.1881C8.36119 14.5763 7.57201 15.0097 6.76201 15.3906C6.95663 15.1815 7.32076 14.9866 7.57894 14.7792C9.42329 13.4553 11.2672 12.1262 13.1159 10.8033C13.4715 10.5536 13.815 10.2813 14.1816 10.0479C14.215 10.1772 14.2779 9.42985 14.0052 9.88997C13.4495 10.4408 12.6998 10.8509 11.9093 10.8565C11.4646 10.7215 10.5175 10.3988 10.7284 9.82463C10.8312 9.62316 9.77326 10.2541 10.2407 9.89832C10.7382 9.53475 11.2397 9.17766 11.7411 8.81785C11.9943 8.79882 11.9404 7.85822 11.5963 8.46497C11.0184 8.97282 10.259 9.43744 9.46294 9.32728C9.01576 9.19857 8.47923 8.94928 8.31666 8.48166C8.26285 8.36935 8.61779 8.19432 8.50004 8.19882ZM11.8131 8.77941C11.8934 8.7331 11.7687 8.90625 11.8131 8.77941Z" fill="#FCCC44"/>
<path fill-rule="evenodd" clip-rule="evenodd" d="M16.8656 7.5704C16.616 8.76253 16.3431 10.0102 16.1084 11.1945C16.7826 12.0442 16.848 10.6577 16.9659 10.2656C17.1565 9.44615 17.3823 8.8274 17.4062 7.97897C17.4568 7.68937 17.1165 7.51406 16.8656 7.5704ZM17.6391 8.50518C17.6699 8.52815 17.6181 8.62734 17.6391 8.50518ZM16.8526 11.1784C16.885 11.2482 16.885 11.1084 16.8526 11.1784Z" fill="#62777F"/>
<path fill-rule="evenodd" clip-rule="evenodd" d="M17.3076 7.70526C17.518 8.8867 16.8212 10.322 16.5933 11.4359C17.1108 11.0551 17.5106 9.32732 17.6128 8.65101C17.6391 8.57367 17.6716 8.37904 17.6786 8.37201C17.7111 8.20785 18.0142 7.9297 18.0308 7.75073C18.2073 7.62623 17.1636 7.60626 17.3076 7.70526ZM16.8785 11.1782C16.846 11.2481 16.846 11.1083 16.8785 11.1782Z" fill="#4E5E67"/>
<path fill-rule="evenodd" clip-rule="evenodd" d="M8.51766 8.21841C8.22591 8.51054 8.33541 8.4392 8.55254 8.19629L8.51766 8.21841ZM11.6733 8.36307C11.3353 8.87091 10.1166 9.2956 9.9631 9.32851C10.6962 9.19116 11.3796 8.73507 11.8604 8.20088C11.784 8.23491 11.7386 8.31488 11.6733 8.36307ZM8.31723 8.52798C8.49938 8.96598 9.16173 9.25698 9.48357 9.32485C9.04416 9.18329 8.52695 8.93223 8.31723 8.52798ZM11.7869 8.78129C11.6949 8.88985 11.3674 9.05223 11.1947 9.2116C10.8243 9.48479 10.4411 9.73866 10.0749 10.0187C10.3081 10.0087 10.9914 9.49829 10.6411 10.0162C10.9379 10.527 11.5841 10.8822 12.1734 10.8498C12.9515 10.7276 13.669 10.2974 14.1849 9.6991C13.5587 10.3187 12.7309 10.9018 11.8149 10.8215C11.3715 10.7191 10.1601 10.0933 10.9704 9.65466C11.2562 9.41963 11.7489 9.29654 11.8046 8.88348C11.7929 8.83191 11.889 8.78157 11.7869 8.78129ZM9.56888 9.35532C9.86373 9.39385 9.86373 9.31688 9.56888 9.35532ZM14.1629 10.0608C12.993 10.8759 11.8401 11.7228 10.6803 12.5525C9.36591 13.4932 8.05716 14.4373 6.74316 15.3773C7.23723 15.2107 7.73223 14.8854 8.22301 14.6606C8.89894 14.3031 9.61163 14.0206 10.2441 13.5863C11.4945 12.8501 12.8169 12.1488 13.7787 11.0226C13.9886 10.7764 14.1991 10.3801 14.2085 10.1136C14.1782 10.1221 14.2012 10.007 14.1629 10.0608ZM10.1823 13.728C9.97182 13.9659 9.88632 14.1358 10.1048 13.8334C10.1009 13.8684 10.282 13.6456 10.1823 13.728ZM13.3844 13.8418C12.83 14.4264 12.0099 14.8481 11.2405 14.8765C12.13 14.883 12.9325 14.355 13.5352 13.7321C13.4956 13.6843 13.4154 13.8435 13.3844 13.8418ZM13.5538 14.0256C11.6911 15.3816 9.76407 16.7881 7.89507 18.1392C8.18944 18.2316 8.8306 18.2749 9.1232 17.8979C9.7457 17.4684 10.4455 17.1525 11.0701 16.7171C11.9745 16.1303 12.9429 15.4888 13.4565 14.5025C13.481 14.3702 13.6628 14.1323 13.5538 14.0256ZM10.0089 14.1116C10.0953 14.4765 11.1759 14.8953 11.0587 14.8151C10.6602 14.6754 10.265 14.4578 10.0089 14.1116Z" fill="#DC9624"/>
</g>
<defs>
<linearGradient id="paint0_linear_22_315" x1="0" y1="24" x2="24" y2="0" gradientUnits="userSpaceOnUse">
<stop stop-color="#DB7093"/>
<stop offset="1" stop-color="#F3B661"/>
</linearGradient>
<clipPath id="clip0_22_315">
<rect width="24" height="24" fill="white"/>
</clipPath>
</defs>
</svg>
