<svg width="24" height="24" viewBox="0 0 24 24" fill="none" xmlns="http://www.w3.org/2000/svg">
<g clip-path="url(#clip0_22_385)">
<path d="M18.375 0H5.625C2.5184 0 0 2.5184 0 5.625V18.375C0 21.4816 2.5184 24 5.625 24H18.375C21.4816 24 24 21.4816 24 18.375V5.625C24 2.5184 21.4816 0 18.375 0Z" fill="#00005B"/>
<path d="M9.85846 14.6362H6.13846L5.37842 16.9962C5.35846 17.0862 5.27849 17.1462 5.18849 17.1363H3.30842C3.19846 17.1363 3.16846 17.0763 3.19846 16.9563L6.41849 7.72622C6.44849 7.62628 6.47849 7.53628 6.51842 7.41628C6.55846 7.20628 6.57842 6.98625 6.57842 6.76622C6.56849 6.71625 6.60843 6.66628 6.65839 6.65625H9.24843C9.31846 6.65625 9.36843 6.68625 9.37846 6.73622L13.0284 16.9362C13.0584 17.0463 13.0284 17.0963 12.9285 17.0963H10.8384C10.7685 17.1063 10.6985 17.0562 10.6785 16.9863L9.85846 14.5863V14.6362ZM6.71849 12.6462H9.25846C9.19846 12.4362 9.11839 12.1863 9.02839 11.9262C8.93839 11.6562 8.84839 11.3663 8.75839 11.0663C8.65846 10.7562 8.56846 10.4562 8.46843 10.1463C8.36839 9.83634 8.27849 9.54628 8.19842 9.25622C8.11846 8.97628 8.04842 8.71622 7.97839 8.47622H7.95842C7.86842 8.90625 7.75846 9.33628 7.61839 9.76622C7.46839 10.2462 7.31839 10.7463 7.15846 11.2462C7.02843 11.7562 6.86839 12.2262 6.71849 12.6462ZM18.9185 13.7363H15.7485C15.7884 14.0463 15.8885 14.3562 16.0584 14.6262C16.2384 14.8962 16.4885 15.1062 16.7885 15.2262C17.1885 15.3963 17.6285 15.4863 18.0684 15.4763C18.4185 15.4662 18.7685 15.4362 19.1085 15.3663C19.4135 15.3264 19.7124 15.2491 19.9985 15.1362C20.0484 15.0963 20.0784 15.1163 20.0784 15.2163V16.7463C20.0784 16.7862 20.0685 16.8262 20.0585 16.8663C20.0385 16.8963 20.0184 16.9162 19.9884 16.9362C19.6686 17.0767 19.3328 17.1774 18.9885 17.2362C18.5207 17.3262 18.0447 17.3664 17.5685 17.3562C16.8084 17.3562 16.1685 17.2362 15.6485 17.0062C15.1584 16.7962 14.7285 16.4662 14.3885 16.0563C14.0718 15.671 13.8371 15.2252 13.6985 14.7462C13.5585 14.2762 13.4885 13.7862 13.4885 13.2863C13.4885 12.7463 13.5684 12.2163 13.7385 11.6963C13.8979 11.1955 14.1526 10.7304 14.4885 10.3263C14.8185 9.92625 15.2285 9.60628 15.6984 9.37622C16.1685 9.14625 16.7285 9.06628 17.3685 9.06628C17.8985 9.05625 18.4284 9.15628 18.9185 9.37622C19.3284 9.55622 19.6884 9.82622 19.9685 10.1763C20.2284 10.5162 20.4384 10.8963 20.5685 11.3163C20.6985 11.7162 20.7585 12.1263 20.7585 12.5363C20.7585 12.7763 20.7485 12.9862 20.7384 13.1763C20.7185 13.3662 20.7084 13.5063 20.6985 13.5963C20.6885 13.6662 20.6285 13.7262 20.5584 13.7262C20.4984 13.7262 20.3885 13.7362 20.2284 13.7463C20.0685 13.7662 19.8785 13.7763 19.6485 13.7763C19.4184 13.7763 19.1784 13.7363 18.9185 13.7363ZM15.7485 12.2763H17.8584C18.1185 12.2763 18.3084 12.2763 18.4284 12.2662C18.5085 12.2562 18.5885 12.2362 18.6585 12.1863V12.0862C18.6588 11.9605 18.6385 11.8355 18.5985 11.7162C18.4185 11.1562 17.8884 10.7763 17.2985 10.7963C17.0271 10.781 16.7571 10.8447 16.521 10.9796C16.285 11.1144 16.0931 11.3147 15.9684 11.5563C15.8484 11.7862 15.7785 12.0263 15.7485 12.2763Z" fill="#9999FF"/>
</g>
<defs>
<clipPath id="clip0_22_385">
<rect width="24" height="24" fill="white"/>
</clipPath>
</defs>
</svg>
