<svg width="24" height="24" viewBox="0 0 24 24" fill="none" xmlns="http://www.w3.org/2000/svg">
<g clip-path="url(#clip0_22_255)">
<path d="M18.375 0H5.625C2.5184 0 0 2.5184 0 5.625V18.375C0 21.4816 2.5184 24 5.625 24H18.375C21.4816 24 24 21.4816 24 18.375V5.625C24 2.5184 21.4816 0 18.375 0Z" fill="#242938"/>
<path d="M21.2895 5.40011L12.4928 21.1301C12.3111 21.455 11.8445 21.4569 11.6602 21.1337L2.68896 5.40151C2.48814 5.04939 2.78927 4.62283 3.18846 4.69417L11.9946 6.26823C12.0508 6.27825 12.1083 6.27812 12.1645 6.26786L20.7865 4.69633C21.1842 4.62386 21.4868 5.04714 21.2895 5.40011Z" fill="url(#paint0_linear_22_255)"/>
<path d="M16.1893 2.62969L9.67951 3.90516C9.6275 3.91536 9.58035 3.94255 9.54547 3.98246C9.5106 4.02238 9.48998 4.07275 9.48685 4.12566L9.08635 10.8889C9.08417 10.926 9.09065 10.963 9.10529 10.9972C9.11993 11.0313 9.14232 11.0616 9.17069 11.0855C9.19906 11.1095 9.23263 11.1266 9.26873 11.1353C9.30483 11.144 9.34247 11.1442 9.37866 11.1359L11.1911 10.7177C11.3607 10.6786 11.5139 10.8279 11.4791 10.9985L10.9406 13.6353C10.9044 13.8128 11.071 13.9644 11.2443 13.9118L12.3638 13.5717C12.5373 13.519 12.7041 13.6712 12.6673 13.8488L11.8116 17.9906C11.758 18.2498 12.1027 18.391 12.2464 18.1688L12.3424 18.0205L17.6469 7.43429C17.7358 7.2571 17.5826 7.05497 17.3879 7.09247L15.5224 7.45257C15.3471 7.48632 15.1979 7.3231 15.2473 7.15163L16.465 2.93044C16.5145 2.75869 16.3648 2.59538 16.1893 2.62969Z" fill="url(#paint1_linear_22_255)"/>
</g>
<defs>
<linearGradient id="paint0_linear_22_255" x1="2.46996" y1="4.13195" x2="13.4182" y2="19.0005" gradientUnits="userSpaceOnUse">
<stop stop-color="#41D1FF"/>
<stop offset="1" stop-color="#BD34FE"/>
</linearGradient>
<linearGradient id="paint1_linear_22_255" x1="11.4891" y1="2.97591" x2="13.4695" y2="16.5619" gradientUnits="userSpaceOnUse">
<stop stop-color="#FFEA83"/>
<stop offset="0.083" stop-color="#FFDD35"/>
<stop offset="1" stop-color="#FFA800"/>
</linearGradient>
<clipPath id="clip0_22_255">
<rect width="24" height="24" fill="white"/>
</clipPath>
</defs>
</svg>
