<svg width="24" height="24" viewBox="0 0 24 24" fill="none" xmlns="http://www.w3.org/2000/svg">
<g clip-path="url(#clip0_15_82)">
<path d="M18.375 0H5.625C2.5184 0 0 2.5184 0 5.625V18.375C0 21.4816 2.5184 24 5.625 24H18.375C21.4816 24 24 21.4816 24 18.375V5.625C24 2.5184 21.4816 0 18.375 0Z" fill="#00005B"/>
<path d="M5.0625 17.1262V6.82622C5.0625 6.75628 5.0925 6.71625 5.16253 6.71625C5.3325 6.71625 5.49253 6.71625 5.7225 6.70622C5.9625 6.69628 6.21253 6.69628 6.48253 6.68625C6.75253 6.67622 7.0425 6.67622 7.35253 6.66628C7.66247 6.65625 7.96247 6.65625 8.26247 6.65625C9.0825 6.65625 9.76247 6.75628 10.3225 6.96628C10.8245 7.13677 11.2822 7.41686 11.6625 7.78622C11.9847 8.10957 12.2336 8.49833 12.3925 8.92622C12.5425 9.34622 12.6225 9.77625 12.6225 10.2263C12.6225 11.0863 12.4225 11.7963 12.0225 12.3563C11.6225 12.9162 11.0625 13.3362 10.4125 13.5762C9.73247 13.8263 8.98247 13.9163 8.16253 13.9163C7.92253 13.9163 7.7625 13.9162 7.66247 13.9062C7.56253 13.8963 7.42247 13.8963 7.23253 13.8963V17.1063C7.24247 17.1762 7.1925 17.2362 7.12247 17.2463H5.1825C5.10253 17.2463 5.0625 17.2062 5.0625 17.1162V17.1262ZM7.24247 8.65622V12.0162C7.38253 12.0263 7.51247 12.0363 7.63247 12.0363H8.16253C8.55253 12.0363 8.94253 11.9763 9.31247 11.8563C9.63253 11.7663 9.91247 11.5763 10.1325 11.3262C10.3425 11.0763 10.4425 10.7363 10.4425 10.2963C10.4519 9.98377 10.3721 9.67504 10.2125 9.40622C10.0425 9.14625 9.8025 8.94628 9.51253 8.83622C9.1425 8.68622 8.74247 8.62622 8.3325 8.63625C8.07253 8.63625 7.84247 8.63625 7.65253 8.64628C7.45247 8.63625 7.3125 8.64628 7.24247 8.65622ZM14.0625 9.24628H15.8125C15.9126 9.24628 15.9925 9.31622 16.0225 9.40622C16.0525 9.48628 16.0725 9.56625 16.0825 9.65625C16.1025 9.75628 16.1226 9.86625 16.1325 9.96628C16.1425 10.0762 16.1526 10.1963 16.1526 10.3263C16.4528 9.97573 16.8156 9.68408 17.2225 9.46622C17.6826 9.20625 18.2125 9.07622 18.7425 9.07622C18.8125 9.06628 18.8725 9.11625 18.8826 9.18628V11.1762C18.8826 11.2563 18.8325 11.2863 18.7225 11.2863C18.3625 11.2763 17.9925 11.3063 17.6425 11.3862C17.3525 11.4462 17.0725 11.5362 16.8025 11.6562C16.6125 11.7462 16.4325 11.8662 16.2925 12.0262V17.1262C16.2925 17.2263 16.2525 17.2662 16.1625 17.2662H14.1925C14.1126 17.2763 14.0425 17.2263 14.0325 17.1462V11.5662C14.0325 11.3262 14.0325 11.0763 14.0226 10.8162C14.0125 10.5563 14.0125 10.2963 14.0025 10.0362C14.0025 9.80625 13.9825 9.58622 13.9626 9.35625C13.9525 9.30628 13.9825 9.25622 14.0325 9.24628C14.0325 9.23625 14.0526 9.23625 14.0625 9.24628Z" fill="#9999FF"/>
</g>
<defs>
<clipPath id="clip0_15_82">
<rect width="24" height="24" fill="white"/>
</clipPath>
</defs>
</svg>
