<svg width="24" height="24" viewBox="0 0 24 24" fill="none" xmlns="http://www.w3.org/2000/svg">
<g clip-path="url(#clip0_22_264)">
<path d="M18.375 0H5.625C2.5184 0 0 2.5184 0 5.625V18.375C0 21.4816 2.5184 24 5.625 24H18.375C21.4816 24 24 21.4816 24 18.375V5.625C24 2.5184 21.4816 0 18.375 0Z" fill="#F4F2ED"/>
<path d="M16.1988 9.13178L16.1919 9.12887C16.1881 9.12737 16.1842 9.12596 16.1807 9.1225C16.1751 9.11648 16.1709 9.10925 16.1685 9.10136C16.1661 9.09348 16.1656 9.08515 16.167 9.07703L16.545 6.766L18.3177 8.53909L16.4741 9.3235C16.469 9.32564 16.4635 9.32663 16.458 9.3264H16.4507C16.447 9.32412 16.4437 9.32134 16.4408 9.31815C16.3722 9.24181 16.2901 9.17865 16.1988 9.13178ZM18.77 8.99096L20.6654 10.8863C21.0591 11.2805 21.2561 11.477 21.328 11.7049C21.3387 11.7387 21.3475 11.7724 21.3544 11.8071L16.8247 9.88881L16.8174 9.88581C16.7993 9.8785 16.7782 9.87015 16.7782 9.85159C16.7782 9.83303 16.7998 9.82421 16.8179 9.8169L16.8237 9.81446L18.77 8.99096ZM21.2771 12.4155C21.1793 12.5993 20.9887 12.7901 20.6659 13.1132L18.5289 15.2497L15.7651 14.6742L15.7504 14.6713C15.7259 14.6673 15.7 14.6629 15.7 14.6409C15.6895 14.5269 15.6556 14.4163 15.6005 14.3159C15.5454 14.2156 15.4702 14.1276 15.3797 14.0576C15.3684 14.0463 15.3714 14.0287 15.3748 14.0126C15.3748 14.0102 15.3748 14.0077 15.3758 14.0057L15.8956 10.8145L15.8976 10.8037C15.9006 10.7792 15.9049 10.7509 15.9269 10.7509C16.0383 10.7371 16.1459 10.7012 16.2433 10.6454C16.3406 10.5895 16.426 10.5149 16.4942 10.4257C16.4986 10.4208 16.5015 10.4154 16.5074 10.4125C16.5231 10.4052 16.5416 10.4125 16.5577 10.4193L21.2767 12.4155H21.2771ZM18.0375 15.7412L14.5235 19.2552L15.125 15.5583L15.1259 15.5534C15.1264 15.5486 15.1274 15.5438 15.1289 15.5392C15.1338 15.5275 15.1464 15.5226 15.1587 15.5177L15.1645 15.5153C15.2962 15.4591 15.4127 15.3724 15.5045 15.2625C15.5162 15.2488 15.5303 15.2356 15.5484 15.2331C15.5531 15.2324 15.5579 15.2324 15.5626 15.2331L18.0369 15.7417L18.0375 15.7412ZM13.7797 19.999L13.3836 20.3951L9.0045 14.0663L8.99962 14.0595C8.99287 14.0502 8.98556 14.0409 8.98697 14.0301C8.98744 14.0223 8.99231 14.0155 8.99775 14.0096L9.00262 14.0033C9.01575 13.9837 9.027 13.9641 9.03928 13.9431L9.04903 13.926L9.05053 13.9246C9.05737 13.9128 9.06366 13.9016 9.07547 13.8952C9.08578 13.8903 9.09984 13.8923 9.11109 13.8947L13.9626 14.8952C13.9762 14.8973 13.989 14.9029 13.9998 14.9114C14.0062 14.9177 14.0076 14.9246 14.0091 14.9324C14.0429 15.0604 14.1058 15.1789 14.193 15.2786C14.2802 15.3783 14.3893 15.4564 14.5117 15.507C14.5254 15.5138 14.5195 15.529 14.5132 15.5451C14.5101 15.5522 14.5077 15.5595 14.5058 15.5672C14.4447 15.9388 13.9206 19.1358 13.7797 19.999ZM12.9523 20.8259C12.6604 21.1149 12.4882 21.2679 12.2936 21.3296C12.1017 21.3902 11.8958 21.3902 11.7038 21.3296C11.476 21.2572 11.279 21.0606 10.8853 20.6665L6.48769 16.2689L7.63631 14.4873C7.64122 14.4784 7.64789 14.4706 7.65591 14.4644C7.66809 14.4556 7.68572 14.4595 7.70044 14.4644C7.96406 14.544 8.24709 14.5296 8.50134 14.4238C8.51456 14.4189 8.52778 14.4155 8.53809 14.4248C8.54316 14.4295 8.54772 14.4347 8.55178 14.4405L12.9523 20.8263V20.8259ZM6.06366 15.8448L5.05491 14.8361L7.04709 13.9862C7.05215 13.9838 7.05766 13.9827 7.06322 13.9828C7.07981 13.9828 7.08966 13.9994 7.09847 14.0146C7.11847 14.0453 7.13966 14.0753 7.16203 14.1045L7.16831 14.1123C7.17422 14.1206 7.17028 14.1289 7.16447 14.1368L6.06412 15.8448H6.06366ZM4.60837 14.3896L3.33206 13.1132C3.11503 12.8961 2.95753 12.7387 2.84794 12.6032L6.72872 13.4082L6.74344 13.4106C6.76734 13.4145 6.79378 13.4189 6.79378 13.4414C6.79378 13.4658 6.76491 13.4771 6.74044 13.4864L6.72919 13.4912L4.60837 14.3896ZM2.625 11.947C2.62941 11.8648 2.64421 11.7834 2.66906 11.7049C2.74134 11.477 2.93794 11.2805 3.33206 10.8863L4.96537 9.25309C5.71742 10.3445 6.47148 11.4345 7.22756 12.5231C7.24069 12.5406 7.25541 12.5602 7.24022 12.5748C7.16887 12.6536 7.09744 12.7397 7.04709 12.8331C7.04163 12.8451 7.03321 12.8555 7.02262 12.8634C7.01625 12.8673 7.0095 12.8658 7.002 12.8643H7.00106L2.625 11.9465V11.947ZM5.40253 8.81593L7.59862 6.61975C7.80506 6.71021 8.55619 7.02756 9.228 7.31125C9.73659 7.5264 10.2002 7.72196 10.3459 7.78562C10.3606 7.79143 10.3738 7.79734 10.3801 7.81196C10.384 7.82078 10.3821 7.83203 10.3801 7.84131C10.3454 7.99984 10.3507 8.16449 10.3953 8.3205C10.4399 8.47651 10.5226 8.61901 10.6358 8.73521C10.6506 8.74993 10.6358 8.77084 10.6232 8.78903L10.6163 8.79934L8.3865 12.2531C8.38162 12.2629 8.37437 12.2713 8.36541 12.2776C8.35369 12.2849 8.33709 12.2815 8.32341 12.278C8.23663 12.2554 8.14747 12.2433 8.05781 12.2418C7.97766 12.2418 7.89056 12.2566 7.80262 12.2727H7.80206C7.79231 12.2742 7.7835 12.2761 7.77572 12.2702C7.76707 12.2632 7.75963 12.2548 7.75369 12.2453L5.40253 8.81593ZM8.04225 6.17621L10.8853 3.33315C11.279 2.9395 11.476 2.74253 11.7038 2.67053C11.8958 2.60982 12.1017 2.60982 12.2936 2.67053C12.5215 2.74243 12.7186 2.93959 13.1122 3.33315L13.7284 3.94928L11.7063 7.0809C11.7013 7.09001 11.6945 7.09799 11.6863 7.10434C11.674 7.11278 11.657 7.10931 11.6422 7.10434C11.4828 7.05597 11.314 7.04717 11.1504 7.0787C10.9868 7.11022 10.8334 7.18113 10.7033 7.28528C10.6901 7.29896 10.6706 7.29118 10.6539 7.28387C10.3899 7.16893 8.33606 6.301 8.04225 6.17621ZM14.1577 4.37865L16.0247 6.24568L15.5749 9.03203V9.03934C15.5744 9.0457 15.573 9.05197 15.5709 9.058C15.5661 9.06775 15.5562 9.06971 15.5465 9.07262C15.4503 9.10168 15.3597 9.14682 15.2785 9.20612C15.2751 9.20867 15.2718 9.21146 15.2687 9.21446C15.2633 9.22028 15.258 9.22571 15.2492 9.22665C15.242 9.22688 15.2348 9.22574 15.2281 9.22328L12.3831 8.01446L12.3777 8.01193C12.3596 8.00462 12.3382 7.99581 12.3382 7.97725C12.3213 7.81872 12.2696 7.66589 12.1866 7.52978C12.1729 7.50728 12.1577 7.48384 12.1694 7.46087L14.1577 4.37865ZM12.2349 8.58709L14.9019 9.71668C14.9167 9.72353 14.9328 9.72981 14.9392 9.745C14.9417 9.75409 14.9417 9.76375 14.9392 9.77284C14.93 9.81512 14.9251 9.85821 14.9244 9.90146V9.97628C14.9244 9.99493 14.9054 10.0027 14.8878 10.01L14.8824 10.012C14.4599 10.1925 8.95078 12.5417 8.94244 12.5417C8.93409 12.5417 8.92537 12.5417 8.91703 12.5333C8.90241 12.5187 8.91703 12.4982 8.93016 12.4795C8.93253 12.4763 8.93484 12.4731 8.93709 12.4697L11.1288 9.076L11.1327 9.07018C11.1455 9.04956 11.1601 9.02668 11.1835 9.02668L11.2056 9.03006C11.2554 9.0369 11.2995 9.04328 11.3439 9.04328C11.6765 9.04328 11.9845 8.88146 12.1703 8.60462C12.1749 8.59731 12.1805 8.59073 12.187 8.58512C12.2002 8.57528 12.2197 8.58034 12.2349 8.58709ZM9.18056 13.0785L15.1856 10.5176C15.1856 10.5176 15.1944 10.5176 15.2027 10.5258C15.2355 10.5587 15.2633 10.5806 15.2902 10.6011L15.3035 10.6095C15.3157 10.6163 15.3279 10.6242 15.3289 10.6368C15.3289 10.6417 15.3289 10.6447 15.3279 10.6491L14.8134 13.8091L14.8115 13.8217C14.8081 13.8462 14.8046 13.8741 14.7817 13.8741C14.6445 13.8832 14.5116 13.9257 14.3946 13.9979C14.2776 14.0701 14.18 14.1698 14.1103 14.2883L14.1078 14.2922C14.1009 14.3034 14.0947 14.3142 14.0834 14.3201C14.0731 14.325 14.0599 14.323 14.0492 14.3206L9.26034 13.3327C9.25547 13.3318 9.18591 13.0789 9.18056 13.0785Z" fill="url(#paint0_radial_22_264)"/>
</g>
<defs>
<radialGradient id="paint0_radial_22_264" cx="0" cy="0" r="1" gradientUnits="userSpaceOnUse" gradientTransform="translate(2.01101 11.7434) rotate(90) scale(18.7294 21.6237)">
<stop stop-color="#20C6B7"/>
<stop offset="1" stop-color="#4D9ABF"/>
</radialGradient>
<clipPath id="clip0_22_264">
<rect width="24" height="24" fill="white"/>
</clipPath>
</defs>
</svg>
