<svg width="24" height="24" viewBox="0 0 24 24" fill="none" xmlns="http://www.w3.org/2000/svg">
<g clip-path="url(#clip0_20_191)">
<path d="M8.55 9.88794C9.471 9.88794 10.208 10.1179 10.771 10.6299C11.156 10.9789 11.371 11.4759 11.365 11.9969C11.3641 12.2541 11.3109 12.5084 11.2088 12.7444C11.1067 12.9804 10.9578 13.1932 10.771 13.3699C10.244 13.8539 9.423 14.1119 8.551 14.1119C7.679 14.1119 6.871 13.8539 6.336 13.3699C6.1427 13.1979 5.98878 12.9862 5.88471 12.7492C5.78065 12.5123 5.72891 12.2557 5.733 11.9969C5.733 11.4789 5.951 10.9819 6.336 10.6299C6.836 10.1759 7.72 9.88794 8.55 9.88794ZM8.553 13.5579C9.014 13.5579 9.441 13.3969 9.741 13.0999C10.041 12.7999 10.174 12.4399 10.174 11.9969C10.174 11.5729 10.026 11.1759 9.741 10.8939C9.447 10.6039 9.008 10.4399 8.553 10.4399C8.098 10.4399 7.66 10.6029 7.363 10.8939C7.078 11.1759 6.929 11.5729 6.929 11.9969C6.92291 12.4074 7.07885 12.8037 7.363 13.0999C7.66 13.3939 8.096 13.5579 8.553 13.5579ZM3.712 11.5899C3.872 11.6306 4.02734 11.6849 4.178 11.7529C4.31765 11.8175 4.44571 11.9047 4.557 12.0109C4.754 12.2169 4.866 12.4929 4.863 12.7779C4.86515 12.9282 4.83197 13.0769 4.76614 13.2121C4.70031 13.3472 4.60367 13.465 4.484 13.5559C4.27188 13.7161 4.03129 13.8345 3.775 13.9049C3.38898 14.0265 2.98562 14.084 2.581 14.0749C2.229 14.0749 2.035 14.0339 1.768 13.9779L1.691 13.9619C1.39675 13.897 1.10943 13.8039 0.833002 13.6839C0.820641 13.6756 0.805924 13.6714 0.791002 13.6719C0.769073 13.6725 0.748217 13.6815 0.732894 13.6972C0.717571 13.7129 0.708996 13.734 0.709002 13.7559V13.9589H0.121002V12.4809H0.645002C0.648467 12.6307 0.69613 12.7762 0.782002 12.8989C0.994002 13.1589 1.222 13.2589 1.439 13.3389C1.806 13.4589 2.191 13.5229 2.575 13.5349C3.128 13.5349 3.451 13.4009 3.521 13.3719L3.53 13.3679L3.536 13.3659C3.598 13.3429 3.848 13.2519 3.848 12.9739C3.848 12.6999 3.614 12.6399 3.461 12.6009L3.439 12.5959C3.269 12.5499 2.877 12.5079 2.449 12.4629L2.297 12.4469C1.89567 12.4059 1.49629 12.3475 1.1 12.2719C0.602003 12.1619 0.406002 11.9799 0.284002 11.8669L0.276002 11.8589C0.0981552 11.6693 -0.000568722 11.4189 2.46475e-06 11.1589C2.46475e-06 10.6629 0.340002 10.3629 0.758002 10.1789C1.21273 9.98481 1.70258 9.88643 2.197 9.88994C3.017 9.89294 3.684 10.1599 3.924 10.2839C4.021 10.3359 4.069 10.2719 4.069 10.2239V10.0749H4.596V11.3629H4.124C4.08203 11.1716 3.97881 10.9993 3.83 10.8719C3.73944 10.7993 3.63955 10.7391 3.533 10.6929C3.13748 10.5255 2.71147 10.4421 2.282 10.4479C1.839 10.4479 1.415 10.5329 1.202 10.6629C1.06934 10.7456 1.00267 10.8476 1.002 10.9689C1.002 11.1419 1.148 11.2109 1.222 11.2319C1.418 11.2919 1.854 11.3349 2.193 11.3689L2.397 11.3899C2.724 11.4229 3.409 11.5139 3.712 11.5899ZM21.879 10.5929V10.1139H24V10.5839H23.524C23.352 10.5839 23.282 10.6169 23.152 10.7629L21.725 12.3929C21.7101 12.4131 21.7034 12.4381 21.706 12.4629V13.2049C21.7082 13.2395 21.7122 13.2738 21.718 13.3079C21.7265 13.3297 21.74 13.3492 21.7573 13.3648C21.7747 13.3804 21.7955 13.3918 21.818 13.3979C21.8611 13.4041 21.9045 13.4074 21.948 13.4079H22.434V13.8779H19.86V13.4079H20.32C20.3635 13.4074 20.4069 13.4041 20.45 13.3979C20.4729 13.3916 20.4942 13.3803 20.5122 13.3647C20.5302 13.3491 20.5444 13.3297 20.554 13.3079C20.5587 13.2748 20.5617 13.2414 20.563 13.2079V12.4659C20.563 12.4409 20.563 12.4409 20.53 12.4019L19.119 10.7999C19.043 10.7209 18.913 10.5939 18.713 10.5939H18.255V10.1239H20.843V10.5939H20.531C20.461 10.5939 20.413 10.6639 20.473 10.7399L21.352 11.7909C21.361 11.8029 21.367 11.8029 21.379 11.7939C21.391 11.7849 22.273 10.7489 22.279 10.7399C22.2864 10.7304 22.2918 10.7195 22.2949 10.7079C22.298 10.6962 22.2988 10.6841 22.2971 10.6721C22.2954 10.6602 22.2914 10.6487 22.2852 10.6384C22.279 10.628 22.2707 10.619 22.261 10.6119C22.2434 10.5997 22.2224 10.5934 22.201 10.5939L21.879 10.5929ZM15.595 10.5899H16.08C16.301 10.5899 16.34 10.6749 16.343 10.8809L16.371 12.4469L13.789 10.1229H11.944V10.5929H12.356C12.653 10.5929 12.674 10.7569 12.674 10.9029V13.1159C12.674 13.2439 12.675 13.4109 12.492 13.4109H11.986V13.8779H14.15V13.4079H13.622C13.41 13.4079 13.402 13.3109 13.398 13.1049V11.2229L16.371 13.8739H17.128L17.088 10.8779C17.092 10.6599 17.107 10.5869 17.331 10.5869H17.804V10.1169H15.595V10.5899Z" fill="white"/>
</g>
<defs>
<clipPath id="clip0_20_191">
<rect width="24" height="24" fill="white"/>
</clipPath>
</defs>
</svg>
